<?xml version="1.0" encoding="UTF-8"?>
<svg id="Layer_2" data-name="Layer 2" xmlns="http://www.w3.org/2000/svg" viewBox="0 0 169.13 196">
  <defs>
    <style>
      .cls-1 {
        fill: #db4141;
      }

      .cls-1, .cls-2, .cls-3, .cls-4, .cls-5 {
        stroke-width: 0px;
      }

      .cls-2 {
        fill: #29211c;
      }

      .cls-3 {
        fill: #7ab95e;
      }

      .cls-4 {
        fill: #e7c189;
      }

      .cls-5 {
        fill: #b97637;
      }
    </style>
  </defs>
  <g id="Layer_1-2" data-name="Layer 1">
    <g>
      <path class="cls-2" d="M76.73,46.33c-27.36,2.1-47.96-13.58-53.38-40.54C22.56,1.87,23.99.15,27.86.04c22.3-.61,41.13,5.41,51.7,27.26,1.56-3.3,2.92-6.48,4.53-9.51,2.61-4.91,5.05-5.81,10.2-3.85,1.85.71,3.65,1.64,5.33,2.69,4.29,2.69,4.68,4.57,1.26,8.2-6.67,7.07-9.59,15.79-11.56,24.98-.53,2.47-.15,3.83,2.98,2.85,3.32-1.04,6.85-1.42,10.17-2.46,32.55-10.18,62.12,11.05,65.81,42.37,4.59,38.91-9.57,71.07-39.56,95.96-9.74,8.08-21.45,9.48-33.36,4.37-7.15-3.07-14.01-3.15-21.14.14-11.52,5.33-22.48,3.11-32.53-3.79-15.45-10.62-25.08-25.91-32.62-42.6C1.83,130.61-1.76,113.86.85,96.17c5.05-34.16,34.22-53.63,67.63-45.18.97.24,1.94.45,2.91.69,6.61,1.64,6.68,1.57,5.34-5.35ZM80.54,67.93c-2.56-3.75-.38-8.57-4.4-9.53-11.47-2.74-23.03-5.35-34.95-2.25C18.7,62.02,3.73,84.76,5.59,109.65c1.64,21.96,9.89,41.21,22.87,58.64,5.81,7.8,12.57,14.59,21.4,19.1,7.33,3.74,14.82,4.05,22.13.71,8.25-3.77,16.32-4.17,24.6-.61,12.4,5.33,23.58,2.18,32.69-6.53,23.08-22.06,36.18-49.01,34.37-81.38-1.62-28.97-24.58-51.86-57.13-44.51-4.38.99-8.76,2.2-13.2,2.56-5.37.43-4.9,3.63-4.43,7.3.63,4.84,3.89,2.02,6.07,2.09.94.03,1.88-.61,2.85-.86,1.34-.35,3.12-1.89,3.98-.24.9,1.73-1.34,2.46-2.52,3.07-9.82,5.05-19.58,4.23-29.15-.74-1.22-.63-2.73-1.41-2.36-3.79,3.81,1.04,7.57,2.06,12.77,3.48ZM74.76,41.02c-5.87-7.72-12.89-13.3-20.93-17.71-1.05-.58-3.13-1.08-2.51-2.55.84-2.01,2.67-.44,3.78.06,6.76,3,12.44,7.55,17.71,12.68.62.61,1.11,2.42,2.66,1.01,1.01-.91.34-1.72.03-2.66-2.32-7.17-6.72-12.86-12.73-17.23-7.11-5.18-15.08-8.44-23.91-8.96-3.35-.2-8.01-2.49-9.78.38-1.5,2.42,1.52,6.4,2.99,9.5,8.98,18.86,24.22,28.04,42.69,25.48ZM83.63,62.61c-.22-13.9,2.42-26.94,10.89-38.15,2.67-3.54.93-4.15-1.79-5.33-3.45-1.49-4.09,1.36-4.99,3.25-6.14,12.95-6.08,26.56-4.11,40.23Z"/>
      <path class="cls-1" d="M80.54,67.93c-5.21-1.42-8.96-2.44-12.77-3.48-.38,2.38,1.14,3.16,2.36,3.79,9.57,4.97,19.33,5.79,29.15.74,1.19-.61,3.42-1.34,2.52-3.07-.86-1.65-2.63-.11-3.98.24-.96.25-1.91.89-2.85.86-2.19-.08-5.44,2.74-6.07-2.09-.48-3.67-.94-6.86,4.43-7.3,4.44-.36,8.83-1.58,13.2-2.56,32.55-7.35,55.51,15.54,57.13,44.51,1.81,32.37-11.29,59.32-34.37,81.38-9.11,8.71-20.29,11.86-32.69,6.53-8.29-3.56-16.35-3.16-24.6.61-7.31,3.34-14.8,3.04-22.13-.71-8.83-4.51-15.6-11.3-21.4-19.1-12.98-17.43-21.23-36.69-22.87-58.64-1.86-24.88,13.11-47.62,35.62-53.49,11.91-3.1,23.48-.49,34.95,2.25,4.02.96,1.84,5.78,4.4,9.53ZM20.5,94.12c-.25,1.93.41,4.15,2.83,5.23,2.53,1.13,4.48-.27,6.06-2.14.84-1,1.66-2.1,2.18-3.29,2.71-6.27,6.82-11.29,12.66-14.9,2.6-1.61,4.44-3.78,2.87-6.95-1.59-3.21-4.39-3.42-7.63-2.5-9.11,2.59-18.57,14.43-18.96,24.55ZM27.33,110.13c-.26-2.12-1.56-3.49-3.52-3.4-2.02.09-3.11,1.71-3.13,3.77-.02,1.87,1.28,2.59,2.89,2.68,2.1.12,3.38-.95,3.76-3.05Z"/>
      <path class="cls-3" d="M74.76,41.02c-18.47,2.55-33.71-6.62-42.69-25.48-1.47-3.1-4.49-7.08-2.99-9.5,1.78-2.87,6.43-.58,9.78-.38,8.83.53,16.81,3.78,23.91,8.96,6,4.38,10.4,10.06,12.73,17.23.3.94.97,1.75-.03,2.66-1.55,1.4-2.04-.4-2.66-1.01-5.27-5.13-10.95-9.68-17.71-12.68-1.11-.49-2.94-2.07-3.78-.06-.61,1.47,1.46,1.97,2.51,2.55,8.03,4.41,15.06,9.99,20.93,17.71Z"/>
      <path class="cls-5" d="M83.63,62.61c-1.97-13.67-2.03-27.28,4.11-40.23.9-1.89,1.54-4.74,4.99-3.25,2.72,1.18,4.47,1.79,1.79,5.33-8.47,11.21-11.11,24.25-10.89,38.15Z"/>
      <path class="cls-4" d="M20.5,94.12c.4-10.12,9.85-21.96,18.96-24.55,3.24-.92,6.04-.71,7.63,2.5,1.57,3.17-.27,5.34-2.87,6.95-5.83,3.61-9.95,8.63-12.66,14.9-.52,1.19-1.34,2.29-2.18,3.29-1.57,1.88-3.53,3.27-6.06,2.14-2.43-1.08-3.08-3.3-2.83-5.23Z"/>
      <path class="cls-4" d="M27.33,110.13c-.38,2.1-1.66,3.16-3.76,3.05-1.61-.09-2.91-.82-2.89-2.68.02-2.06,1.11-3.67,3.13-3.77,1.96-.09,3.27,1.28,3.52,3.4Z"/>
    </g>
  </g>
</svg>