<?xml version="1.0" encoding="UTF-8"?>
<svg id="Layer_2" data-name="Layer 2" xmlns="http://www.w3.org/2000/svg" viewBox="0 0 183.44 235.64">
  <defs>
    <style>
      .cls-1 {
        fill: #e9b94b;
      }

      .cls-1, .cls-2, .cls-3, .cls-4 {
        stroke-width: 0px;
      }

      .cls-2 {
        fill: #29211c;
      }

      .cls-3 {
        fill: #f2cb55;
      }

      .cls-4 {
        fill: #7ab95e;
      }
    </style>
  </defs>
  <g id="Layer_1-2" data-name="Layer 1">
    <g>
      <path class="cls-2" d="M49.67,235.6c-16,.57-30.4-5.05-44.46-11.62-6.37-2.98-7-16.04-1.35-20.28,1.05-.79,2.3-1.51,3-2.56,10.39-15.57,25.84-24.45,42.05-32.59,37.54-18.86,60.68-49.03,70.15-89.98,2.92-12.64,6.86-25.07,16.24-34.83,1.41-1.47,1.72-3.01,1.01-5-2.73-7.64-4.82-15.57-10.47-21.82-2.41-2.67-1.33-5.5.41-7.75,3.9-5.02,9.12-8.31,15.47-9.13,5.1-.66,10.98,5.49,10.53,10.82-.42,5.04.21,9.91,1.24,14.83,1.48,7.03,5.01,12.1,11.23,16.17,12.6,8.26,16.98,21.53,18.17,35.62,3.73,44.21-12.1,81.58-41.8,113.42-21.59,23.15-48.1,38.04-79.55,43.45-3.92.67-7.92.84-11.88,1.25ZM22.94,224.99c7.84,3.63,16.2,4.93,24.7,4.91,17.82-.05,34.38-5.53,50.06-13.38,21.59-10.81,39.43-26.24,53.21-46.15,18.61-26.9,28.99-56.32,26.97-89.44-.63-10.31-3.37-19.94-9.85-28.23-3.13-5.09-8.24-7.84-13.03-10.95-6.98-9.39-7.92-20.4-8.07-32.48-4.51,4.8-9.52,6.56-15.69,6.55,1.2,1.95,2.14,3.26,2.87,4.69,4.13,7.98,8.45,15.93,6.71,25.46-2.71,2.07-4.38,4.96-6.18,7.75-5.58,8.67-8.35,18.42-10.7,28.3-4.06,16.99-10.77,32.87-20.65,47.24-14.3,20.8-33.74,35.55-56.27,46.54-13.26,6.47-25.51,14.25-34.34,26.6-2.35,3.29-6.26,5.55-1.75,9.87.55.53.61,2.01.35,2.89-1.53,5.39,1.8,6.97,6,8.04,1.92.49,3.78,1.19,5.67,1.8Z"/>
      <path class="cls-3" d="M154.99,41.75c4.8,3.11,9.9,5.85,13.03,10.95-1.89,2.79-1.54,5.49-.8,8.76,1.08,4.78,2.07,9.77,1.57,14.75-1.27,12.47-1.8,24.95-5.81,37.14-7.72,23.5-18.45,45.03-35.84,62.96-15.92,16.41-34.43,28.96-55.21,38.33-4.34,1.95-8.61,4.68-12.63-1.71,2.01,4.73-.88,5.85-3.73,7.22-2.87,1.38-5.81,2.26-8.92,2.96-7.84,1.77-15.94-.12-23.72,1.9-1.89-.6-3.75-1.31-5.67-1.8-4.2-1.07-7.53-2.65-6-8.04.25-.89.2-2.36-.35-2.89-4.51-4.32-.6-6.58,1.75-9.87,8.83-12.35,21.08-20.14,34.34-26.6,22.53-10.99,41.97-25.75,56.27-46.54,9.88-14.37,16.59-30.24,20.65-47.24,2.36-9.87,5.12-19.63,10.7-28.3,1.8-2.79,3.47-5.68,6.18-7.75,4.94-.69,9.48-2.71,14.18-4.22ZM145.36,49.55c-1.88,35.77-7.93,70.4-28.37,101.03,23.98-29.55,30.24-64.12,28.37-101.03ZM41.53,201.87c20.71-6.1,39.49-15.59,55.09-30.71-17.5,11.82-36.46,21-55.09,30.71ZM26.68,207.79c-4.7.19-9.02,1.67-13.16,3.79,5.1,1.21,9.27-.79,13.16-3.79Z"/>
      <path class="cls-1" d="M22.94,224.99c7.79-2.03,15.88-.13,23.72-1.9,3.11-.7,6.05-1.58,8.92-2.96,2.84-1.37,5.74-2.48,3.73-7.22,4.01,6.39,8.29,3.67,12.63,1.71,20.78-9.36,39.3-21.91,55.21-38.33,17.39-17.93,28.12-39.46,35.84-62.96,4.01-12.19,4.54-24.67,5.81-37.14.51-4.98-.49-9.98-1.57-14.75-.74-3.27-1.08-5.97.8-8.76,6.49,8.29,9.23,17.92,9.85,28.23,2.01,33.12-8.37,62.55-26.97,89.44-13.78,19.92-31.62,35.34-53.21,46.15-15.68,7.85-32.24,13.34-50.06,13.38-8.5.02-16.86-1.28-24.7-4.91Z"/>
      <path class="cls-4" d="M154.99,41.75c-4.7,1.51-9.24,3.53-14.18,4.22,1.74-9.53-2.58-17.48-6.71-25.46-.74-1.42-1.67-2.74-2.87-4.69,6.17,0,11.18-1.75,15.69-6.55.15,12.08,1.09,23.09,8.07,32.48Z"/>
      <path class="cls-2" d="M145.36,49.55c1.87,36.91-4.39,71.48-28.37,101.03,20.44-30.62,26.49-65.26,28.37-101.03Z"/>
      <path class="cls-2" d="M41.53,201.87c18.63-9.72,37.59-18.89,55.09-30.71-15.61,15.13-34.38,24.62-55.09,30.71Z"/>
      <path class="cls-2" d="M26.68,207.79c-3.89,2.99-8.06,5-13.16,3.79,4.14-2.12,8.46-3.6,13.16-3.79Z"/>
    </g>
  </g>
</svg>