<?xml version="1.0" encoding="UTF-8"?>
<svg id="Layer_2" data-name="Layer 2" xmlns="http://www.w3.org/2000/svg" viewBox="0 0 247.66 180.79">
  <defs>
    <style>
      .cls-1 {
        fill: #e9b94b;
      }

      .cls-1, .cls-2, .cls-3, .cls-4, .cls-5 {
        stroke-width: 0px;
      }

      .cls-2 {
        fill: #29211c;
      }

      .cls-3 {
        fill: #c58643;
      }

      .cls-4 {
        fill: #e7c189;
      }

      .cls-5 {
        fill: #b97637;
      }
    </style>
  </defs>
  <g id="Layer_1-2" data-name="Layer 1">
    <g>
      <path class="cls-2" d="M7.27,123.17c-.17-9.34.67-18.6,2.04-27.82.34-2.3.31-4.26-1.66-6.31-10.06-10.49-10.15-22.82-.55-33.84,2.31-2.65,4.92-4.95,7.88-6.86,12.86-8.28,26.2-15.7,40.06-22.18,5.68-2.66,11.66-3.89,17.92-3.05,2.16.29,4.03.03,5.47-1.56,10.61-11.79,25.42-13.48,39.65-16.61,6.64-1.46,13.18-1.43,19.67.67,1.46.47,2.97.7,4.34-.19,10.95-7.16,22.71-5.96,34.66-3.56,20.5,4.1,39.38,11.79,55.88,24.86,3.8,3.01,7.25,6.37,10.04,10.35,6.92,9.89,6.69,21.02-.89,30.41-1.79,2.22-2.49,4.03-2.05,7.04,2.56,17.91,2.07,35.77-1.55,53.56-1.2,5.88-4.28,9.85-9.43,12.66-18,9.83-37.16,16.94-56.45,23.65-21.84,7.59-44.11,13.63-67.17,16.12-10.33,1.11-20.55-1.14-30.71-2.73-17.42-2.73-34.33-7.36-50.86-13.65-9.88-3.76-14.31-10.55-15.27-20.54-.65-6.8-1.15-13.59-1.01-20.42ZM126.25,93.84c-.2.5-.39,1.01-.59,1.51-1.67,3.86-3.74,7.49-7.53,9.57-2.75,1.52-3.39,3.49-3.13,6.47,1.71,19.16,1.87,38.29-1.62,57.3-.53,1.53-1.73,2.84-1.54,4.88,1.34-.16,2.64-.25,3.93-.46,9.68-1.58,19.12-4.2,28.6-6.64,27.92-7.18,54.77-17.15,80.41-30.38,4.89-2.52,7.44-6.28,8.31-11.58,2.64-16.17,3.31-32.41.83-48.59-.79-5.13.19-8.64,3.36-12.57,6.96-8.63,5.96-18.09-2.09-25.75-3.29-4.18-7.25-7.52-12.11-9.76l.02.02c-10.79-9.03-23.64-13.82-36.9-17.63-2.4-.69-4.98-1.68-8.47-.87,3,2.81,5.61,5.27,8.24,7.7,6.23,5.75,10.71,12.63,13.46,20.64.54,1.56,1.31,3.25-.38,4.56-1.61,1.24-3.2.33-4.63-.5-2.01-1.17-3.93-2.47-5.9-3.71-13.04-8.22-25.77-17.01-40.45-22.25-6.4-2.45-12.74-5.17-19.72-5.56-4.44.21-8.89.35-13.17,1.75-3.5.04-6.78,1-10.25,2.36,4.26,1.54,8.25,2.99,12.25,4.43,3.31,1.91,6.68,3.7,9.9,5.74,11.21,7.1,19.79,16.58,25.44,28.63.7,1.49,1.51,3.14.06,4.61-1.32,1.33-2.87.48-4.2-.06-3.07-1.24-6.08-2.66-9.1-4.03-15.24-6.89-29.77-15.43-46.18-19.58-8.34-3.06-17.02-4.37-25.83-4.96-13.81,2.11-24.71,10.3-36.88,16.84,1.84,1.36,3.16.87,4.37.71,25.32-3.27,48.91,2.31,70.93,14.57,11.16,6.21,20.45,14.44,21.3,28.62-.2,1-.39,1.99-.59,2.99-.05.32-.11.65-.16.97ZM13.12,121.98c-.04,8.17.37,14.79,1.09,21.42.81,7.53,4.29,12.25,11.55,15.14,22.43,8.93,45.71,13.92,69.65,16.04,11.14.99,13.49-1.07,15.5-12.22.18-.98.21-1.98.33-2.97,1.94-16.07,1.59-32.17.74-48.28-.17-3.14.19-6.01,3.13-7.87,9.4-5.95,11.49-18.72,1.37-29.29-8.51-8.89-19.27-13.96-30.74-17.74-4.05-1.34-8.36-1.82-12.42-3-18.37-5.34-36.68-6.08-54.59,1.08-13.48,5.38-16.6,20.14-6.97,30.94,2.98,3.35,3.7,6.74,3.18,10.93-1.11,9.07-1.97,18.18-1.82,25.82ZM149.35,54.71c-9.46-17.83-27.15-31.71-44.67-36.56-7.94-2.2-14.22-.43-19.83,5.41-2.32,2.42-1.67,2.86,1.13,3.55,13.58,3.36,26.42,8.71,38.86,15.05,7.76,3.96,15.52,7.94,24.52,12.55ZM194.62,36.61c-5.12-11.94-13.49-20.81-24.22-27.61-8.07-5.11-15.88-3.29-24.56.48,18.05,6.93,33.21,17.32,48.79,27.14Z"/>
      <path class="cls-4" d="M13.12,121.98c-.15-7.64.71-16.75,1.82-25.82.51-4.2-.2-7.59-3.18-10.93-9.63-10.8-6.51-25.56,6.97-30.94,17.91-7.16,36.22-6.41,54.59-1.08,4.06,1.18,8.36,1.67,12.42,3,11.47,3.78,22.23,8.86,30.74,17.74,10.12,10.57,8.03,23.33-1.37,29.29-2.93,1.86-3.29,4.72-3.13,7.87.85,16.11,1.2,32.21-.74,48.28-.12.99-.15,1.99-.33,2.97-2.02,11.15-4.37,13.21-15.5,12.22-23.94-2.13-47.22-7.11-69.65-16.04-7.26-2.89-10.74-7.61-11.55-15.14-.71-6.63-1.13-13.24-1.09-21.42ZM101.27,94.34c4.41.15,6.38-1.71,5.94-5.31-.41-3.3-2.05-5.59-5.77-5.46-.97.03-2.02.29-2.21,1.55-.13.88.07,1.41,1.11,1.78,5.19,1.83,5.31,2.65.93,7.44ZM83.22,148.98c-1.39.38-3.08.63-3.2,2.84-.14,2.67,2.5,1.49,3.66,2.4.46.36,3.02-.59,3.13-2.34.13-2.12-1.63-2.58-3.6-2.9ZM38.51,139.99c-.06-1.68-.8-2.94-2.56-3.05-1.48-.09-2.61.79-2.64,2.33-.03,1.69,1.07,2.82,2.69,3.05,1.57.22,2.45-.7,2.51-2.33Z"/>
      <path class="cls-3" d="M93.12,34.11c16.4,4.15,30.94,12.69,46.18,19.58,3.02,1.37,6.03,2.79,9.1,4.03,1.32.54,2.88,1.39,4.2.06,1.45-1.47.64-3.13-.06-4.61-5.65-12.05-14.23-21.53-25.44-28.63-3.22-2.04-6.6-3.83-9.9-5.74-1.23-2.1-2.53-4.18-2-6.79,4.28-1.4,8.73-1.54,13.17-1.75-2.47,4.26-1.1,7.19,3.14,9.16,3.34,1.55,6.84,2.37,10.54,2.3,3.88-.07,6.42-1.49,6.05-5.9,14.68,5.24,27.41,14.03,40.45,22.25,1.97,1.24,3.89,2.55,5.9,3.71,1.43.83,3.01,1.74,4.63.5,1.7-1.31.92-3,.38-4.56-2.75-8.01-7.23-14.89-13.46-20.64-2.64-2.43-5.24-4.89-8.24-7.7,3.48-.81,6.06.18,8.47.87,13.26,3.81,26.11,8.6,36.9,17.63-2.51.87-5.85-2.41-7.66,1.19-1.2,2.38.02,4.87,1.3,7.07,1.21,2.09,3.17,3.38,5.39,2.4,2.38-1.05,2.79-3.52,2.12-5.94-.44-1.57-1.57-2.96-1.16-4.74,4.86,2.23,8.82,5.58,12.11,9.76-1.68,4.06-1.26,8.81-4.66,12.36-5.8,6.04-12.13,11.18-19.64,15.07-17.06,8.83-35.05,15.05-53.64,19.47-9.95,2.37-19.86,5.37-30.26,5.38-.85-14.18-10.14-22.41-21.3-28.62-22.02-12.25-45.61-17.84-70.93-14.57-1.21.16-2.53.65-4.37-.71,12.17-6.54,23.08-14.74,36.88-16.84-2.17,3.95-.76,6.93,3.02,8.44,5.07,2.03,10.52,2.95,15.96,3.12,4.17.13,7.63-1.24,6.85-6.61Z"/>
      <path class="cls-3" d="M113.38,168.71c3.49-19.02,3.33-38.15,1.62-57.3-.27-2.98.38-4.96,3.13-6.47,3.78-2.08,5.86-5.72,7.53-9.57,6.9,3.66,14.05,4.56,21.51,1.91,6.49-.88,12.98-1.77,19.47-2.65.48-.18.96-.35,1.44-.53.93-.13,1.85-.26,2.78-.39.39-.16.78-.32,1.18-.48,1.01-.2,2.01-.39,3.02-.59,1.15,1.55,1.7.79,2.09-.55l1.94-.51c4,1.48,7.96.16,11.89-.28,8.73-.97,17.21-3.32,25.79-5.14,2.11-.45,5.13-1.43,5.2,2.37.09,4.79.67,9.63-.46,14.4-3.99,16.77-14.56,28.48-29.16,36.62-18.45,10.3-37.93,18.37-58.24,24.26-6.8,1.98-13.55,4.45-20.73,4.9Z"/>
      <path class="cls-5" d="M113.38,168.71c7.19-.45,13.93-2.92,20.73-4.9,20.3-5.9,39.78-13.96,58.24-24.26,14.59-8.15,25.17-19.86,29.16-36.62,1.13-4.76.55-9.6.46-14.4-.07-3.8-3.09-2.82-5.2-2.37-8.58,1.82-17.06,4.17-25.79,5.14-3.93.44-7.9,1.76-11.89.28,12.75-3.69,25.11-8.41,37.14-14,1.34-.62,4.03-1.04,3.14-3.02-.84-1.86-3-.21-4.41.3-7.95,2.87-15.74,6.26-23.8,8.75-14.1,4.35-28.35,8.24-42.99,10.46-1.35.2-3.44.05-3.67,1.82-.2,1.58,1.77.88,2.68,1.39-7.46,2.65-14.61,1.75-21.51-1.91.2-.51.39-1.01.59-1.52.11-.09.3-.18.3-.26,0-.24-.09-.47-.14-.71.2-1,.39-1.99.59-2.99,10.4,0,20.31-3.01,30.26-5.38,18.59-4.42,36.58-10.65,53.64-19.47,7.51-3.89,13.84-9.02,19.64-15.07,3.4-3.54,2.98-8.29,4.66-12.36,8.04,7.67,9.05,17.12,2.09,25.75-3.17,3.93-4.15,7.43-3.36,12.57,2.47,16.18,1.8,32.43-.83,48.59-.87,5.3-3.41,9.06-8.31,11.58-25.64,13.22-52.5,23.2-80.41,30.38-9.48,2.44-18.92,5.06-28.6,6.64-1.28.21-2.59.31-3.93.46-.19-2.04,1.01-3.35,1.54-4.88Z"/>
      <path class="cls-4" d="M149.35,54.71c-9-4.61-16.75-8.59-24.52-12.55-12.44-6.34-25.27-11.69-38.86-15.05-2.8-.69-3.45-1.13-1.13-3.55,5.61-5.84,11.88-7.61,19.83-5.41,17.53,4.85,35.21,18.72,44.67,36.56Z"/>
      <path class="cls-4" d="M194.62,36.61c-15.58-9.81-30.74-20.2-48.79-27.14,8.69-3.77,16.5-5.59,24.56-.48,10.74,6.8,19.1,15.67,24.22,27.61Z"/>
      <path class="cls-1" d="M93.12,34.11c.78,5.37-2.68,6.74-6.85,6.61-5.45-.17-10.89-1.09-15.96-3.12-3.77-1.51-5.19-4.49-3.02-8.44,8.82.58,17.49,1.9,25.83,4.96Z"/>
      <path class="cls-4" d="M148.08,15.81c.37,4.41-2.17,5.83-6.05,5.9-3.7.07-7.19-.75-10.54-2.3-4.24-1.97-5.61-4.9-3.14-9.16,6.99.39,13.32,3.11,19.72,5.56Z"/>
      <path class="cls-5" d="M115.19,12c-.53,2.62.77,4.7,2,6.79-3.99-1.44-7.99-2.89-12.25-4.43,3.47-1.36,6.75-2.32,10.25-2.36Z"/>
      <path class="cls-3" d="M126.41,92.88c.05.24.14.47.14.71,0,.09-.2.17-.3.26.05-.32.11-.65.16-.97Z"/>
      <path class="cls-2" d="M101.27,94.34c4.38-4.78,4.26-5.61-.93-7.44-1.04-.37-1.24-.9-1.11-1.78.19-1.26,1.24-1.52,2.21-1.55,3.72-.13,5.36,2.16,5.77,5.46.45,3.6-1.53,5.46-5.94,5.31Z"/>
      <path class="cls-2" d="M83.22,148.98c1.96.32,3.73.78,3.6,2.9-.11,1.75-2.67,2.7-3.13,2.34-1.17-.91-3.81.27-3.66-2.4.12-2.2,1.81-2.46,3.2-2.84Z"/>
      <path class="cls-2" d="M38.51,139.99c-.06,1.62-.94,2.55-2.51,2.33-1.62-.23-2.72-1.36-2.69-3.05.03-1.54,1.16-2.42,2.64-2.33,1.77.11,2.5,1.37,2.56,3.05Z"/>
      <path class="cls-1" d="M223.09,27.86c-.4,1.78.73,3.17,1.16,4.74.67,2.42.27,4.89-2.12,5.94-2.22.98-4.18-.32-5.39-2.4-1.28-2.2-2.5-4.69-1.3-7.07,1.81-3.6,5.15-.32,7.66-1.19,0,0-.02-.02-.02-.02Z"/>
      <path class="cls-2" d="M147.17,97.28c-.91-.52-2.89.18-2.68-1.39.23-1.77,2.32-1.62,3.67-1.82,14.64-2.22,28.89-6.1,42.99-10.46,8.06-2.49,15.85-5.88,23.8-8.75,1.41-.51,3.57-2.16,4.41-.3.9,1.98-1.8,2.4-3.14,3.02-12.03,5.58-24.39,10.31-37.14,14-.65.17-1.29.34-1.94.51-.79-.19-1.52-.11-2.09.55-1.01.2-2.01.39-3.02.59-.39.16-.78.32-1.18.48-.93.13-1.85.26-2.78.39-.48.18-.96.35-1.44.53-6.49.88-12.98,1.77-19.47,2.65Z"/>
      <path class="cls-5" d="M175.05,92.64c.57-.66,1.29-.74,2.09-.55-.39,1.34-.94,2.1-2.09.55Z"/>
      <path class="cls-5" d="M166.64,94.62c.48-.18.96-.35,1.44-.53-.48.18-.96.35-1.44.53Z"/>
      <path class="cls-5" d="M170.86,93.7c.39-.16.78-.32,1.18-.48-.39.16-.78.32-1.18.48Z"/>
    </g>
  </g>
</svg>