<?xml version="1.0" encoding="UTF-8"?>
<svg id="Layer_2" data-name="Layer 2" xmlns="http://www.w3.org/2000/svg" viewBox="0 0 206.6 128.59">
  <defs>
    <style>
      .cls-1 {
        fill: #cb8247;
      }

      .cls-1, .cls-2, .cls-3, .cls-4, .cls-5, .cls-6, .cls-7, .cls-8 {
        stroke-width: 0px;
      }

      .cls-2 {
        fill: #ecc386;
      }

      .cls-3 {
        fill: #73442a;
      }

      .cls-4 {
        fill: #c29269;
      }

      .cls-5 {
        fill: #cfc7bf;
      }

      .cls-6 {
        fill: #372a23;
      }

      .cls-7 {
        fill: #df9e58;
      }

      .cls-8 {
        fill: #aba49e;
      }
    </style>
  </defs>
  <g id="Layer_1-2" data-name="Layer 1">
    <g>
      <path class="cls-6" d="M123.14,0c5.2.12,9.75,1.91,13.51,5.52,3.96,3.81,7.65,7.89,10.75,12.44,1.35,1.98,2.89,3.37,5.26,4.25,3.19,1.19,5.16,1.02,7.57-1.93,6.1-7.47,13.15-7.67,20.25-1.18,3.76,3.43,6.7,7.48,7.98,12.42.92,3.52,2.46,5.83,6.23,6.78,2.69.68,5.16,2.25,7.74,3.39,2.19.97,4.19,1.94,4.17,4.9-.01,2.92-.7,5.28-3.75,6.28-2.19.72-2.79,2.16-3.02,4.44-.47,4.61-1.28,9.21-2.31,13.73-2.75,12.09-13.68,18.19-25.69,14.51-1.27-.39-2.5-.91-3.75-1.34-2.09-.72-3.08-.24-3.89,2.15-3.7,10.92-15.94,16.66-27.37,12.74-4.51-1.55-6.9-1.76-8.4,3.93-2.12,8.02-15.65,13.11-25.38,10.37-.96-.27-1.9-.6-2.83-.97-3.42-1.38-5.6-1.24-6.89,3.16-2.96,10.08-11.88,11.94-20.54,12.85-10.64,1.12-19.69-4.63-24.12-14.43-.96-2.11-2.11-2.05-3.89-1.81-12.35,1.63-20.55-4.07-23.14-16.2-.9-4.21-1.95-8.5-2-12.77-.07-5.52-3.67-9.52-6.15-13.43-4.18-6.6-8.12-13.3-11.61-20.26-3.57-7.13-2.15-10.91,5.32-13.5,15.21-5.28,30.47-10.39,45.8-15.32,20.55-6.6,41-13.52,61.86-19.09,2.73-.73,5.39-1.74,8.29-1.63ZM201.62,50.13c.49-.28.97-.56,1.46-.84-.79-.77-1.33-.24-1.87.35-.57.3-2-.06-1.48,1.05.38.8,1.37.12,1.89-.57ZM32.67,31c-.75.1-1.51.2-2.26.3.07.14.12.37.22.4.85.26,1.48-.1,1.99-.76.48-.08.97-.17,1.45-.25-.13-.17-.27-.35-.4-.52-.33.28-.67.55-1,.83ZM50.61,24.99c.73-.14,1.45-.27,2.18-.41-.08-.13-.13-.35-.25-.38-.85-.28-1.48.06-1.95.78-.69.13-1.37.25-2.28.42,1.12.63,1.74.25,2.29-.4ZM126.35,37.77c-.25.41-.5.83-.75,1.24-1.41,1.33-1.87,3.06-2.11,4.9-2.53,6.08-3.83,12.23-1.33,18.7.71,1.82,1.49,3.02,3.56,1.8,4.36-2.58,8.52-1.54,12.64.58.68.8,1.43,1.13,2.35.35h.28c4.12-.71,7.51-3.27,11.4-4.57,1.33-.45,2.25-1.37,2.12-2.94-.61-7.24-1.45-14.4-6.92-19.96l.02.03c-.4-.56-.8-1.13-1.21-1.69-6.98-7.27-11.37-7.9-17.09-2.47-.33.35-.65.7-.98,1.05-1,.77-1.82,1.66-1.99,2.99ZM6.46,39.72c-5.4,2.27-2.4,5.59-1.06,9.83.36-3.85.3-6.7,2.21-8.98.38-.44.76-.89,1.13-1.33-.95-.74-1.64-.23-2.29.48ZM66.35,55.48s-.26-.04-.25-.03c-3.5.45-5.55,2.9-7.53,5.46-1.72,3.56-3.43,7.12-5.15,10.67-1.31,2.21-1.71,4.68-1.73,7.16-.03,2.73-1.42,6.2,1.11,8.02,4.63,3.33,9.54,6.79,15.89,4.41,17.01-2.33,20.77-9.99,12.18-24.78-2.79-5.68-6.18-10.64-13.32-11.13l-1.21.23ZM50.42,67.7c-2.19.72-4.45,1.27-6.56,2.18-3.36,1.45-9.36,1.74-9.08,5.27.33,4.12,6.13,5.25,10.08,6.86,2.54,1.03,3.62.15,3.8-2.53.26-3.81,1.31-7.48,2.52-11.1.27-.43.49-.89-.07-1.21-.1-.06-.45.34-.69.52ZM37.67,89.84c-4.71-3.23-10.01-5.47-14.86-9.61-.31,5.91,1.26,10.64,2.09,15.46,1.42,8.27,6.7,12.5,14.73,13.72,2.57.28,6.59.69,6.8-1.72.37-4.29-.75-8.9-2.14-13.07-.86-2.57-4.03-3.66-6.61-4.77ZM189.51,78.98c6.64-6.33,5.37-14.91,7.52-23.56-8.12,3.46-14.95,7.03-22.18,9.24-6.43,1.96-9.33,5.23-9.23,11.99.04,3.01.27,4.72,3.58,4.72,7.2,2.79,14.08,2.9,20.32-2.39ZM163,73.01c.42-1.7,1.71-4.17-1.99-2.69-8.93,3.56-17.81,7.22-26.72,10.83-1.48.6-2.3,1.26-2.18,3.25.15,2.43-.26,4.99-.91,7.36-.84,3.1.89,3.36,3.1,3.41,1.06.38,2.1.84,3.19,1.12,12.33,3.14,21.85-2.66,24.43-14.98.57-2.72.72-5.53,1.07-8.3ZM99.6,108.74c15.74,5.36,24.96.15,28.31-16.03.4-1.92.51-3.91.76-5.86,1.44-3.41.52-4.1-2.83-2.68-7.3,3.09-14.48,6.7-22.07,8.8-6.29,1.74-7.94,5.31-8.35,11.06-.26,3.62.21,5.39,4.17,4.71ZM101.31,77.02c1.5,1.64,3.27,2.07,5.36,1.29,3.38-1.26,6.76-2.54,10.17-3.75,2.16-.77,2.9-2.18,2.91-4.5.03-7.39-2.31-13.86-7.04-19.49-4.61-6.43-9.47-7.95-15.35-4.78-4.53,1.86-5.78,6.25-7.77,10.06-3.23,6.08-3.74,12.44-2.22,19.11.63,2.76,1.86,3.18,4.11,1.89,3.31-1.9,6.59-1.71,9.84.16ZM159.44,26.92c-4.09,7.26-4.76,14.92-2.81,22.94.62,2.55,1.87,1.97,3.6,1.23,3.18-1.34,6.42-2.85,9.95-1.01,3.48,2.22,16.36-.75,18.16-4.24.27-.53.27-1.29.19-1.91-.8-6.04-2.02-11.94-6.15-16.77-.91-1.14-1.84-2.27-2.73-3.43-6.63-8.61-14.26-7.84-19.42,1.96-.26.41-.52.82-.78,1.23ZM59.62,102.8c-3.72-2.63-7.64-4.89-11.92-6.88-.51,2.71.75,4.79,1.18,7.01,1.02,3.66,2.03,7.32,3.06,10.98,1.16,4.11,3.88,6.77,7.7,8.53,5.63,2.59,11.5,3.17,17.48,2,7.89-1.54,13.18-5.84,14.27-14.33.53-4.08,1.4-8.12,2.26-12.99-4.43,1.59-8.25,2.87-12,4.32-7.21,2.8-14.42,5.22-22.02,1.36ZM140.29,22.18c.27,4-3.99,2.57-5.42,4.53,6.77.87,13.56,7.39,20.8-.24-5.13-1.69-9.78-3.59-11.75-8.98-1.53,1.57.97,4.93-2.86,3.91-.97-1.74-1.8-3.56-2.93-5.19-6.86-9.94-12.21-11.87-23.81-8.89-11.1,2.86-21.86,6.79-32.73,10.39-22.7,7.51-45.45,14.86-68.18,22.29-5.94,1.94-6.72,3.95-3.61,9.55,2.74,4.93,5.62,9.79,8.42,14.69,1.07,1.87,2.63,3.99,1.34,6-2.03,3.16-.3,4.47,2.02,5.87,10.11,6.07,20.37,11.9,30.24,18.33,6.91,4.51,13.87,4.59,21.11,1.93,41.72-15.32,83.41-30.72,124.3-48.18,1.57-.67,3.42-1.02,4.33-3.01-3.2-2.04-6.33-3.57-11.19-4.72,5.65,6.33,1.24,7.66-2.7,9.32-2.9,1.23-5.74,2.61-8.58,3.98-3.22,1.55-6.08,1.59-9.33-.52-4.54-2.95-9.81-.39-10.63,4.89-.33,2.14-1.47,3.2-3.24,3.98-3.04,1.33-6.15,2.53-9.08,4.09-4.21,2.24-8.03,2.93-12.51.11-3.91-2.45-8.91.45-9.85,5.12-.47,2.38-1.73,3.86-3.94,4.68-3.58,1.32-7.2,2.55-10.7,4.05-3.48,1.49-6.66,1.23-10.03-.46-5.29-2.64-9.62-.47-11.07,5.44-.52,2.12-2.11,2.91-3.73,3.68-5.1,2.44-10.41,4.28-15.97,5.46-3.59.77-7.18.75-10.24-.89-8.46-4.55-16.8-9.35-24.95-14.44-3.63-2.26-3.32-5.78.44-7.89,3.02-1.69,6.31-3,9.61-4.06,5.26-1.69,9.74-3.87,13.2-8.74,4.46-6.28,9.56-7.45,15.14-5.23,6.42,2.55,13.57.52,18.03-5.12,4.98-6.3,9.99-8.49,15.83-6.15,3.71,1.49,6.86.8,10.51-.13,6.85-1.74,7.49-9.03,12.42-12.51-36.56,11.54-72.49,24.47-109.17,35.16,1.85-1.86,4.06-2.74,6.31-3.52,21.8-7.55,43.55-15.29,65.45-22.55,16.22-5.38,32.15-11.63,48.69-16.04ZM198.19,51.17c-44.66,17.42-88.97,35.65-134.66,50.39,3.65.98,7.34,1.01,11.2-.4,31.47-11.53,62.66-23.79,93.6-36.66,10.07-4.19,20.42-7.74,29.85-13.33ZM78.68,57.23c1.69,2.35,3.16,4.39,5.01,6.96.96-3.39,1.74-6.13,2.7-9.5-2.81.93-5.09,1.67-7.71,2.54ZM119.75,43.66c-2.56.45-5.43.71-5.62,2.29-.24,1.95,1.98,3.65,3.77,5.42.65-2.68,1.17-4.85,1.85-7.7ZM8.13,52.6c-.41.27-.83.54-1.24.82,2.84,4.18,4.15,9.38,9.03,12.21-2.59-4.34-5.19-8.68-7.78-13.03ZM152.03,38.28c.98-2.54,1.92-4.47,1.45-7.06-1.75.61-3.36,1.17-5.3,1.84,1.3,1.76,2.35,3.18,3.85,5.21ZM61.1,21.58c1.48-.03,2.69.04,3.49-1.37-1.34-.3-2.54-.34-3.49,1.37ZM74,17.94c.27-.14.52-.28.78-.42-.24-.16-.47-.43-.71-.44-.25-.01-.51.23-.77.36.23.16.46.32.7.49ZM17.38,67.56c-.32-.35-.57-.75-.93-.97-.6-.36-.88.15-.74.58.11.35.58.63.95.83.11.06.42-.25.73-.44ZM71.05,18.54c-.07-.12-.12-.3-.23-.33-.13-.05-.3.03-.45.05l.3.52c.13-.08.25-.16.38-.24ZM67.71,19.77c.12-.09.24-.17.36-.26-.1-.1-.28-.31-.3-.3-.17.12-.32.28-.47.42.13.05.27.09.4.14ZM58.88,22.6c-.02-.11-.01-.26-.08-.31-.1-.07-.26-.05-.39-.08.04.17.07.35.11.52.12-.05.24-.09.36-.14ZM55.89,23.59c-.02-.1-.02-.25-.08-.29-.1-.06-.25-.05-.38-.08.03.17.07.34.1.5.12-.04.24-.09.35-.13ZM45.79,26.75c.15-.08.28-.16.41-.23-.26-.1-.51-.24-.78-.29-.11-.02-.25.13-.38.21.25.11.51.21.75.31ZM43.18,27.49c-.11-.09-.23-.27-.33-.26-.27.03-.54.13-.8.21.11.09.23.27.33.26.27-.02.54-.13.8-.21ZM39.84,28.16c-.27.1-.54.2-.82.3.12.09.26.28.36.26.28-.04.56-.17.83-.27-.12-.09-.24-.19-.38-.29ZM37.23,29.5c-.13-.12-.27-.33-.37-.32-.3.03-.6.16-.89.25.12.11.25.32.35.31.31-.03.6-.15.91-.24ZM11.3,38.48c-.28-.15-.53-.39-.79-.39-.25,0-.5.25-.75.39.24.14.49.39.73.39.26,0,.53-.24.81-.38Z"/>
      <path class="cls-5" d="M140.29,22.18c-16.54,4.41-32.47,10.66-48.68,16.04-21.9,7.27-43.64,15-65.45,22.55-2.24.78-4.46,1.65-6.31,3.52,36.69-10.69,72.62-23.62,109.17-35.16-4.93,3.47-5.56,10.76-12.42,12.51-3.66.93-6.8,1.62-10.51.13-5.84-2.34-10.85-.15-15.83,6.15-4.45,5.64-11.61,7.67-18.03,5.12-5.58-2.22-10.68-1.04-15.14,5.23-3.47,4.88-7.94,7.05-13.2,8.74-3.3,1.06-6.59,2.37-9.61,4.06-3.76,2.1-4.07,5.62-.44,7.89,8.15,5.09,16.49,9.89,24.95,14.44,3.06,1.64,6.65,1.66,10.24.89,5.56-1.19,10.87-3.02,15.97-5.46,1.61-.77,3.21-1.56,3.73-3.68,1.45-5.91,5.78-8.09,11.07-5.44,3.37,1.69,6.54,1.95,10.03.46,3.5-1.5,7.12-2.73,10.7-4.05,2.22-.82,3.47-2.3,3.94-4.68.93-4.68,5.94-7.57,9.85-5.12,4.49,2.81,8.3,2.13,12.51-.11,2.92-1.56,6.03-2.76,9.08-4.09,1.78-.78,2.91-1.83,3.24-3.98.82-5.28,6.08-7.84,10.63-4.89,3.25,2.11,6.1,2.07,9.33.52,2.84-1.37,5.68-2.76,8.58-3.98,3.94-1.66,8.34-3,2.7-9.32,4.86,1.15,7.99,2.68,11.19,4.72-.91,1.99-2.76,2.34-4.33,3.01-40.89,17.45-82.58,32.86-124.3,48.18-7.25,2.66-14.2,2.58-21.11-1.93-9.87-6.44-20.14-12.26-30.24-18.33-2.33-1.4-4.06-2.71-2.02-5.87,1.29-2.01-.28-4.13-1.34-6-2.8-4.9-5.68-9.76-8.42-14.69-3.11-5.59-2.33-7.6,3.61-9.55,22.72-7.44,45.48-14.79,68.18-22.29,10.87-3.59,21.63-7.53,32.73-10.39,11.6-2.99,16.95-1.06,23.81,8.89,1.12,1.63,1.96,3.46,2.93,5.19l-.77.79Z"/>
      <path class="cls-5" d="M59.62,102.8c7.61,3.86,14.81,1.44,22.02-1.36,3.75-1.46,7.57-2.74,12-4.32-.86,4.87-1.73,8.91-2.26,12.99-1.1,8.49-6.38,12.79-14.27,14.33-5.98,1.17-11.85.59-17.48-2-3.82-1.76-6.55-4.42-7.7-8.53-1.03-3.66-2.04-7.32-3.06-10.98,3.56-1.41,7.19,2.45,10.74-.13Z"/>
      <path class="cls-7" d="M68.7,91.17c-6.35,2.37-11.26-1.09-15.89-4.41-2.53-1.82-1.14-5.28-1.11-8.02.02-2.47.42-4.95,1.73-7.16,1.27,1.43,3.71,2.07,4.07.48.96-4.22,5.71-6.5,5.31-11.2,4.1.02,4.06-2.48,3.29-5.42,0,0,.26.04.26.04.4-.08.81-.15,1.21-.23,7.13.49,10.52,5.45,13.32,11.13-.09,3.96-.38,7.93-.22,11.88.14,3.36-1.07,5.49-3.94,7.3-2.74,1.73-5.84,3.05-8.02,5.6Z"/>
      <path class="cls-7" d="M138.37,64.99c-4.13-2.12-8.29-3.15-12.64-.58-2.06,1.22-2.85.02-3.56-1.8-2.5-6.47-1.2-12.61,1.33-18.7.14.12.28.25.41.37-.12.96-.47,2.18.92,2.35,1.92.24,2.84-1.29,3.74-2.67,1.29-1.97.44-5.02,3.28-6.26,1.06-.46,2.02-1.44,1.38-2.75-.77-1.58-2.23-.88-3.48-.71-.14-.18-.28-.35-.43-.52,5.72-5.43,10.11-4.79,17.09,2.47.09.79.38,1.43,1.2,1.69,0,0-.02-.03-.02-.03.33,2.1.5,4.25,1.02,6.3,1.93,7.56,1.07,14.08-6.38,18.35-1.08.62-1.82,1.45-1.24,2.83,0,0-.28-.01-.28-.01-.78-.12-1.57-.23-2.35-.35Z"/>
      <path class="cls-7" d="M170.19,50.09c-3.53-1.84-6.77-.33-9.95,1.01-1.74.73-2.98,1.32-3.6-1.23-1.95-8.02-1.28-15.68,2.81-22.94l.36.28c.05,1.98-2.04,4.89,1.49,5.43,1.59.24,2.04-2.26,2.26-3.87.29-2.17-.72-3.07-2.89-2.58-.14-.17-.29-.33-.44-.49,5.16-9.8,12.79-10.57,19.42-1.96.89,1.16,1.82,2.29,2.73,3.43.06,2.65-.25,5.37.24,7.94,2.02,10.68-3.98,14.92-12.43,14.99Z"/>
      <path class="cls-7" d="M97.36,45.8c5.87-3.16,10.74-1.65,15.35,4.78-.37,2.18.19,4.23.59,6.37,2.32,12.19-1.9,19.15-11.99,20.08-3.25-1.87-6.52-2.06-9.84-.16-2.25,1.29-3.49.87-4.11-1.89-1.51-6.67-1.01-13.03,2.22-19.11,0,.82-.07,1.64,0,2.45.14,1.69-1.05,4.39.94,4.81,2.66.57,1.7-2.99,3.03-4.16,1.96-1.74-.94-4.97,2.24-6.34,3.38-1.47,3.46-3.99,1.58-6.82Z"/>
      <path class="cls-5" d="M128.66,86.84c-.25,1.96-.36,3.94-.76,5.86-3.34,16.19-12.56,21.39-28.31,16.03-.44-4.87.14-9.37,5.07-11.88,7.74-3.94,15.25-8.48,23.99-10.02Z"/>
      <path class="cls-5" d="M163,73.01c-.34,2.77-.5,5.58-1.07,8.3-2.58,12.32-12.1,18.12-24.43,14.98-1.09-.28-2.13-.74-3.19-1.12,2.01-3.75,1.04-9.21,4.63-11.65,7.28-4.95,15.04-9.3,24.06-10.51Z"/>
      <path class="cls-5" d="M189.51,78.98c-6.24,5.29-13.12,5.18-20.32,2.39.23-5.25.7-10.45,6.07-13.3,3.96-2.11,8.02-4.04,12.08-5.95,3.23-1.52,4.54-.73,3.88,3.09-.79,4.55-1.16,9.18-1.71,13.77Z"/>
      <path class="cls-8" d="M198.19,51.17c-9.43,5.59-19.79,9.14-29.85,13.33-30.94,12.88-62.13,25.13-93.6,36.66-3.86,1.41-7.56,1.39-11.2.4,45.68-14.74,89.99-32.97,134.66-50.39Z"/>
      <path class="cls-5" d="M39.63,109.41c-8.03-1.22-13.31-5.45-14.73-13.72-.83-4.82-2.4-9.55-2.09-15.46,4.86,4.14,10.15,6.38,14.86,9.61,2.27,6.36,2.19,12.96,1.96,19.57Z"/>
      <path class="cls-8" d="M189.51,78.98c.55-4.59.92-9.22,1.71-13.77.66-3.82-.65-4.61-3.88-3.09-4.06,1.91-8.12,3.85-12.08,5.95-5.36,2.85-5.84,8.05-6.07,13.3-3.31,0-3.53-1.71-3.58-4.72-.1-6.75,2.81-10.02,9.23-11.99,7.24-2.21,14.06-5.78,22.18-9.24-2.15,8.64-.88,17.23-7.52,23.56Z"/>
      <path class="cls-8" d="M128.66,86.84c-8.75,1.54-16.25,6.07-23.99,10.02-4.93,2.51-5.51,7.01-5.07,11.88-3.96.68-4.43-1.08-4.17-4.71.41-5.76,2.06-9.32,8.35-11.06,7.59-2.1,14.77-5.71,22.07-8.8,3.35-1.42,4.27-.73,2.83,2.68Z"/>
      <path class="cls-1" d="M101.31,77.02c10.09-.92,14.31-7.89,11.99-20.08-.41-2.13-.97-4.19-.59-6.37,4.74,5.63,7.07,12.1,7.04,19.49,0,2.31-.74,3.73-2.91,4.5-3.4,1.21-6.78,2.49-10.17,3.75-2.09.78-3.87.34-5.36-1.29Z"/>
      <path class="cls-8" d="M51.19,68.39c-1.22,3.61-2.27,7.28-2.53,11.1-.18,2.68-1.26,3.56-3.8,2.53-3.96-1.61-9.75-2.74-10.08-6.86-.28-3.53,5.72-3.82,9.08-5.27,2.11-.91,4.37-1.47,6.56-2.18.26.23.51.46.77.69Z"/>
      <path class="cls-8" d="M163,73.01c-9.02,1.2-16.78,5.56-24.06,10.51-3.59,2.44-2.62,7.9-4.63,11.65-2.21-.06-3.95-.31-3.1-3.41.64-2.37,1.06-4.93.91-7.36-.12-1.99.7-2.65,2.18-3.25,8.91-3.61,17.79-7.27,26.72-10.83,3.7-1.47,2.41.99,1.99,2.69Z"/>
      <path class="cls-1" d="M140.99,65.35c-.58-1.38.15-2.2,1.24-2.83,7.45-4.27,8.31-10.79,6.38-18.35-.52-2.05-.69-4.2-1.02-6.3,5.48,5.55,6.31,12.72,6.92,19.96.13,1.58-.79,2.5-2.12,2.94-3.89,1.3-7.28,3.86-11.4,4.58Z"/>
      <path class="cls-1" d="M170.19,50.09c8.44-.07,14.44-4.31,12.43-14.99-.49-2.57-.18-5.29-.24-7.94,4.13,4.83,5.35,10.73,6.15,16.77.08.63.09,1.38-.19,1.91-1.8,3.5-14.68,6.47-18.16,4.24Z"/>
      <path class="cls-1" d="M68.7,91.17c2.19-2.55,5.28-3.87,8.02-5.6,2.87-1.81,4.07-3.94,3.94-7.3-.16-3.95.13-7.92.22-11.88,8.59,14.79,4.83,22.45-12.18,24.78Z"/>
      <path class="cls-5" d="M141.06,21.4c3.84,1.02,1.33-2.34,2.86-3.91,1.97,5.39,6.61,7.29,11.75,8.98-7.25,7.63-14.03,1.1-20.81.24,1.43-1.96,5.7-.52,5.42-4.53.26-.26.51-.52.77-.79Z"/>
      <path class="cls-8" d="M39.63,109.41c.23-6.61.31-13.21-1.96-19.57,2.58,1.11,5.75,2.21,6.61,4.77,1.4,4.17,2.51,8.78,2.14,13.07-.21,2.42-4.22,2-6.8,1.72Z"/>
      <path class="cls-2" d="M97.36,45.8c1.89,2.83,1.8,5.35-1.58,6.82-3.17,1.38-.27,4.6-2.24,6.34-1.33,1.18-.37,4.73-3.03,4.16-1.98-.42-.8-3.12-.94-4.81-.06-.81,0-1.64,0-2.45,1.99-3.82,3.24-8.2,7.77-10.07Z"/>
      <path class="cls-2" d="M62.8,60.87c.4,4.7-4.35,6.98-5.31,11.2-.36,1.59-2.8.94-4.07-.48,1.72-3.56,3.43-7.12,5.15-10.67,1.41-.01,2.82-.03,4.22-.04Z"/>
      <path class="cls-8" d="M59.62,102.8c-3.55,2.58-7.18-1.28-10.74.13-.44-2.22-1.69-4.3-1.18-7.01,4.28,1.99,8.2,4.25,11.92,6.88Z"/>
      <path class="cls-8" d="M78.68,57.23c2.62-.86,4.9-1.61,7.71-2.54-.96,3.37-1.73,6.1-2.7,9.5-1.85-2.57-3.32-4.62-5.01-6.96Z"/>
      <path class="cls-4" d="M62.8,60.87c-1.41.01-2.82.03-4.22.04,1.97-2.56,4.02-5.01,7.52-5.46.77,2.94.81,5.44-3.3,5.42Z"/>
      <path class="cls-8" d="M119.75,43.66c-.69,2.85-1.21,5.02-1.85,7.7-1.78-1.77-4.01-3.47-3.77-5.42.19-1.57,3.06-1.84,5.62-2.29Z"/>
      <path class="cls-8" d="M8.13,52.6c2.59,4.34,5.19,8.68,7.78,13.03-4.87-2.83-6.19-8.03-9.03-12.21.41-.27.83-.54,1.24-.82Z"/>
      <path class="cls-8" d="M152.03,38.28c-1.5-2.03-2.55-3.45-3.85-5.21,1.95-.68,3.55-1.23,5.3-1.84.47,2.59-.47,4.51-1.45,7.06Z"/>
      <path class="cls-8" d="M7.62,40.57c-1.91,2.28-1.85,5.13-2.21,8.98-1.35-4.24-4.35-7.56,1.06-9.83.39.28.77.57,1.16.85Z"/>
      <path class="cls-7" d="M123.5,43.91c.23-1.83.69-3.57,2.11-4.9,0,0,.4.29.39.29-.9,1.58.12,3.95-2.09,4.98-.14-.12-.28-.25-.41-.37Z"/>
      <path class="cls-3" d="M61.1,21.58c.95-1.71,2.15-1.67,3.49-1.37-.8,1.41-2.01,1.33-3.49,1.37Z"/>
      <path class="cls-7" d="M126.35,37.77c.18-1.32,1-2.21,1.99-2.99.14.13.28.25.43.37-.25,1.29-.51,2.59-1.93,3.16-.16-.18-.32-.37-.49-.54Z"/>
      <path class="cls-3" d="M74,17.94c-.24-.17-.47-.33-.7-.49.26-.13.52-.37.77-.36.24,0,.47.28.71.44-.25.14-.51.27-.78.42Z"/>
      <path class="cls-3" d="M50.6,24.98c.46-.72,1.09-1.06,1.95-.78.11.04.17.25.25.38-.73.14-1.45.27-2.18.41h0Z"/>
      <path class="cls-4" d="M50.61,24.99c-.55.66-1.18,1.04-2.29.4.91-.17,1.6-.29,2.28-.42,0,0,0,.01,0,.01Z"/>
      <path class="cls-4" d="M32.61,30.94c-.51.66-1.14,1.02-1.99.76-.1-.03-.15-.26-.22-.4.75-.1,1.51-.2,2.26-.3l-.05-.06Z"/>
      <path class="cls-8" d="M17.38,67.56c-.31.19-.62.5-.73.44-.37-.2-.84-.48-.95-.83-.13-.43.14-.94.74-.58.36.22.61.62.93.97Z"/>
      <path class="cls-8" d="M6.46,39.72c.65-.7,1.34-1.22,2.29-.48-.38.44-.76.89-1.13,1.33-.39-.28-.77-.57-1.16-.85Z"/>
      <path class="cls-3" d="M71.05,18.54c-.13.08-.25.16-.38.24l-.3-.52c.15-.02.32-.09.45-.05.1.04.15.22.23.33Z"/>
      <path class="cls-3" d="M67.71,19.77c-.13-.05-.27-.09-.4-.14.15-.15.3-.31.47-.42.02-.02.2.19.3.3-.12.09-.24.17-.36.26Z"/>
      <path class="cls-3" d="M58.88,22.6c-.12.05-.24.09-.36.14-.04-.17-.07-.35-.11-.52.13.02.28.01.39.08.07.04.06.2.08.31Z"/>
      <path class="cls-3" d="M55.89,23.59c-.12.04-.24.09-.35.13-.03-.17-.07-.34-.1-.5.13.02.28.01.38.08.06.04.06.19.08.29Z"/>
      <path class="cls-4" d="M45.79,26.75c-.24-.1-.49-.21-.75-.31.13-.07.27-.23.38-.21.27.05.52.19.78.29-.13.07-.26.14-.41.23Z"/>
      <path class="cls-4" d="M43.18,27.5c-.27.08-.53.18-.81.21-.1,0-.22-.17-.33-.26.27-.08.53-.18.8-.21.1-.01.22.17.34.26Z"/>
      <path class="cls-4" d="M39.84,28.16c.14.11.26.2.38.29-.28.1-.55.23-.83.27-.11.02-.24-.17-.36-.26.28-.1.55-.21.82-.3Z"/>
      <path class="cls-4" d="M37.23,29.5c-.31.09-.61.21-.91.24-.11.01-.24-.2-.35-.31.3-.09.59-.21.89-.25.11-.01.24.2.37.32Z"/>
      <path class="cls-4" d="M32.67,31c.33-.28.67-.55,1-.83.13.17.27.35.4.52-.48.08-.97.17-1.45.25,0,0,.05.06.05.06Z"/>
      <path class="cls-1" d="M147.61,37.9c-.82-.27-1.12-.91-1.2-1.69.4.56.8,1.13,1.2,1.69Z"/>
      <path class="cls-8" d="M11.3,38.48c-.28.14-.54.38-.81.38-.24,0-.49-.25-.73-.39.25-.14.5-.39.75-.39.26,0,.52.24.79.39Z"/>
      <path class="cls-8" d="M201.21,49.64c.54-.58,1.08-1.12,1.87-.35-.49.28-.97.56-1.46.84-.14-.16-.28-.32-.41-.49Z"/>
      <path class="cls-1" d="M138.37,64.99c.78.12,1.57.23,2.35.35-.92.78-1.67.45-2.35-.35Z"/>
      <path class="cls-8" d="M201.62,50.13c-.51.69-1.51,1.36-1.89.57-.53-1.11.9-.75,1.47-1.05.13.16.27.33.41.49Z"/>
      <path class="cls-4" d="M67.56,55.26c-.4.08-.81.16-1.21.23.4-.08.81-.15,1.21-.23Z"/>
      <path class="cls-7" d="M125.6,39.01c.25-.41.5-.83.75-1.24.17.18.33.36.49.54-.28.33-.56.66-.84.99l-.4-.29Z"/>
      <path class="cls-7" d="M128.34,34.78c.33-.35.65-.7.98-1.05.15.17.29.34.43.51-.33.3-.65.6-.98.9-.15-.12-.29-.24-.43-.37Z"/>
      <path class="cls-7" d="M159.44,26.92c.26-.41.52-.82.78-1.23.15.16.29.32.44.49-.29.34-.57.68-.86,1.03l-.36-.28Z"/>
      <path class="cls-8" d="M50.42,67.7c.24-.19.59-.58.69-.52.56.32.34.78.07,1.21-.25-.23-.51-.46-.76-.69Z"/>
      <path class="cls-2" d="M128.77,35.15c.33-.3.65-.6.98-.9,1.25-.17,2.71-.87,3.48.71.64,1.31-.32,2.29-1.38,2.75-2.84,1.23-1.99,4.28-3.28,6.26-.9,1.38-1.81,2.9-3.74,2.67-1.38-.17-1.04-1.39-.92-2.35,2.21-1.03,1.19-3.4,2.09-4.98.28-.33.56-.66.84-.99,1.43-.57,1.68-1.87,1.94-3.16Z"/>
      <path class="cls-2" d="M159.8,27.2c.28-.34.57-.68.86-1.03,2.17-.49,3.17.42,2.89,2.58-.21,1.62-.67,4.12-2.26,3.87-3.52-.54-1.43-3.45-1.49-5.43Z"/>
    </g>
  </g>
</svg>