<?xml version="1.0" encoding="UTF-8"?>
<svg id="Layer_2" data-name="Layer 2" xmlns="http://www.w3.org/2000/svg" viewBox="0 0 123.12 197.39">
  <defs>
    <style>
      .cls-1 {
        fill: #e8a0c0;
      }

      .cls-1, .cls-2, .cls-3, .cls-4 {
        stroke-width: 0px;
      }

      .cls-2 {
        fill: #73442a;
      }

      .cls-3 {
        fill: #372a23;
      }

      .cls-4 {
        fill: #8a4395;
      }
    </style>
  </defs>
  <g id="Layer_1-2" data-name="Layer 1">
    <g>
      <path class="cls-3" d="M16.83,93.58c-5.12-.99-9.9-2.6-13.16-7.11-5.15-7.13-4.88-16.53.84-23.01,6.07-6.87,15.69-8.54,23.5-3.7,2.32,1.44,3.64,1.61,5.95-.04,7.02-5,14.39-3.87,21.8-.12,0-1.74.04-3.21,0-4.68-.15-4.2-.12-7.75-6.55-7.08-5.61.58-10.58-2.53-14.11-7.17-1.76-2.31-2.47-4.82.32-7,2.41-1.89,4.6-1.49,6.51.83,1.4,1.7,3.13,3.03,5.12,3.91,6,2.64,8.56,1.25,9.98-5.13,2.88-12.87,10.5-22.83,19.89-31.58,3.34-3.11,8.17-1.79,11.01,2.46,3.15,4.71,2.56,7.36-2.16,10-15.05,8.42-20.1,22.32-20.53,38.45-.14,5.34.71,5.54,5.37,3.32,7.31-3.49,15.64-2.18,21.63,3.74,1.76,1.74,2.87,2.29,5.42,1.22,9.55-4,19.97.18,23.86,9.16,4.11,9.49.06,20.56-9.57,24.66-3.41,1.45-3.66,2.63-2.64,5.92,1.86,6.01-.08,11.52-4.1,16.18-1.4,1.62-1.66,2.46-.39,4.51,6.8,10.97,1.36,23.83-11.28,26.76-2.76.64-3.58.99-2.85,4.24,1.78,8.02-2.81,15.67-10.7,17.84-3.32.91-3.22,1.83-2.29,4.62,2.5,7.46-.21,15.18-6.36,19.39-6.58,4.51-14.66,4.28-20.9-.61-6.39-4.99-8.63-12.93-5.48-20.52.88-2.12,1.01-2.78-1.42-3.84-10.64-4.63-13.66-12.13-9.41-22.88.65-1.65.4-2.12-.94-3.05-8.03-5.52-11.53-12.68-7.5-22.29.55-1.32.22-1.85-.97-2.71-10.51-7.69-12.04-12.52-7.89-24.7ZM59.06,72.64c-.25-1.88.62-3.95-.89-6.01-4.45-6.1-11.95-8.45-19.53-5.87-6.65,2.26-10.97,8.79-10.77,16.27.19,7.3,4.95,13.29,12.11,15.22,11.81,3.19,20.35-3.95,19.1-15.93-.12-1.15-.02-2.32-.02-3.68ZM78.86,57.51c-9.5.05-17.12,7.4-16.7,16.7.37,8.38,6.11,15.65,17.79,16.25,7.09.36,15.19-9.15,15.07-17.22-.12-8.36-7.74-15.79-16.15-15.74ZM105.94,104.55c.93-8.23-9.84-19.35-19.26-12.91-1.45.99-3.43,1.7-5.16,1.69-4.18-.03-3.96,1.73-2.83,4.84,1.2,3.31,1.63,6.98.02,10.24-1.74,3.54-.12,5.8,2.28,7.74,4.55,3.67,9.77,5.31,15.34,2.85,6.11-2.7,9.58-7.53,9.6-14.45ZM56.96,130.15c-.07-7.05-.97-8.31-7.98-15.19-2.02-1.98-3.32-2.62-5.6-.29-2.96,3.03-6.72,4.95-11.1,4.92-2.87-.02-3.59,1.94-4.31,3.99-1.69,4.79.06,11.46,4.38,14.89,4.83,3.84,10.36,5.35,16.26,2.54,5.4-2.57,8.31-6.94,8.35-10.86ZM62.57,85.61c-2.25,3.44-4.25,6.83-7.87,7.92-4.64,1.4-6.17,3.91-6.32,8.79-.23,7.47,2.83,13.1,9.48,14.82,6.42,1.66,14.64-2.4,17.34-8.57,2.9-6.62.72-13.46-5.37-17.1-2.53-1.51-5.3-2.73-7.26-5.86ZM60.8,193.39c9.9.13,16.79-9.94,13.08-19.09-.52-1.27-1.14-2.35-2.51-2.9-5.52-2.21-10.61-7.46-17.11-1.86-1.47,1.27-4.07.61-5.4,2.95-5.06,8.92,1.63,20.77,11.95,20.9ZM44.96,102.97c.22-5.95.21-5.9-5.14-7.25-2.25-.57-4.35-1.5-6.31-2.84-5.9-4.03-12.09-1.86-14.49,4.84-2.09,5.84-.75,10.95,3.53,15.04,4.06,3.88,9.21,4.6,14.37,2.5,5.66-2.3,8.47-6.72,8.05-12.29ZM118.87,77.77c.24-9.89-8.68-17.39-17.72-14.78-2.75.79-5.5,1.72-3.56,5.83,1.2,2.54,1.16,5.42.48,8.29-1.96,8.18-1.58,7.81,4.92,13,3.99,3.19,6.82,2.13,10.08-.28,4.04-2.99,5.75-7.14,5.79-12.07ZM35.5,153.15c0,7.58,5.75,13.31,14.05,14,6.44.53,13.02-4.85,14.01-11.69.52-3.6-.26-6.24-3.97-8.64-4.6-2.97-8.5-4.95-13.59-1.72-.75.48-1.94.29-2.93.34-5.87.26-7.55,1.96-7.56,7.71ZM66.49,144.66c5.12.31,8.95-1.87,11.81-6.01,4.21-6.07,3.48-12.57-1.94-20.19-1.52-2.13-2.81-2.39-4.88-1.14-2.85,1.72-5.83,3.29-9.26,3.21-2.5-.05-3.4.28-2.65,3.25,1.1,4.37,1.38,9.17-1.72,12.86-3.08,3.67-.9,5.1,1.89,6.73,2.1,1.23,4.47,1.09,6.75,1.29ZM18.84,60.58c-6.57-.03-11.58,3.32-13.86,9.27-2.27,5.91-.84,12.56,3.53,16.45,4.31,3.84,10.6,4.57,15.71,2.14,2.45-1.17,2.94-2.31,1.87-4.94-2.2-5.42-2.48-11.08.7-16.25,1.96-3.2.41-4.42-2.14-5.62-1.85-.87-3.81-1.08-5.81-1.05ZM81.33,120.32c2.76,6.44,4.05,12.02,1.2,17.37-2.05,3.84-.08,4.99,2.85,6.09,5.61,2.1,11.15.79,15-3.57,3.59-4.06,4.42-11.81,1.87-16.46-1.06-1.93-2.46-2.6-4.52-1.72-5.31,2.26-10.4,1.46-16.4-1.72ZM86.91,154.77c.11-5.03-5.32-11.61-8.98-10.24-3.69,1.38-7.49,2.72-10.98,4.43-1.91.94.49,4.53-.18,6.92-.36,1.27-.63,2.58-1.09,3.81-1.54,4.07-.53,6.75,3.61,7.65,10.99,2.39,17.96-4.07,17.62-12.57ZM61.05,63.99c1.9-3.02,2.07-5.49,1.65-9.98-1.54-16.62,4.37-30.06,17.57-40.3,1.4-1.09,4.86-1.67,1.61-4.48-1.92-1.66-3.14-4.9-6.65-1.43-14,13.83-18.15,30.74-16.04,49.65.23,2.07.07,4.63,1.86,6.54ZM50.83,45.7c1.76-.21,4.19.35,4.33-1.66.15-2.19-2.24-1.11-3.52-1.31-4.21-.67-7.74-2.61-10.81-5.5-.93-.88-2.1-2.16-3.32-.73-1.19,1.4-.37,2.82.94,3.79,3.75,2.78,7.79,4.92,12.36,5.4ZM86.38,7.11c-1-1.38-1.94-2.98-3.98-3.15-.8-.07-1.28.65-.97,1.29.8,1.65,1.95,3.06,3.96,3.26.82.08,1.08-.54.99-1.4Z"/>
      <path class="cls-4" d="M59.06,72.64c0,1.36-.1,2.53.02,3.68,1.25,11.98-7.29,19.12-19.1,15.93-7.15-1.93-11.92-7.92-12.11-15.22-.2-7.48,4.13-14.01,10.77-16.27,7.58-2.58,15.08-.23,19.53,5.87,1.5,2.06.64,4.13.89,6.01ZM37.74,68.09c-.14-.85-.35-1.89-1.66-1.77-1.72.16-2.58,1.35-2.68,2.95-.07,1.07.63,1.91,1.77,1.92,1.9.01,2.36-1.38,2.58-3.1ZM35.62,76.26c-.11-1.24-.57-2.28-1.97-2.36-1.28-.07-1.62.91-1.66,1.96-.04,1.24.27,2.38,1.8,2.36,1.15-.02,1.67-.87,1.83-1.96Z"/>
      <path class="cls-4" d="M78.86,57.51c8.41-.05,16.03,7.38,16.15,15.74.12,8.06-7.98,17.58-15.07,17.22-11.68-.6-17.41-7.87-17.79-16.25-.41-9.3,7.21-16.65,16.7-16.7ZM81.39,64.74c.93-.42,3.18.45,2.94-1.9-.23-2.2-2.41-2.49-4.19-2.72-1.39-.18-2.92.33-2.96,1.9-.06,2.54,2.09,2.49,4.22,2.71Z"/>
      <path class="cls-4" d="M105.94,104.55c-.02,6.93-3.48,11.76-9.6,14.45-5.57,2.45-10.79.82-15.34-2.85-2.41-1.94-4.03-4.2-2.28-7.74,1.61-3.26,1.18-6.93-.02-10.24-1.13-3.11-1.35-4.87,2.83-4.84,1.73.01,3.71-.7,5.16-1.69,9.42-6.44,20.2,4.68,19.26,12.91Z"/>
      <path class="cls-4" d="M56.96,130.15c-.05,3.92-2.95,8.29-8.35,10.86-5.9,2.81-11.43,1.3-16.26-2.54-4.32-3.43-6.06-10.1-4.38-14.89.72-2.05,1.44-4.01,4.31-3.99,4.37.02,8.14-1.9,11.1-4.92,2.28-2.33,3.58-1.69,5.6.29,7.01,6.88,7.91,8.14,7.98,15.19Z"/>
      <path class="cls-4" d="M62.57,85.61c1.96,3.13,4.73,4.35,7.26,5.86,6.1,3.64,8.27,10.47,5.37,17.1-2.7,6.16-10.91,10.22-17.34,8.57-6.65-1.72-9.72-7.35-9.48-14.82.15-4.87,1.68-7.38,6.32-8.79,3.62-1.09,5.61-4.48,7.87-7.92Z"/>
      <path class="cls-4" d="M60.8,193.39c-10.31-.13-17.01-11.98-11.95-20.9,1.33-2.34,3.93-1.68,5.4-2.95,6.5-5.6,11.59-.35,17.11,1.86,1.37.55,1.99,1.62,2.51,2.9,3.71,9.15-3.17,19.22-13.08,19.09Z"/>
      <path class="cls-4" d="M44.96,102.97c.42,5.56-2.39,9.98-8.05,12.29-5.16,2.1-10.31,1.38-14.37-2.5-4.28-4.09-5.62-9.2-3.53-15.04,2.4-6.7,8.59-8.87,14.49-4.84,1.96,1.34,4.06,2.27,6.31,2.84,5.35,1.35,5.36,1.31,5.14,7.25Z"/>
      <path class="cls-4" d="M118.87,77.77c-.05,4.93-1.75,9.08-5.8,12.07-3.26,2.41-6.09,3.47-10.08.28-6.51-5.2-6.88-4.82-4.92-13,.69-2.87.72-5.76-.48-8.29-1.94-4.11.81-5.04,3.56-5.83,9.04-2.61,17.96,4.89,17.72,14.78Z"/>
      <path class="cls-4" d="M35.5,153.15c0-5.75,1.69-7.45,7.56-7.71.99-.04,2.18.14,2.93-.34,5.09-3.23,8.99-1.25,13.59,1.72,3.71,2.4,4.49,5.03,3.97,8.64-.98,6.84-7.57,12.22-14.01,11.69-8.3-.69-14.06-6.42-14.05-14Z"/>
      <path class="cls-4" d="M66.49,144.66c-2.29-.2-4.65-.06-6.75-1.29-2.79-1.63-4.97-3.06-1.89-6.73,3.1-3.69,2.83-8.49,1.72-12.86-.75-2.97.15-3.3,2.65-3.25,3.43.07,6.41-1.49,9.26-3.21,2.07-1.24,3.36-.99,4.88,1.14,5.42,7.62,6.15,14.12,1.94,20.19-2.87,4.14-6.69,6.32-11.81,6.01Z"/>
      <path class="cls-4" d="M18.84,60.59c2.01-.03,3.96.17,5.81,1.04,2.54,1.2,4.1,2.42,2.14,5.62-3.18,5.17-2.89,10.83-.7,16.25,1.07,2.63.57,3.77-1.87,4.94-5.11,2.44-11.39,1.7-15.71-2.14-4.37-3.89-5.8-10.55-3.53-16.45,2.29-5.96,7.29-9.3,13.86-9.27ZM14.77,67.71c.11-1.32-.55-1.96-1.7-1.95-1.83,0-3.17.94-3.58,2.72-.25,1.11.58,1.86,1.71,1.9,1.89.06,2.98-1.04,3.57-2.66ZM8.26,77.08c1.35-.45,1.66-1.53,1.49-2.75-.12-.88-.65-1.6-1.66-1.37-1.41.32-1.71,1.47-1.53,2.69.12.85.69,1.48,1.7,1.43Z"/>
      <path class="cls-4" d="M81.33,120.32c5.99,3.18,11.08,3.98,16.4,1.72,2.06-.88,3.45-.21,4.52,1.72,2.56,4.65,1.72,12.39-1.87,16.46-3.85,4.36-9.39,5.67-15,3.57-2.94-1.1-4.9-2.25-2.85-6.09,2.86-5.36,1.57-10.94-1.2-17.37Z"/>
      <path class="cls-4" d="M86.91,154.77c.34,8.5-6.63,14.96-17.62,12.57-4.14-.9-5.15-3.58-3.61-7.65.46-1.23.74-2.54,1.09-3.81.67-2.39-1.73-5.99.18-6.92,3.49-1.71,7.28-3.06,10.98-4.43,3.66-1.36,9.09,5.21,8.98,10.24Z"/>
      <path class="cls-2" d="M61.05,63.99c-1.79-1.92-1.63-4.47-1.86-6.54-2.11-18.91,2.04-35.82,16.04-49.65,3.51-3.47,4.73-.23,6.65,1.43,3.25,2.81-.21,3.39-1.61,4.48-13.2,10.25-19.11,23.68-17.57,40.3.42,4.49.25,6.97-1.65,9.98Z"/>
      <path class="cls-2" d="M50.83,45.7c-4.57-.49-8.61-2.62-12.36-5.4-1.32-.98-2.13-2.39-.94-3.79,1.22-1.44,2.38-.16,3.32.73,3.07,2.9,6.59,4.83,10.81,5.5,1.28.2,3.67-.88,3.52,1.31-.14,2-2.58,1.45-4.33,1.66Z"/>
      <path class="cls-2" d="M86.38,7.11c.09.86-.17,1.48-.99,1.4-2.01-.2-3.16-1.61-3.96-3.26-.31-.64.17-1.35.97-1.29,2.04.17,2.98,1.77,3.98,3.15Z"/>
      <path class="cls-1" d="M37.74,68.09c-.21,1.72-.67,3.12-2.58,3.1-1.14,0-1.83-.85-1.77-1.92.1-1.6.96-2.79,2.68-2.95,1.31-.12,1.52.91,1.66,1.77Z"/>
      <path class="cls-1" d="M35.62,76.26c-.16,1.09-.68,1.94-1.83,1.96-1.53.02-1.84-1.12-1.8-2.36.04-1.05.38-2.03,1.66-1.96,1.4.08,1.86,1.12,1.97,2.36Z"/>
      <path class="cls-1" d="M81.39,64.74c-2.13-.21-4.27-.17-4.22-2.71.03-1.58,1.57-2.08,2.96-1.9,1.78.23,3.96.52,4.19,2.72.25,2.35-2,1.48-2.94,1.9Z"/>
      <path class="cls-1" d="M14.77,67.71c-.59,1.62-1.68,2.72-3.57,2.66-1.13-.04-1.96-.79-1.71-1.9.41-1.77,1.75-2.71,3.58-2.72,1.15,0,1.8.64,1.7,1.95Z"/>
      <path class="cls-1" d="M8.26,77.09c-1,.04-1.57-.58-1.7-1.44-.18-1.22.13-2.37,1.53-2.69,1.01-.23,1.54.49,1.66,1.37.17,1.22-.14,2.3-1.5,2.75Z"/>
    </g>
  </g>
</svg>