<?xml version="1.0" encoding="UTF-8"?>
<svg id="Layer_2" data-name="Layer 2" xmlns="http://www.w3.org/2000/svg" viewBox="0 0 169.34 165.39">
  <defs>
    <style>
      .cls-1 {
        fill: #a6bd5f;
      }

      .cls-1, .cls-2, .cls-3, .cls-4, .cls-5 {
        stroke-width: 0px;
      }

      .cls-2 {
        fill: #5a7434;
      }

      .cls-3 {
        fill: #252423;
      }

      .cls-4 {
        fill: #1c1b17;
      }

      .cls-5 {
        fill: #6b873b;
      }
    </style>
  </defs>
  <g id="Layer_1-2" data-name="Layer 1">
    <g>
      <path class="cls-4" d="M97.11,1.02c11.81,1.77,22.81,5.87,33.16,11.71,16.88,9.52,28.25,23.68,34.53,41.91,6.11,17.73,5.85,35.66.44,53.44-5.85,19.21-18.92,31.97-37.06,39.92-6.63,2.9-13.53,5-20.53,6.7-5.61,1.36-10.59,3.83-15.29,7.06-7.05,4.84-11.96,4.92-18.6-.32-6.95-5.49-15.23-7.81-23.33-10.63-12.4-4.32-23.73-10.34-32.52-20.4C7.6,118.62,1.69,104.94.36,89.31c-1.79-20.97,3.11-40.25,15.17-57.49,7.33-10.47,17.65-17.41,29.14-22.74C57.06,3.34,70.04.25,83.69,0h0c4.48.1,8.96.44,13.4,1.02h.02ZM96.26,14.31c-1.89-.63-3.45-.55-4.44,1.58-.74,1.59-2.08,2.48-3.97,2.16-2.03-3.27-4.8-5.17-8.82-4.79-.15.01-.31-.1-.46-.16-2.14-.72-2.47-1.97-.83-3.59,1.6-1.59,3.53-2.64,5.68-3.33.78-.25,2.16.01,2-1.25-.19-1.48-1.6-.8-2.43-.75-5.64.28-11.24,1.02-16.74,2.31-8.42,1.97-16.43,5.13-24.1,9.1-8.7,4.51-16.46,10.3-22.3,18.22-9.8,13.27-14.34,28.5-15.12,44.78-.68,14.33,2.67,27.84,10.38,40.1,4.81,7.65,10.88,14.1,18.56,18.95,6.89,4.76,14.58,7.75,22.48,10.31,7.13,2.31,13.92,5.18,19.84,10.03,4.9,4.01,9.15,3.76,14.38.09,4.66-3.27,9.64-5.82,15.2-7.32,9.58-2.58,19.03-5.51,27.77-10.44,14.5-8.18,23.68-20.4,28.31-36.21,3.33-11.37,3.35-23,1.95-34.62-.84-7-2.66-13.83-6.21-20.06-.29-.76-.53-1.54-.88-2.28-5.54-11.73-13.96-20.97-24.74-28.06-5.41-3.56-11.12-6.6-17.32-8.61-1.27-.48-2.33-1.48-3.78-1.51-5.08-1.88-10.35-3.07-15.63-4.2-.61-.13-1.41-.4-1.55.59-.12.82.52,1.07,1.19,1.3,2.2.76,4.15,1.96,5.9,3.48.78.68,1.85,1.37,1.33,2.63-.51,1.25-1.5,1.86-2.94,1.66-.89-.12-1.8-.08-2.7-.11ZM95.15,10.38c-1.35-1.25-2.25-1.41-3.49-.39-1.33,1.08-3.13,1.15-4.24-.19-1.72-2.06-2.79-.65-4.12.27,2.04.45,3.84,1.09,5.02,2.88.37.56.88.43,1.18-.07,1.24-2.01,3.35-2.12,5.65-2.51Z"/>
      <path class="cls-5" d="M114.44,10.47c6.2,2.01,11.92,5.05,17.32,8.61,10.77,7.09,19.2,16.33,24.74,28.06.35.73.59,1.52.88,2.28-.51.41-.55.97-.55,1.56-.03,10.96-2.02,21.62-4.98,32.12-.37,1.32-.24,3.01-1.87,3.76-.55-.71-1.26-1.34-2-.45-1.21,1.45-2.04,3.15-2.2,5.07-.04.43.16,1,.68,1.21.52.21.95-.02,1.28-.44.36-.45.7-.9,1.05-1.35.18.84.03,1.57-.46,2.31-3.88,5.82-7.1,12.07-11.81,17.34-.88.98-2.11,1.86-2.37,3.34-2.22,1.42-5.25,2.04-5.4,5.49-1.55,1.22-3.59,1.88-4.44,3.89-.27.21-.54.42-.82.63-1-.26-1.72.31-2.47.81-7.32,4.89-15.17,8.64-23.58,11.3-10.02,3.17-20.24,5.25-30.75,5.5-9.12.22-18.04-1.32-26.87-3.54-2-.5-4.06-1.53-6.18-.31-7.68-4.85-13.75-11.3-18.56-18.95-7.7-12.26-11.06-25.77-10.38-40.1.78-16.28,5.32-31.51,15.12-44.78,5.85-7.92,13.6-13.71,22.3-18.22,7.67-3.98,15.68-7.14,24.1-9.1,5.49-1.28,11.1-2.02,16.74-2.31.83-.04,2.24-.73,2.43.75.16,1.27-1.22,1-2,1.25-2.15.69-4.08,1.74-5.68,3.33-1.63,1.62-1.31,2.87.83,3.59.16.05.31.17.46.16,4.02-.38,6.79,1.52,8.82,4.79-.13,2.27,1.29,2.84,2.99,2.18,1.74-.67,3-.83,4.71.33,1.49,1.01,3.36.05,4.18-1.46.88-1.61-.49-2.34-1.88-2.64-1.24-.26-1.48-1.14-1.61-2.16.9.03,1.81-.01,2.7.11,1.44.2,2.43-.42,2.94-1.66.52-1.27-.55-1.96-1.33-2.63-1.75-1.51-3.7-2.72-5.9-3.48-.67-.23-1.31-.48-1.19-1.3.14-1,.95-.72,1.55-.59,5.28,1.13,10.55,2.32,15.63,4.2-1.02.15-1.66.69-1.58,1.78.06.91.87,1.06,1.54,1.34,1.82.75,2.9-.22,3.82-1.6ZM35.13,40.13c.47-.32,1.04-.57,1.4-.98,3.81-4.33,8.12-8.01,13.25-10.7.74-.39,1.02-1.24,1.16-2.08.56-3.43-2.12-5.41-5.95-4.22-5.41,1.69-9.62,5.09-12.93,9.63-.93,1.28-1.51,2.71-1.24,4.36-2.69-.4-3.1,1.9-4.11,3.48-.39.61-.42,1.26.29,1.71.69.44,1.25.16,1.74-.36,1.07-1.14,2.06-2.34,2.53-3.87.53,1.13,1.51,1.82,2.45,2.54-.62,1.41-2.54,1.78-2.77,3.56-.09.65-.05,1.1.43,1.5.41.34.87.4,1.37.21,1.25-.48,2.69-3.35,2.38-4.77ZM24.47,56.87c3.1.04,6.58-3.88,6.7-7.54.08-2.65-2.46-5.36-5.03-5.36-3.1,0-6.51,4.14-6.61,8.02-.08,2.9,1.89,4.84,4.95,4.88ZM60.41,22.31c-.06-1.37-.68-2.35-2.05-2.28-1.71.08-2.97.96-3.02,2.87-.04,1.44.68,2.43,2.18,2.39,1.85-.05,2.73-1.23,2.9-2.98ZM129.07,110.8c-.12-.79-.42-1.51-1.48-1.48-.83.03-3.64,3.17-3.62,4.02.02.92.59,1.29,1.42,1.32,1.39.05,3.68-2.32,3.68-3.87ZM138.1,103.81c.09-.96-.03-1.86-1.16-2.08-1.02-.2-3.06,2.21-3.17,3.65-.06.84.27,1.43,1.13,1.61,1.17.23,3.01-1.6,3.2-3.17ZM29.81,118.6c-.84.23-1.14.87-.95,1.67.34,1.43.99,2.74,1.92,3.9.44.55,1.01.88,1.7.48.78-.46.82-1.17.43-1.9-.61-1.14-1.26-2.27-1.92-3.39-.25-.43-.56-.81-1.18-.76ZM37.49,113.03c-.73-1.29-1.49-2.82-3.1-3.38-.94-.32-1.43.61-1.48,1.51-.08,1.47,1.69,3.35,3.07,3.32.85-.02,1.4-.38,1.51-1.45ZM32.65,54.83c-1.55-.06-2.18,1.04-2.35,2.43-.14,1.16.62,1.92,1.72,1.95,1.59.04,2.32-1.13,2.48-2.51.13-1.09-.46-1.87-1.84-1.88ZM42.94,36.21c-1.22.33-2.24,1-2.25,2.44-.01,1,.66,1.77,1.69,1.73,1.52-.06,2.44-1.03,2.45-2.53.01-1.03-.81-1.52-1.89-1.64ZM36.51,118.49c-.62.05-.97.38-1.17.86-.42,1.02,1.19,4.07,2.25,4.3.45.09.8-.07,1.08-.4.74-.89.16-1.72-.2-2.5-.43-.94-.81-1.99-1.96-2.25ZM45.2,122.99c1.02,0,2.12-.13,2.17-1.37.05-1.28-1.08-1.72-2.14-1.88-.96-.14-1.84.23-2,1.3-.21,1.43.9,1.7,1.97,1.95ZM20.1,66.13c1.11-.12,1.89-.69,2-1.77.1-.93-.32-1.85-1.38-1.94-1.24-.11-1.96.71-2.11,1.86-.13,1.03.53,1.61,1.48,1.85ZM143.97,40.51c-.02-.97-.36-1.66-1.39-1.71-.86-.05-1.42.39-1.47,1.28-.06,1.05.43,1.8,1.51,1.84.87.03,1.27-.61,1.35-1.41ZM60.12,9.06c-.62.06-1.29.46-1.25,1.45.04.99.82,1.05,1.57,1.05.85,0,1.39-.38,1.36-1.29-.03-.89-.5-1.31-1.69-1.22Z"/>
      <path class="cls-2" d="M33.65,137.64c2.12-1.22,4.19-.2,6.18.31,8.83,2.22,17.75,3.76,26.87,3.54,10.52-.25,20.73-2.33,30.75-5.5,8.4-2.65,16.26-6.4,23.58-11.3.75-.5,1.47-1.07,2.47-.81-.02.24-.04.48-.06.73-.1,1.23.38,2.09,1.63,2.31.78.14,1.53-.14,1.68-1.01.24-1.34-.46-2.15-1.71-2.53-.23-.07-.48-.08-.72-.12.85-2.02,2.9-2.67,4.44-3.89,2.8,1.18,4.03-1.4,5.8-2.53,1.62-1.03,1.47-2.21-.4-2.96.26-1.48,1.49-2.36,2.37-3.34,4.71-5.27,7.93-11.53,11.81-17.34.5-.74.64-1.47.46-2.31.39-1.34.79-2.69,1.18-4.04,1.63-.74,1.49-2.43,1.87-3.76,2.96-10.5,4.95-21.16,4.98-32.12,0-.59.04-1.15.55-1.56,3.54,6.23,5.36,13.06,6.21,20.06,1.4,11.62,1.38,23.25-1.95,34.62-4.63,15.81-13.82,28.03-28.31,36.21-8.74,4.93-18.19,7.85-27.77,10.44-5.56,1.5-10.54,4.05-15.2,7.32-5.23,3.67-9.48,3.93-14.38-.09-5.92-4.85-12.71-7.72-19.84-10.03-7.9-2.56-15.6-5.55-22.48-10.31ZM137.61,120.68c-.09-.76-.6-1.5-1.39-1.18-1.73.7-3.34,1.73-4.37,3.33-.44.69,0,1.45.82,1.73,1.04.36,4.92-2.65,4.94-3.88ZM153.04,89.41c-1.64.75-1.81,2.46-2.26,3.96-.23.77.3,1.45,1,1.3,1.87-.4,1.86-2.25,2.4-3.61.34-.85-.18-1.38-1.15-1.65ZM87.33,152.81c-.03-.62-.33-1.17-1.1-1.29-.83-.12-1.19.44-1.31,1.14-.14.87.27,1.48,1.15,1.53.78.05,1.11-.56,1.25-1.38Z"/>
      <path class="cls-2" d="M96.26,14.31c.13,1.02.37,1.9,1.61,2.16,1.39.29,2.76,1.03,1.88,2.64-.83,1.51-2.69,2.47-4.18,1.46-1.71-1.16-2.97-1-4.71-.33-1.7.66-3.12.08-2.99-2.18,1.89.32,3.23-.57,3.97-2.16.99-2.14,2.55-2.21,4.44-1.58Z"/>
      <path class="cls-2" d="M95.15,10.38c-2.3.39-4.41.5-5.65,2.51-.31.5-.82.63-1.18.07-1.18-1.79-2.98-2.44-5.02-2.88,1.33-.93,2.4-2.34,4.12-.27,1.11,1.34,2.91,1.27,4.24.19,1.24-1.01,2.14-.86,3.49.39Z"/>
      <path class="cls-1" d="M114.44,10.47c-.92,1.38-2,2.36-3.82,1.6-.67-.28-1.48-.43-1.54-1.34-.08-1.09.56-1.62,1.58-1.78,1.45.03,2.51,1.03,3.78,1.51Z"/>
      <path class="cls-1" d="M33.73,39.63c-.94-.72-1.92-1.41-2.45-2.54-.15-.32-.3-.64-.45-.95-.27-1.65.31-3.09,1.24-4.36,3.31-4.53,7.51-7.94,12.93-9.63,3.83-1.19,6.51.79,5.95,4.22-.14.84-.42,1.69-1.16,2.08-5.13,2.69-9.44,6.38-13.25,10.7-.37.42-.93.66-1.4.98-.47-.17-.93-.33-1.4-.5Z"/>
      <path class="cls-1" d="M24.47,56.87c-3.06-.04-5.02-1.98-4.95-4.88.1-3.88,3.52-8.02,6.61-8.02,2.57,0,5.11,2.71,5.03,5.36-.11,3.66-3.59,7.58-6.7,7.54Z"/>
      <path class="cls-4" d="M134.17,113.88c1.88.75,2.02,1.93.4,2.96-1.78,1.13-3,3.71-5.8,2.53.15-3.45,3.19-4.07,5.4-5.49Z"/>
      <path class="cls-1" d="M60.41,22.31c-.17,1.74-1.05,2.93-2.9,2.98-1.5.04-2.21-.95-2.18-2.39.05-1.92,1.31-2.79,3.02-2.87,1.37-.06,1.99.91,2.05,2.28Z"/>
      <path class="cls-4" d="M129.07,110.8c0,1.55-2.29,3.92-3.68,3.87-.84-.03-1.4-.4-1.42-1.32-.02-.85,2.79-3.99,3.62-4.02,1.06-.03,1.36.69,1.48,1.48Z"/>
      <path class="cls-4" d="M149.99,86.85c-.39,1.35-.79,2.69-1.18,4.04-.35.45-.7.9-1.05,1.35-.33.42-.76.65-1.28.44-.52-.21-.72-.78-.68-1.21.16-1.92.99-3.62,2.2-5.07.74-.88,1.45-.25,2,.45Z"/>
      <path class="cls-3" d="M138.1,103.81c-.19,1.57-2.03,3.4-3.2,3.17-.86-.17-1.2-.77-1.13-1.61.11-1.43,2.15-3.84,3.17-3.65,1.13.22,1.25,1.12,1.16,2.08Z"/>
      <path class="cls-4" d="M29.81,118.6c.62-.05.93.33,1.18.76.65,1.12,1.31,2.25,1.92,3.39.39.73.35,1.44-.43,1.9-.69.4-1.25.07-1.7-.48-.93-1.15-1.57-2.47-1.92-3.9-.19-.8.11-1.44.95-1.67Z"/>
      <path class="cls-4" d="M33.73,39.63c.47.17.94.33,1.4.5.31,1.42-1.13,4.29-2.38,4.77-.5.19-.96.13-1.37-.21-.48-.4-.52-.85-.43-1.5.24-1.78,2.15-2.15,2.77-3.56Z"/>
      <path class="cls-4" d="M37.49,113.03c-.11,1.07-.67,1.43-1.51,1.45-1.38.03-3.15-1.84-3.07-3.32.05-.91.54-1.83,1.48-1.51,1.61.55,2.37,2.08,3.1,3.38Z"/>
      <path class="cls-4" d="M30.83,36.14c.15.32.3.64.45.95-.47,1.54-1.45,2.73-2.53,3.87-.49.52-1.06.8-1.74.36-.71-.45-.68-1.1-.29-1.71,1.01-1.58,1.43-3.88,4.11-3.48Z"/>
      <path class="cls-1" d="M32.65,54.83c1.38,0,1.97.78,1.84,1.88-.16,1.38-.89,2.55-2.48,2.51-1.09-.03-1.85-.79-1.72-1.95.17-1.4.8-2.49,2.35-2.43Z"/>
      <path class="cls-1" d="M42.94,36.21c1.08.11,1.91.6,1.89,1.64-.02,1.5-.93,2.47-2.45,2.53-1.04.04-1.71-.73-1.69-1.73.02-1.44,1.03-2.11,2.25-2.44Z"/>
      <path class="cls-4" d="M36.51,118.49c1.15.26,1.53,1.31,1.96,2.25.36.78.94,1.61.2,2.5-.28.33-.63.49-1.08.4-1.06-.22-2.68-3.28-2.25-4.3.2-.48.55-.8,1.17-.86Z"/>
      <path class="cls-4" d="M45.2,122.99c-1.07-.26-2.18-.53-1.97-1.95.16-1.07,1.04-1.44,2-1.3,1.07.16,2.2.6,2.14,1.88-.05,1.24-1.15,1.37-2.17,1.37Z"/>
      <path class="cls-1" d="M20.1,66.13c-.96-.24-1.62-.82-1.48-1.85.15-1.15.87-1.98,2.11-1.86,1.06.09,1.47,1.01,1.38,1.94-.11,1.08-.9,1.65-2,1.77Z"/>
      <path class="cls-4" d="M124.32,123.26c.24.04.49.05.72.12,1.25.38,1.95,1.19,1.71,2.53-.16.87-.9,1.15-1.68,1.01-1.25-.22-1.74-1.08-1.63-2.31.02-.24.04-.49.06-.73.27-.21.55-.42.82-.63Z"/>
      <path class="cls-4" d="M143.97,40.51c-.08.8-.48,1.44-1.35,1.41-1.08-.04-1.57-.79-1.51-1.84.05-.89.61-1.33,1.47-1.28,1.03.05,1.37.75,1.39,1.71Z"/>
      <path class="cls-1" d="M60.12,9.06c1.18-.09,1.66.33,1.69,1.22.03.92-.51,1.29-1.36,1.29-.75,0-1.54-.07-1.57-1.05-.04-1,.63-1.39,1.25-1.45Z"/>
      <path class="cls-4" d="M137.61,120.68c-.02,1.23-3.91,4.24-4.94,3.88-.82-.29-1.26-1.05-.82-1.73,1.03-1.6,2.64-2.63,4.37-3.33.79-.32,1.3.42,1.39,1.18Z"/>
      <path class="cls-4" d="M153.04,89.41c.96.27,1.49.8,1.15,1.65-.55,1.37-.54,3.22-2.4,3.61-.7.15-1.24-.53-1-1.3.45-1.5.63-3.21,2.26-3.96Z"/>
      <path class="cls-4" d="M87.33,152.81c-.14.83-.47,1.43-1.25,1.38-.88-.05-1.29-.66-1.15-1.53.11-.7.48-1.26,1.31-1.14.76.11,1.06.67,1.1,1.29Z"/>
    </g>
  </g>
</svg>