<?xml version="1.0" encoding="UTF-8"?>
<svg id="Layer_2" data-name="Layer 2" xmlns="http://www.w3.org/2000/svg" viewBox="0 0 142.85 232.3">
  <defs>
    <style>
      .cls-1 {
        fill: #c3e2ec;
      }

      .cls-1, .cls-2, .cls-3 {
        stroke-width: 0px;
      }

      .cls-2 {
        fill: #000;
      }

      .cls-3 {
        fill: #fff;
      }
    </style>
  </defs>
  <g id="Layer_1-2" data-name="Layer 1">
    <g>
      <path class="cls-2" d="M69.48.06c12.03,0,24.07-.04,36.1.04,2.32.02,4.66.41,6.94.86,2.79.55,3.82,1.93,3.87,4.8.08,3.91,0,7.83.21,11.74.06,1.17.59,2.49,1.31,3.44,6.54,8.53,13.14,17,19.78,25.45,1.54,1.97,2.23,4.04,2.26,6.59.28,19.92.68,39.84,1.06,59.76.59,31.02,1.17,62.04,1.84,93.05.06,2.62-.78,4.18-3.1,5.45-12.23,6.71-24.4,13.53-36.54,20.39-1.95,1.1-3.88.56-5.8.46-8.63-.47-17.25-1.08-25.88-1.61-13.17-.81-26.35-1.6-39.52-2.41-7.46-.46-14.92-.93-22.38-1.41-4.97-.32-6-1.35-6.12-6.32-.28-11.1-.53-22.2-.79-33.29-.54-23.24-1.11-46.49-1.62-69.73C.67,98.89.3,80.5,0,62.1c-.02-1.43.39-3.06,1.13-4.27,7.33-12.01,14.71-23.99,22.25-35.86,1.55-2.43,2.14-4.71,1.65-7.53-.43-2.46-.53-5.01-.45-7.5.13-4.18,1.7-6.16,5.65-6.28,6.42-.19,12.84-.49,19.26-.59,6.66-.1,13.32-.02,19.98-.02,0,0,0,.02,0,.03ZM99.86,229.08c-.35-19.58-.7-38.9-1.06-58.47-31.28-.35-62.37-2.29-93.55-5.01,0,.78-.01,1.41,0,2.04.3,11.8.61,23.6.9,35.4.15,5.84.27,11.68.44,17.52.07,2.3.49,2.77,2.76,2.92,12.47.81,24.95,1.59,37.42,2.38,12.36.78,24.72,1.56,37.08,2.32,5.24.32,10.48.59,16,.9ZM97.68,113.16c-31.31-1.43-62.43-2.84-93.64-4.27.39,17.8.79,35.78,1.19,53.94,31.13,2.47,62.2,4.56,93.47,4.86-.34-18.35-.68-36.44-1.02-54.53ZM97.6,110.21c.05-1.03.09-1.43.08-1.83-.22-13.79-.45-27.58-.64-41.37-.02-1.1-.42-1.38-1.44-1.4-3.85-.11-7.71-.27-11.56-.45-14.42-.65-28.83-1.33-43.25-1.97-11.67-.52-23.35-1-35.02-1.5-.91-.04-1.83-.14-2.97-.23.37,14.82.74,29.45,1.12,44.55,31.22,1.4,62.36,2.79,93.68,4.2ZM112.97,21.54c-.52-.05-.85-.1-1.18-.11-15.66-.22-31.31-.44-46.97-.66-11.57-.16-23.13-.3-34.7-.48-1.21-.02-2.23-.27-3.09,1.14-7.19,11.76-14.48,23.45-21.73,35.16-.35.56-.62,1.16-1.11,2.09,1.93,0,3.45-.06,4.96,0,13.59.64,27.19,1.31,40.78,1.94,15.23.71,30.46,1.37,45.69,2.1,1.18.06,1.73-.21,2.17-1.38,4.08-10.81,8.24-21.58,12.37-32.37.93-2.43,1.84-4.88,2.81-7.44ZM138.93,154.91c-.77.26-1.21.38-1.62.55-11.29,4.74-22.57,9.53-33.9,14.2-1.34.55-1.69,1.22-1.66,2.58.39,17.93.73,35.86,1.08,53.79.01.62.1,1.24.17,2.12.83-.43,1.45-.73,2.05-1.07,11.16-6.23,22.31-12.48,33.5-18.66,1.08-.6,1.27-1.29,1.24-2.38-.31-13.43-.6-26.87-.86-40.3-.07-3.54-.01-7.09-.01-10.85ZM138.03,98.5c-3.29,1.34-5.96,2.51-8.69,3.51-8.92,3.28-17.86,6.52-26.82,9.69-1.34.47-1.71,1.09-1.68,2.5.33,16.99.59,33.99.87,50.98,0,.56.08,1.12.13,1.83.5-.15.83-.21,1.14-.34,11.46-4.79,22.92-9.59,34.4-14.35,1.25-.52,1.36-1.33,1.34-2.47-.25-12.2-.48-24.41-.66-36.61-.07-4.78-.01-9.57-.01-14.75ZM100.8,109.13c1.48-.54,2.73-.98,3.97-1.44,10.33-3.83,20.65-7.68,31-11.46,1.46-.53,2.01-1.23,1.97-2.89-.3-13.54-.48-27.09-.7-40.63,0-.33-.06-.67-.11-1.07-.31.04-.55.03-.75.1-11.69,4.36-23.38,8.74-35.08,13.07-1.09.4-1.14,1.1-1.12,2.03.25,13.49.49,26.97.73,40.46,0,.52.05,1.04.09,1.83ZM113.45,18.41c0-4.31,0-8.45,0-12.58,0-1.6-1.05-2.1-2.39-2.23-2.67-.26-5.35-.68-8.03-.67-24.07.16-48.15.39-72.22.63-2.56.03-3.24.67-3.23,3.29,0,2.86.33,5.71.45,8.57.05,1.22.53,1.72,1.81,1.73,4.38.03,8.76.17,13.15.24,23.02.37,46.05.73,69.07,1.08.4,0,.8-.04,1.38-.07ZM134.18,49.32c-8.79-2.73-17.13-5.32-25.59-7.94-2.55,6.75-5.04,13.32-7.68,20.3,11.18-4.15,21.98-8.16,33.27-12.36ZM132.8,45.82c.09-.13.17-.25.26-.38-5.72-7.36-11.44-14.72-17.39-22.36-2.06,5.42-3.97,10.45-5.94,15.63,7.79,2.4,15.43,4.76,23.07,7.11Z"/>
      <path class="cls-3" d="M99.86,229.08c-5.52-.31-10.76-.58-16-.9-12.36-.76-24.72-1.54-37.08-2.32-12.47-.79-24.95-1.56-37.42-2.38-2.28-.15-2.7-.61-2.76-2.92-.17-5.84-.29-11.68-.44-17.52-.3-11.8-.61-23.6-.9-35.4-.02-.63,0-1.26,0-2.04,31.18,2.73,62.26,4.66,93.55,5.01.35,19.56.7,38.88,1.06,58.47ZM86.17,209.31c.15-.19.29-.37.44-.56-.48-.22-.96-.63-1.43-.61-.56.03-1.28.28-1.62.69-2.01,2.43-3.93,4.93-5.86,7.42-.56.73-1.03,1.56-.07,2.29.98.74,1.6,0,2.17-.71,1.91-2.43,3.83-4.86,5.73-7.3.28-.36.43-.81.64-1.22ZM92.2,213.2c.13-.17.27-.33.4-.5-.46-.23-.92-.63-1.39-.64-.49,0-1.17.22-1.46.59-1.57,1.93-3.11,3.9-4.51,5.96-.31.46-.02,1.33,0,2.01.65-.12,1.58,0,1.91-.4,1.63-1.96,3.11-4.04,4.62-6.1.2-.27.29-.61.43-.92ZM17.88,203.42c-1.27.07-1.71,1.1-1.05,2.11,1.02,1.55,2.07,3.1,3.29,4.49.39.44,1.36.36,2.06.51,0-.68.23-1.51-.07-2-.96-1.52-2.1-2.92-3.22-4.33-.3-.38-.78-.61-1.01-.78ZM17.22,215.78c1.01.01,1.55-.88.92-1.83-1.11-1.69-2.31-3.33-3.62-4.86-.65-.76-1.62-.76-2.09.34-.46,1.08,3.56,6.34,4.79,6.35Z"/>
      <path class="cls-1" d="M97.68,113.16c.34,18.08.68,36.18,1.02,54.53-31.26-.3-62.33-2.38-93.47-4.86-.4-18.15-.8-36.13-1.19-53.94,31.21,1.42,62.33,2.84,93.64,4.27ZM23.52,131.43c-.51-.85-.99-1.62-1.46-2.4-.72-1.2-1.28-2.55-2.22-3.54-.62-.66-1.85-1.21-2.69-1.07-.71.11-1.64,1.21-1.79,2-1.29,6.52-2.43,13.07-3.58,19.61-.26,1.49.41,2.52,1.95,2.79,1.56.27,2.25-.72,2.53-2.04.34-1.6.58-3.21.87-4.82.55-2.97,1.11-5.93,1.75-9.32.8,1.32,1.37,2.26,1.93,3.2,1.67,2.8,3.38,2.9,5.31.29.71-.95,1.38-1.93,2.29-3.22.16.75.24,1.07.29,1.39.7,4.5,1.37,9,2.09,13.49.23,1.42,1,2.4,2.59,2.28,1.3-.1,2.15-1.4,1.96-3-.17-1.39-.44-2.76-.66-4.15-.82-5.24-1.64-10.48-2.45-15.73-.22-1.41-.7-2.64-2.27-2.97-1.48-.31-2.23.7-2.91,1.77-1.14,1.76-2.27,3.52-3.52,5.45ZM76.11,137.68c2.9-2.61,5.67-5.11,8.44-7.61.92-.83,1.08-1.81.34-2.8-.75-1.01-1.79-1.33-2.94-.78-.62.29-1.15.79-1.67,1.25-2.43,2.17-4.84,4.35-7.41,6.67-.1-.56-.2-.89-.22-1.23-.08-2.16-.09-4.32-.23-6.48-.09-1.36-.8-2.34-2.32-2.32-1.5.01-2.19.92-2.28,2.34-.04.52-.03,1.05-.03,1.58.01,5.96.02,11.91.04,17.87,0,.93-.04,1.88.13,2.79.23,1.24,1.17,2.1,2.36,1.8.83-.21,1.62-1.1,2.13-1.89.33-.5.12-1.36.12-2.06,0-1.77,0-3.53,0-5.77,1.01.95,1.59,1.51,2.18,2.06,2.5,2.36,4.98,4.76,7.52,7.08,1.06.97,2.28.94,3.27-.13.97-1.04.94-2.22.04-3.33-.29-.36-.64-.68-.98-1-2.79-2.65-5.58-5.29-8.5-8.05ZM54.3,146.07c0-1.36,0-2.34,0-3.32.01-5.02.05-10.05.04-15.07,0-1.69-.94-2.77-2.32-2.69-1.62.09-2.17,1.2-2.18,2.64-.05,6.66-.12,13.32-.11,19.98,0,2.06.77,2.81,2.9,2.93,2.86.16,5.72.23,8.58.27,1.87.03,2.87-.82,2.93-2.28.06-1.54-.98-2.43-2.93-2.45-2.21-.03-4.42,0-6.9,0ZM39.51,137.29h.06c0,3.38-.03,6.77.01,10.15.02,1.88,1.03,2.99,2.51,2.95,1.38-.04,2.35-1.17,2.33-2.95-.07-6.65-.17-13.29-.3-19.94-.03-1.71-.94-2.66-2.36-2.68-1.45-.02-2.22.87-2.24,2.68-.02,3.27,0,6.53,0,9.8Z"/>
      <path class="cls-3" d="M97.6,110.21c-31.32-1.4-62.47-2.8-93.68-4.2-.38-15.11-.75-29.73-1.12-44.55,1.14.09,2.06.19,2.97.23,11.67.5,23.35.98,35.02,1.5,14.42.64,28.83,1.32,43.25,1.97,3.85.17,7.7.34,11.56.45,1.02.03,1.43.3,1.44,1.4.19,13.79.42,27.58.64,41.37,0,.4-.04.8-.08,1.83ZM16.5,76.88c.2-.06.51-.06.62-.2,1.52-1.96,3.03-3.92,4.45-5.95.14-.2-.24-1.04-.58-1.22-.36-.19-1.17-.13-1.4.14-1.45,1.73-2.89,3.48-4.14,5.35-.57.85-.14,1.68,1.05,1.88ZM11.06,74.51c.22-.06.54-.04.66-.19,1.48-1.86,2.97-3.71,4.34-5.65.17-.24-.22-1.2-.59-1.4-.37-.2-1.25-.05-1.52.27-1.35,1.6-2.64,3.27-3.81,5-.62.92-.15,1.64.93,1.96Z"/>
      <path class="cls-1" d="M112.97,21.54c-.97,2.57-1.88,5.01-2.81,7.44-4.13,10.79-8.29,21.57-12.37,32.37-.44,1.16-1,1.43-2.17,1.38-15.23-.73-30.46-1.39-45.69-2.1-13.59-.63-27.19-1.31-40.78-1.94-1.51-.07-3.03,0-4.96,0,.49-.92.76-1.53,1.11-2.09,7.25-11.72,14.54-23.41,21.73-35.16.86-1.41,1.89-1.16,3.09-1.14,11.57.18,23.13.32,34.7.48,15.66.22,31.31.44,46.97.66.33,0,.66.06,1.18.11ZM58.98,23.08c-4.33,0-8.48,1.28-11.84,3.67-4.58,3.27-5.89,6.88-4.4,12.29.65,2.36,1.58,4.66,1.99,7.06.55,3.13,2.44,4.99,5.23,5.69,2.84.71,5.87,1.26,8.76,1.1,4.95-.29,9.43-2.12,12.8-6.01,2.04-2.35,3-4.9,1.75-8.05-.9-2.27-1.44-4.68-2.21-7-2.06-6.2-5.59-8.74-12.09-8.75Z"/>
      <path class="cls-3" d="M138.93,154.91c0,3.76-.06,7.31.01,10.85.26,13.43.55,26.87.86,40.3.02,1.08-.16,1.78-1.24,2.38-11.19,6.18-22.34,12.43-33.5,18.66-.6.33-1.21.63-2.05,1.07-.07-.88-.16-1.5-.17-2.12-.36-17.93-.69-35.86-1.08-53.79-.03-1.36.32-2.03,1.66-2.58,11.32-4.68,22.6-9.46,33.9-14.2.41-.17.85-.29,1.62-.55ZM125.46,204.16c.34.46.6,1.13,1.07,1.35.35.17,1.28-.1,1.43-.42,1.01-2.21,1.93-4.47,2.75-6.75.13-.36-.32-1.19-.7-1.38-.37-.18-1.34.02-1.49.33-1.07,2.18-1.99,4.44-3.05,6.87ZM133.85,198.75c-.17.06-.53.08-.58.21-.74,1.9-1.48,3.81-2.1,5.75-.06.19.69.9,1.05.89.46-.01,1.13-.41,1.32-.81.63-1.36,1.13-2.8,1.61-4.23.35-1.06-.13-1.67-1.29-1.8Z"/>
      <path class="cls-1" d="M138.03,98.5c0,5.18-.06,9.97.01,14.75.18,12.2.41,24.41.66,36.61.02,1.14-.09,1.96-1.34,2.47-11.48,4.75-22.93,9.56-34.4,14.35-.3.13-.63.19-1.14.34-.05-.71-.12-1.27-.13-1.83-.28-16.99-.53-33.99-.87-50.98-.03-1.41.35-2.03,1.68-2.5,8.96-3.18,17.9-6.42,26.82-9.69,2.73-1,5.39-2.17,8.69-3.51Z"/>
      <path class="cls-3" d="M100.8,109.13c-.04-.79-.08-1.31-.09-1.83-.24-13.49-.47-26.97-.73-40.46-.02-.94.03-1.63,1.12-2.03,11.7-4.33,23.39-8.71,35.08-13.07.2-.08.44-.06.75-.1.04.4.1.73.11,1.07.22,13.54.4,27.09.7,40.63.04,1.66-.51,2.35-1.97,2.89-10.35,3.78-20.67,7.63-31,11.46-1.24.46-2.49.91-3.97,1.44ZM115.74,71.13c-.45-.48-.76-1.12-1.19-1.2-.43-.09-1.23.23-1.42.6-.95,1.86-1.82,3.78-2.56,5.73-.16.42.23,1.28.63,1.58.28.22,1.34.01,1.5-.29,1.07-2.05,2-4.19,3.04-6.43ZM110.83,69.8c-.36-.49-.57-1.08-.96-1.23-.38-.15-1.22-.03-1.37.24-1.09,1.97-2.12,3.98-3.02,6.05-.14.33.3,1.12.69,1.39.28.2,1.19.04,1.35-.24,1.16-2,2.19-4.07,3.32-6.21Z"/>
      <path class="cls-3" d="M113.45,18.41c-.58.03-.98.08-1.38.07-23.02-.36-46.05-.72-69.07-1.08-4.38-.07-8.76-.22-13.15-.24-1.28,0-1.76-.51-1.81-1.73-.13-2.86-.44-5.71-.45-8.57,0-2.62.66-3.27,3.23-3.29,24.07-.24,48.15-.47,72.22-.63,2.67-.02,5.35.41,8.03.67,1.33.13,2.39.63,2.39,2.23,0,4.14,0,8.28,0,12.58Z"/>
      <path class="cls-3" d="M134.18,49.32c-11.3,4.2-22.09,8.2-33.27,12.36,2.64-6.98,5.13-13.55,7.68-20.3,8.47,2.63,16.8,5.22,25.59,7.94Z"/>
      <path class="cls-1" d="M132.8,45.82c-7.64-2.35-15.28-4.71-23.07-7.11,1.97-5.18,3.88-10.21,5.94-15.63,5.95,7.65,11.67,15.01,17.39,22.36-.09.13-.17.25-.26.38Z"/>
      <path class="cls-2" d="M86.17,209.31c-.21.41-.37.86-.64,1.22-1.89,2.45-3.81,4.87-5.73,7.3-.57.72-1.19,1.45-2.17.71-.96-.73-.5-1.56.07-2.29,1.93-2.49,3.86-4.99,5.86-7.42.34-.41,1.06-.66,1.62-.69.46-.02.95.39,1.43.61-.15.19-.29.37-.44.56Z"/>
      <path class="cls-2" d="M92.2,213.2c-.14.31-.23.66-.43.92-1.51,2.05-2.99,4.14-4.62,6.1-.33.39-1.26.28-1.91.4-.01-.68-.31-1.55,0-2.01,1.4-2.06,2.94-4.03,4.51-5.96.3-.37.97-.6,1.46-.59.47,0,.92.41,1.39.64-.13.17-.27.33-.4.5Z"/>
      <path class="cls-2" d="M17.88,203.42c.23.17.71.4,1.01.78,1.12,1.41,2.27,2.81,3.22,4.33.31.49.06,1.32.07,2-.7-.16-1.68-.08-2.06-.51-1.22-1.39-2.27-2.94-3.29-4.49-.67-1.01-.23-2.04,1.05-2.11Z"/>
      <path class="cls-2" d="M17.22,215.78c-1.23-.01-5.25-5.27-4.79-6.35.47-1.1,1.43-1.11,2.09-.34,1.31,1.53,2.52,3.17,3.62,4.86.63.96.09,1.84-.92,1.83Z"/>
      <path class="cls-2" d="M23.52,131.43c1.24-1.92,2.38-3.68,3.52-5.45.69-1.06,1.44-2.08,2.91-1.77,1.57.33,2.05,1.56,2.27,2.97.81,5.24,1.63,10.49,2.45,15.73.22,1.38.49,2.76.66,4.15.19,1.6-.66,2.91-1.96,3-1.59.12-2.36-.86-2.59-2.28-.72-4.49-1.4-8.99-2.09-13.49-.05-.32-.13-.64-.29-1.39-.91,1.29-1.59,2.27-2.29,3.22-1.94,2.61-3.64,2.51-5.31-.29-.56-.94-1.13-1.87-1.93-3.2-.64,3.39-1.2,6.35-1.75,9.32-.3,1.61-.53,3.22-.87,4.82-.28,1.32-.97,2.31-2.53,2.04-1.54-.27-2.21-1.3-1.95-2.79,1.15-6.55,2.29-13.09,3.58-19.61.16-.79,1.09-1.89,1.79-2,.84-.14,2.07.41,2.69,1.07.94.99,1.5,2.34,2.22,3.54.47.78.94,1.56,1.46,2.4Z"/>
      <path class="cls-2" d="M76.11,137.68c2.91,2.76,5.7,5.4,8.5,8.05.34.32.69.64.98,1,.9,1.11.93,2.29-.04,3.33-.99,1.07-2.21,1.09-3.27.13-2.54-2.32-5.02-4.71-7.52-7.08-.59-.56-1.18-1.11-2.18-2.06,0,2.24,0,4,0,5.77,0,.7.21,1.56-.12,2.06-.51.78-1.3,1.67-2.13,1.89-1.19.3-2.12-.56-2.36-1.8-.17-.91-.13-1.86-.13-2.79-.02-5.96-.03-11.91-.04-17.87,0-.53,0-1.05.03-1.58.1-1.42.78-2.33,2.28-2.34,1.52-.01,2.23.96,2.32,2.32.15,2.15.15,4.32.23,6.48.01.33.11.66.22,1.23,2.57-2.32,4.98-4.51,7.41-6.67.52-.46,1.05-.96,1.67-1.25,1.15-.55,2.2-.23,2.94.78.74,1,.58,1.97-.34,2.8-2.77,2.5-5.54,5-8.44,7.61Z"/>
      <path class="cls-2" d="M54.3,146.07c2.47,0,4.69-.02,6.9,0,1.95.02,2.99.91,2.93,2.45-.05,1.47-1.06,2.31-2.93,2.28-2.86-.04-5.72-.11-8.58-.27-2.13-.12-2.89-.87-2.9-2.93,0-6.66.05-13.32.11-19.98.01-1.44.56-2.56,2.18-2.64,1.38-.08,2.32,1,2.32,2.69.02,5.02-.02,10.05-.04,15.07,0,.98,0,1.97,0,3.32Z"/>
      <path class="cls-2" d="M39.51,137.29c0-3.27-.02-6.53,0-9.8.01-1.81.78-2.7,2.24-2.68,1.42.02,2.33.96,2.36,2.68.13,6.65.23,13.29.3,19.94.02,1.78-.95,2.91-2.33,2.95-1.48.05-2.49-1.07-2.51-2.95-.04-3.38-.01-6.76-.01-10.15h-.06Z"/>
      <path class="cls-2" d="M16.5,76.88c-1.19-.2-1.62-1.03-1.05-1.88,1.25-1.87,2.69-3.63,4.14-5.35.23-.27,1.04-.33,1.4-.14.34.18.72,1.02.58,1.22-1.42,2.03-2.94,3.99-4.45,5.95-.11.15-.42.14-.62.2Z"/>
      <path class="cls-2" d="M11.06,74.51c-1.07-.32-1.55-1.04-.93-1.96,1.17-1.74,2.46-3.4,3.81-5,.27-.32,1.15-.47,1.52-.27.37.2.76,1.16.59,1.4-1.37,1.94-2.86,3.79-4.34,5.65-.12.14-.43.13-.66.19Z"/>
      <path class="cls-2" d="M58.98,23.08c6.51.01,10.04,2.55,12.09,8.75.77,2.32,1.31,4.73,2.21,7,1.24,3.15.29,5.69-1.75,8.05-3.37,3.89-7.85,5.72-12.8,6.01-2.9.17-5.92-.39-8.76-1.1-2.8-.7-4.69-2.56-5.23-5.69-.42-2.4-1.35-4.7-1.99-7.06-1.49-5.41-.18-9.02,4.4-12.29,3.36-2.39,7.5-3.68,11.84-3.67ZM67.21,46.71c-1.19-1.96-2.37-3.92-3.61-5.97-.74.38-1.7.87-2.61,1.34.61,2.37,1.89,4.38,1.41,6.77-2.02-1.6-2.04-4.15-3.03-6.2-1.27.24-2.46.46-3.83.71.62,2.23,1.23,4.38,1.88,6.71,3.54-.31,7-.77,9.75-3.4,1.97-.79,4.17-3.53,3.85-5.15-.4-1.99-1.11-3.92-1.77-6.14-.55.75-.88,1.21-1.16,1.6,1.05,2.11,2.12,4.1,1.99,6.4l-.73.27c-.77-1.74-1.53-3.48-2.36-5.36-.59.51-1.14.99-1.71,1.49.31.66.69,1.21.84,1.81.42,1.7.75,3.42,1.11,5.13ZM53.75,40.35c.41,0,.82.03,1.22,0,3.94-.35,7.58-1.5,10.34-4.48,3.48-3.78,1.97-8.4-3.02-9.52-3.35-.75-6.65-.4-9.8.81-2.68,1.03-5.14,2.52-6.75,5.06-1.42,2.24-1.19,3.99.73,5.74,2.07,1.88,4.59,2.41,7.28,2.4ZM56.14,50.24c-.68-1.81-1.3-3.24-1.76-4.73-.79-2.51-.75-2.52-3.38-2.18.49,2.07.99,4.14,1.52,6.37,1.06.16,2.2.32,3.63.54ZM46.28,41.8c1.43,2.59.7,6.11,4.53,7.29-.42-1.54-.96-2.9-1.13-4.3-.22-1.83-1.09-2.8-3.4-2.99Z"/>
      <path class="cls-2" d="M125.46,204.16c1.06-2.44,1.99-4.69,3.05-6.87.15-.31,1.12-.51,1.49-.33.39.19.83,1.02.7,1.38-.82,2.29-1.74,4.54-2.75,6.75-.14.32-1.08.59-1.43.42-.47-.22-.73-.89-1.07-1.35Z"/>
      <path class="cls-2" d="M133.85,198.75c1.16.14,1.64.74,1.29,1.8-.47,1.43-.97,2.86-1.61,4.23-.19.41-.86.8-1.32.81-.36,0-1.11-.7-1.05-.89.62-1.94,1.36-3.85,2.1-5.75.05-.14.41-.16.58-.21Z"/>
      <path class="cls-2" d="M115.74,71.13c-1.04,2.25-1.97,4.38-3.04,6.43-.16.3-1.21.51-1.5.29-.4-.31-.79-1.17-.63-1.58.74-1.96,1.61-3.87,2.56-5.73.19-.37.99-.69,1.42-.6.42.08.74.71,1.19,1.2Z"/>
      <path class="cls-2" d="M110.83,69.8c-1.12,2.14-2.16,4.21-3.32,6.21-.16.27-1.07.43-1.35.24-.39-.27-.83-1.07-.69-1.39.91-2.06,1.93-4.08,3.02-6.05.15-.27.99-.4,1.37-.24.39.16.6.74.96,1.23Z"/>
      <path class="cls-3" d="M53.75,40.35c-2.69,0-5.21-.51-7.28-2.4-1.92-1.75-2.15-3.5-.73-5.74,1.61-2.54,4.07-4.02,6.75-5.06,3.14-1.21,6.45-1.56,9.8-.81,5,1.12,6.51,5.74,3.02,9.52-2.76,2.99-6.4,4.13-10.34,4.48-.4.04-.82,0-1.22,0Z"/>
      <path class="cls-3" d="M67.16,46.67c-2.74,2.64-6.2,3.09-9.74,3.4-.65-2.34-1.26-4.49-1.88-6.71,1.36-.25,2.56-.48,3.83-.71.99,2.06,1.01,4.6,3.03,6.2.48-2.39-.8-4.4-1.41-6.77.91-.47,1.87-.96,2.61-1.34,1.24,2.05,2.43,4.01,3.61,5.97l-.05-.04Z"/>
      <path class="cls-3" d="M67.21,46.71c-.36-1.71-.69-3.43-1.11-5.13-.15-.6-.52-1.15-.84-1.81.57-.5,1.12-.98,1.71-1.49.83,1.89,1.6,3.63,2.36,5.36l.73-.27c.13-2.29-.94-4.28-1.99-6.4.28-.39.62-.85,1.16-1.6.66,2.22,1.37,4.15,1.77,6.14.33,1.62-1.88,4.35-3.85,5.15,0,0,.05.04.05.04Z"/>
      <path class="cls-3" d="M56.14,50.24c-1.43-.21-2.57-.38-3.63-.54-.53-2.23-1.02-4.3-1.52-6.37,2.63-.34,2.59-.33,3.38,2.18.47,1.48,1.08,2.92,1.76,4.73Z"/>
      <path class="cls-3" d="M46.28,41.8c2.31.19,3.18,1.17,3.4,2.99.17,1.4.71,2.75,1.13,4.3-3.83-1.19-3.1-4.71-4.53-7.29Z"/>
    </g>
  </g>
</svg>