<?xml version="1.0" encoding="UTF-8"?>
<svg id="Layer_2" data-name="Layer 2" xmlns="http://www.w3.org/2000/svg" viewBox="0 0 154.06 174.92">
  <defs>
    <style>
      .cls-1 {
        fill: #110f0b;
      }

      .cls-1, .cls-2, .cls-3, .cls-4, .cls-5, .cls-6, .cls-7, .cls-8, .cls-9, .cls-10, .cls-11, .cls-12, .cls-13, .cls-14 {
        stroke-width: 0px;
      }

      .cls-2 {
        fill: #231509;
      }

      .cls-3 {
        fill: #68b258;
      }

      .cls-4 {
        fill: #ececeb;
      }

      .cls-5 {
        fill: #599c49;
      }

      .cls-6 {
        fill: #f0f0ef;
      }

      .cls-7 {
        fill: #f4ac5f;
      }

      .cls-8 {
        fill: #ea9642;
      }

      .cls-9 {
        fill: #60a84f;
      }

      .cls-10 {
        fill: #ebeaea;
      }

      .cls-11 {
        fill: #e17e29;
      }

      .cls-12 {
        fill: #ed8f34;
      }

      .cls-13 {
        fill: #eeeded;
      }

      .cls-14 {
        fill: #e5e4e4;
      }
    </style>
  </defs>
  <g id="Layer_1-2" data-name="Layer 1">
    <g>
      <path class="cls-1" d="M153.71,113.73c-.77,3.86-1.54,7.71-2.32,11.57-.04.1-.07.2-.11.3-.06.25-.13.5-.19.75-.57,1.52-1.14,3.04-1.72,4.56-.45.93-.84,1.9-1.36,2.8-1.79,3.06-3.62,6.08-5.44,9.12-.05.07-.11.14-.16.21-.19.28-.39.56-.58.84-.92,1.16-1.84,2.32-2.76,3.48,0,0-.03.04-.03.04-.06.07-.12.14-.19.21l-.07.02v.07s-.1.03-.1.03l-.02.11-5.04,5.61c-1.16,1.14-2.32,2.28-3.49,3.42-1.01.86-2.03,1.72-3.04,2.58-1.09.83-2.18,1.66-3.27,2.49-2.11,1.27-4.22,2.54-6.32,3.81-1.18.59-2.37,1.19-3.55,1.78-.32.13-.65.26-.97.4-.08.04-.17.08-.25.13-4.13,1.39-8.26,2.77-12.38,4.16-.1.04-.2.08-.3.12-.08-.04-.14-.03-.19.04l-5.37,1.22c-1.75.28-3.49.56-5.24.85-1.9.16-3.79.32-5.69.47-4.96-.09-9.93-.1-14.89-.29-3.15-.12-6.28-.52-9.42-.79-.11-.02-.21-.05-.32-.07-.42-.06-.85-.12-1.27-.18-1.43-.34-2.86-.68-4.29-1.02-1.51-.5-3.01-1-4.52-1.49l-.3-.15c-.09-.03-.18-.05-.27-.08-.07-.04-.15-.08-.22-.11-.17-.06-.34-.12-.51-.18-1.93-.85-3.86-1.7-5.8-2.55-3.88-2.17-7.76-4.34-11.64-6.51-.41-.27-.83-.55-1.24-.82-.84-.51-1.68-1.02-2.52-1.53-.55-.48-1.09-.95-1.64-1.43-1.73-1.38-3.46-2.76-5.18-4.14-.35-.31-.7-.61-1.05-.92-1.51-1.53-3.02-3.05-4.53-4.58-.42-.5-.85-.99-1.27-1.49-2.09-3.29-4.18-6.58-6.26-9.87-2.05-4.74-3.74-9.6-4.75-14.68-.55-2.75-.91-5.53-1.36-8.3-.1-1.85-.2-3.71-.3-5.56,0-1.94,0-3.87,0-5.81.08-1.86.15-3.71.23-5.57.02-.34.03-.67.05-1.01l.36-3.28c.03-.26.06-.51.09-.77,0-.42.01-.84.02-1.26.03-.25.06-.49.09-.74.09-.2.22-.39.27-.61.25-1.12.49-2.25.72-3.38.33-1.29.65-2.58.98-3.88,0-.17-.02-.35.03-.5.93-2.41,1.87-4.81,2.81-7.21.33-.88.66-1.75.98-2.63l2.01-3.49c1.36-2.21,2.71-4.41,4.07-6.62,1.32-1.7,2.64-3.39,3.95-5.09,3.92-4.47,8.15-8.58,13.21-11.78,3.82-1.87,7.65-3.74,11.47-5.61.51-.25.99-.58,1.52-.78.61-.23,1.26-.37,1.89-.55.93-.32,1.86-.64,2.79-.96.17-.04.34-.08.5-.12.1-.05.2-.09.3-.14,1.75-.45,3.49-.9,5.24-1.35.25-.07.5-.13.75-.2,0,0,.02,0,.02,0,1.36-.24,2.72-.49,4.07-.73.5-.03,1-.06,1.5-.09.42-.05.84-.11,1.27-.16,2.52-.25,5.04-.5,7.73-.77-.51-2.03-.99-3.92-1.47-5.8l-1.44-4.31c-.05-.17-.1-.33-.14-.5l-.14-.17c-.08-.19-.17-.39-.25-.58-1.09-2.11-2.19-4.23-3.28-6.34-.7-1.26-1.41-2.51-2.11-3.77,0-.08,0-.16,0-.24.04-.34.08-.67.12-1.01.8-2,2.32-3.37,4.04-4.55.83-.35,1.66-.7,2.49-1.05,1.1,0,2.19,0,3.29.01.18.09.35.17.53.26.68.82,1.46,1.59,2.01,2.49.6.98.99,2.09,1.47,3.15.71,2.53,1.42,5.06,2.04,7.29,2.05-2.5,4.21-5.14,6.38-7.78.51-.44,1.02-.87,1.54-1.31,3.13-2.19,6.32-4.26,9.88-5.72C100.4.47,107.18-.33,114.14.11c2.47.16,4.94.45,7.38.83,1.87.29,2.54,1.53,1.86,3.31-.79,2.06-1.7,4.08-2.55,6.11-2.28,4.11-4.84,8-8.33,11.21-2.03,1.4-4.07,2.79-6.1,4.19-.92.41-1.85.82-2.77,1.23-.33.16-.67.31-1,.47-.51.19-1.01.37-1.52.56l-.76.15c-.09.04-.18.08-.27.12-.16.03-.32.06-.48.09-.17.06-.34.11-.51.17-.26.05-.51.09-.77.14-.1.03-.19.06-.29.1-.24.04-.47.07-.71.11-.19.05-.38.09-.57.14-.4.05-.8.1-1.2.14-.09.03-.19.06-.28.1,0,0,.01,0,.01,0-2.1.13-4.19.25-6.29.38-1.17-.03-2.33-.06-3.5-.1-.26-.04-.51-.08-.77-.12-.43-.03-.86-.06-1.29-.09-2.12-.39-4.25-.79-6.47-1.2v4.89h7.21l1.51.08c.16.03.33.06.49.09.65.06,1.31.12,1.96.19.19.04.39.07.58.11l1.44.14c.19.04.39.08.58.12.49.04.98.09,1.47.13.27.05.54.1.81.15.32.03.64.06.97.1.09.03.19.05.28.08.35.05.69.09,1.04.14,1.85.44,3.7.88,5.55,1.32.25.07.5.15.75.22.17.06.35.12.52.19,1.86.61,3.72,1.21,5.59,1.82.07.03.13.05.2.08.18.06.36.12.54.18,1.09.43,2.18.86,3.28,1.29.29.15.57.33.88.45,5.17,2.15,10.16,4.68,14.66,8,3.13,2.3,6,4.95,8.99,7.44.08.09.16.17.24.26,1.86,2.34,3.72,4.68,5.58,7.02.83,1.37,1.67,2.75,2.5,4.12,1.69,4.2,3.37,8.41,5.06,12.61.42,1.44.84,2.89,1.26,4.33.04.24.08.49.13.73.04.11.07.21.11.32.69,3.43,1.38,6.86,2.07,10.29.02.17.03.34.05.5.05.29.1.57.15.86.02.13.03.27.05.4.07.53.13,1.05.2,1.58.02.23.04.46.06.69l.26,3.29c.02.59.04,1.18.06,1.77,0,.08,0,.16,0,.24,0,.18.01.35.02.53,0,.58,0,1.16.01,1.73,0,.26,0,.53-.01.79,0,.08,0,.16,0,.23v.51c0,.17-.01.34-.02.51-.03.92-.06,1.85-.1,2.77-.07.76-.15,1.52-.22,2.28ZM5.58,116.52c.25,1.43.5,2.86.75,4.29.84,3.02,1.58,6.07,2.53,9.05,1.85,5.84,4.96,10.97,9.15,15.45.75.79,1.46,1.63,2.25,2.37,6.56,6.14,13.86,11.23,21.86,15.3,4.96,2.52,10.06,4.8,15.59,5.7,4.18.68,8.44,1.07,12.67,1.27,7.99.37,15.99.56,23.9-1.12,8.12-1.73,15.91-4.28,23.11-8.51,6.44-3.78,11.69-8.86,16.65-14.38,10.02-11.15,15.18-24.19,15.09-39.12-.07-11.9-2.55-23.41-7.2-34.38-2.18-5.14-5.25-9.78-9.24-13.75-2.36-2.09-4.6-4.33-7.1-6.23-7.23-5.46-15.47-8.96-23.91-12.04-7.81-2.85-15.96-3.6-24.19-3.86-1.01-.03-1.07.52-1.05,1.26.13.06.23.14.35.16,2.77.43,4.99,1.98,7.13,3.62.48.37.95,1.26.82,1.76-.16.59-.92,1.07-1.5,1.5-.23.17-.65.11-.98.14-2.84.24-5.79.24-7.11,3.53-.01.04-.05.06-.08.1-.99,1.07-2.06,1.15-3.04.1-.71-.76-1.22-1.72-1.94-2.48-.34-.36-.95-.63-1.45-.64-1.51-.04-3.03.12-4.53.08-.99-.03-1.93-.38-2.28-1.48-.33-1.04.37-1.64,1.02-2.26,1.82-1.75,4.02-2.85,6.44-3.65-.04-.47-.08-.88-.12-1.34-.4,0-.73-.04-1.05,0-9.47,1.38-18.78,3.33-27.57,7.34-6.37,2.91-12.26,6.46-17.16,11.55-6.65,6.91-11.55,14.88-14.7,23.89-1.14,3.27-1.76,6.72-2.61,10.08-.25,1.56-.49,3.12-.74,4.68-.21,3.39-.53,6.78-.58,10.17-.05,2.68.23,5.37.36,8.05.01.17.02.33.04.5.07.51.14,1.02.2,1.52.01.17.03.34.04.52l.19,1.26ZM71.23,28.08c.54,3.77,1.07,7.54,1.61,11.31.37-.84.56-1.69.58-2.54.08-3.52.11-7.04.15-10.56-.03-.6-.05-1.19-.08-1.79-.05-.35-.1-.69-.15-1.04-.46-4.22-1.43-8.31-2.62-11.99-1.97.71-3.76,1.36-5.61,2.02,2.95,4.35,4.86,9.34,6.12,14.59ZM81.15,23.25c-.81.5-1.61,1.01-2.65,1.66.72.17,1.15.34,1.59.37,3.85.27,7.72.82,11.56.72,8.76-.22,16.03-3.83,21.62-10.59,1.27-1.53,2.18-3.36,3.25-5.05,1.06-1.95,2.12-3.9,3.3-6.08-1.25-.15-2.07-.25-2.9-.34-9.1-.91-17.87-.01-25.97,4.66-4.65,2.69-8.72,5.99-11.37,10.79-.42.68-.83,1.35-1.25,2.03.08.06.15.12.23.18.71-.54,1.42-1.07,2.12-1.61,3.16-1.65,6.27-3.4,9.5-4.92,4-1.87,8.15-3.38,12.58-3.93.75-.09,1.73-.14,1.79.84.02.43-.77,1.12-1.33,1.33-1.84.7-3.77,1.17-5.62,1.84-5.8,2.06-11.36,4.61-16.46,8.09ZM76.06,40.42c-1.94,2.6-3.34,2.77-5.85.87-.22-.16-.63-.29-.84-.19-.7.32-1.34.75-2.01,1.13-.01.13-.03.26-.04.38,2.97-.9,4.8.52,6.21,3.14,1.3-2.48,2.95-3.91,5.62-3.89-1.04-.48-2.08-.97-3.09-1.44ZM63.84,10.54c1.88.17,3.48.08,4.91-.88.3-.2.68-.79.59-.95-.2-.34-.7-.73-1.04-.71-1.78.13-3.22.95-4.45,2.53Z"/>
      <path class="cls-13" d="M151.28,125.59c.04-.1.07-.2.11-.3-.04.1-.07.2-.11.3Z"/>
      <path class="cls-12" d="M6.07,89.82c.86-3.37,1.47-6.82,2.61-10.08,3.15-9.01,8.06-16.99,14.7-23.89,4.9-5.1,10.79-8.64,17.16-11.55,8.79-4.02,18.1-5.96,27.57-7.34.32-.05.65,0,1.05,0,.04.46.08.87.12,1.34-2.42.79-4.62,1.89-6.44,3.65-.65.62-1.34,1.23-1.02,2.26.35,1.1,1.28,1.45,2.28,1.48,1.51.05,3.03-.12,4.53-.08.5.01,1.11.28,1.45.64.72.76,1.23,1.71,1.94,2.48.99,1.06,2.06.97,3.04-.1.03-.03.07-.06.08-.1,1.32-3.29,4.27-3.29,7.11-3.53.33-.03.75.04.98-.14.57-.43,1.34-.9,1.5-1.5.13-.49-.34-1.39-.82-1.76-2.14-1.64-4.36-3.19-7.13-3.62-.11-.02-.22-.1-.35-.16-.02-.74.03-1.3,1.05-1.26,8.23.26,16.38,1.01,24.19,3.86,8.44,3.08,16.69,6.58,23.91,12.04,2.51,1.89,4.74,4.14,7.1,6.23.14.86.22,1.74.45,2.58,1.36,4.97,2.28,10.03,2.3,15.18.02,4.39-.21,8.79-.53,13.17-.1,1.32.13,2.9-1.19,3.92-.85,1.31-1.77,2.57-2.52,3.93-.78,1.43-.2,2.2,1.44,2.06.06.17.22.38.17.52-1.67,4.79-3.37,9.57-5.85,14.01-2.86,5.1-6.22,9.86-10.18,14.16-4.1,4.45-8.56,8.56-13.78,11.67-3.37,2.01-6.89,3.81-10.5,5.35-5.17,2.21-10.62,3.68-16.16,4.64-5.47.95-10.95,2.04-16.47,2.41-5.76.39-11.56.29-17.33-.61-7.32-1.14-14.42-2.95-21.21-5.92-1.04-.45-2.09-1.25-3.32-.45-4.19-4.48-7.29-9.61-9.15-15.45-.95-2.99-1.69-6.03-2.53-9.05,0-.97,0-1.94,0-2.91,0-7.86.02-15.72-.01-23.57,0-1.5-.17-3-.27-4.5ZM29.05,65.2c.2-.91.03-1.66-1.03-1.76-1.26-.13-4.1,3.62-3.7,4.82.05.15.18.28.28.42-1.37,1.82-2.32,3.8-2.31,6.13,0,1.99,1.7,3.94,3.63,4.26,2.25.38,4.89-.98,6.08-2.97,1.41-2.34,1.37-4.85,1.1-7.41.06-1.05-.39-1.59-1.49-1.49-.37-1.29-1.08-2.14-2.57-2ZM34.65,63.43c1.34.17,2.19-.61,3.03-1.39,1.6-1.49,3.16-3.02,4.77-4.49.96-.87,2.04-1.62,2.97-2.51.86-.83.89-2.02.4-2.93-.41-.76-1.3-1.53-2.11-1.72-.95-.22-2.13-.02-3.05.38-1.44.63-2.9,1.41-4.08,2.43-1.6,1.38-3.07,2.96-4.37,4.63-.89,1.14-1.28,2.65-.44,4.03.62,1.02,1.54,1.82,2.87,1.58ZM24.87,137.36c-.99-.03-1.62.8-1.24,1.61.68,1.44,1.46,2.83,2.36,4.14.24.34,1.17.54,1.59.36.72-.32.66-1.07.26-1.74-.71-1.19-1.39-2.39-2.14-3.56-.23-.36-.63-.62-.83-.81ZM33.72,141.01c-.69-1.25-1.25-2.41-1.96-3.46-.17-.24-1.05-.31-1.29-.11-.32.28-.59,1.01-.45,1.38.38,1,.93,1.96,1.53,2.85.2.29.83.53,1.14.43.38-.13.63-.64,1.03-1.09Z"/>
      <path class="cls-11" d="M18.01,145.31c1.23-.8,2.28,0,3.32.45,6.8,2.97,13.9,4.78,21.21,5.92,5.77.9,11.58,1,17.33.61,5.52-.37,11-1.46,16.47-2.41,5.54-.97,10.98-2.44,16.16-4.64,3.61-1.54,7.13-3.34,10.5-5.35,5.22-3.11,9.68-7.21,13.78-11.67,3.96-4.3,7.32-9.06,10.18-14.16,2.49-4.44,4.18-9.22,5.85-14.01.05-.14-.11-.34-.17-.52.74-1.31,1.55-2.58,2.21-3.93.62-1.27.29-1.78-1.13-2.07,1.32-1.02,1.1-2.6,1.19-3.92.32-4.38.55-8.78.53-13.17-.02-5.15-.94-10.21-2.3-15.18-.23-.84-.3-1.72-.45-2.58,3.99,3.97,7.06,8.61,9.24,13.75,4.65,10.97,7.13,22.49,7.2,34.38.08,14.93-5.07,27.97-15.09,39.12-4.96,5.52-10.22,10.6-16.65,14.38-7.2,4.23-14.99,6.78-23.11,8.51-7.91,1.68-15.91,1.49-23.9,1.12-4.24-.19-8.49-.59-12.67-1.27-5.53-.9-10.63-3.18-15.59-5.7-8-4.06-15.3-9.16-21.86-15.3-.79-.74-1.5-1.58-2.25-2.37ZM114.7,147.33c.28-.05.44-.03.52-.1,1.66-1.34,3.34-2.66,4.95-4.06.18-.15.04-.94-.2-1.21-.24-.26-.96-.46-1.19-.3-1.64,1.17-3.23,2.41-4.77,3.71-.24.21-.26.89-.13,1.26.11.32.59.51.82.69ZM122.43,148.2c-.02-1.11-.96-1.64-1.82-1.09-1.19.77-2.35,1.63-3.38,2.59-.34.32-.53,1.21-.33,1.62.34.72,1.14.63,1.74.19,1.15-.84,2.26-1.72,3.36-2.63.24-.19.34-.54.43-.69ZM138,96.78c-.14.07-.51.14-.63.35-.65,1.12-1.3,2.25-1.79,3.45-.12.29.28,1.03.61,1.18.33.15,1.1-.03,1.3-.32.68-1,1.27-2.08,1.74-3.2.31-.73-.33-1.47-1.23-1.46Z"/>
      <path class="cls-3" d="M79.59,19.39c2.65-4.79,6.72-8.1,11.37-10.79,8.09-4.68,16.87-5.58,25.97-4.66.83.08,1.65.19,2.9.34-1.19,2.18-2.24,4.13-3.3,6.08-.53.25-1.12.41-1.58.76-2.21,1.65-4.35,3.39-6.57,5.02-4.29,3.16-9.13,5.12-14.34,6.08-3.32.61-6.7.91-10.06,1.26-.92.1-1.88-.14-2.82-.22,5.1-3.48,10.66-6.03,16.46-8.09,1.86-.66,3.78-1.14,5.62-1.84.56-.21,1.35-.9,1.33-1.33-.05-.98-1.03-.93-1.79-.84-4.43.55-8.58,2.06-12.58,3.93-3.23,1.51-6.34,3.27-9.5,4.92-.37-.2-.73-.4-1.1-.6Z"/>
      <path class="cls-5" d="M81.15,23.25c.94.08,1.9.32,2.82.22,3.36-.35,6.74-.65,10.06-1.26,5.21-.96,10.05-2.92,14.34-6.08,2.22-1.63,4.36-3.37,6.57-5.02.46-.34,1.05-.51,1.58-.76-1.07,1.69-1.98,3.52-3.25,5.05-5.6,6.76-12.86,10.37-21.62,10.59-3.85.1-7.71-.45-11.56-.72-.44-.03-.86-.19-1.59-.37,1.04-.65,1.85-1.16,2.65-1.66Z"/>
      <path class="cls-9" d="M73.49,24.5c.03.6.05,1.19.08,1.79-.14.46-.27.92-.44,1.46-.61.11-1.25.22-1.9.33-1.27-5.25-3.17-10.24-6.12-14.59,1.85-.67,3.64-1.31,5.61-2.02,1.2,3.68,2.17,7.77,2.62,11.99.05.35.1.69.15,1.04Z"/>
      <path class="cls-8" d="M6.07,89.82c.09,1.5.26,3,.27,4.5.03,7.86.01,15.72.01,23.57,0,.97,0,1.94,0,2.91-.25-1.43-.5-2.86-.75-4.29-.06-.42-.13-.84-.19-1.26-.01-.17-.03-.34-.04-.52.75-.75.7-1.11-.2-1.52-.01-.17-.02-.33-.04-.5.16-.21.44-.4.46-.62.12-1.37.29-2.74.26-4.11-.12-4.5-.32-9-.49-13.5.25-1.56.49-3.12.74-4.68Z"/>
      <path class="cls-5" d="M71.23,28.08c.65-.11,1.29-.23,1.9-.33.16-.55.3-1.01.44-1.46-.05,3.52-.08,7.04-.15,10.56-.02.85-.2,1.71-.58,2.54-.54-3.77-1.07-7.54-1.61-11.31Z"/>
      <path class="cls-5" d="M76.06,40.42c1.01.47,2.05.95,3.09,1.44-2.67-.02-4.32,1.4-5.62,3.89-1.4-2.62-3.24-4.03-6.21-3.14.01-.13.03-.26.04-.38.67-.39,1.31-.82,2.01-1.13.21-.1.63.03.84.19,2.5,1.91,3.91,1.73,5.85-.87Z"/>
      <path class="cls-12" d="M5.33,94.5c.17,4.5.37,9,.49,13.5.04,1.37-.13,2.74-.26,4.11-.02.22-.3.41-.46.62-.13-2.68-.41-5.37-.36-8.05.06-3.39.38-6.78.58-10.17Z"/>
      <path class="cls-5" d="M63.84,10.54c1.24-1.58,2.67-2.4,4.45-2.53.35-.03.84.37,1.04.71.09.15-.29.75-.59.95-1.42.95-3.03,1.05-4.91.88Z"/>
      <path class="cls-5" d="M79.59,19.39c.37.2.73.4,1.1.6-.71.54-1.42,1.07-2.12,1.61-.08-.06-.15-.12-.23-.18.42-.68.83-1.35,1.25-2.03Z"/>
      <path class="cls-12" d="M5.15,113.22c.9.41.95.78.2,1.52-.07-.51-.14-1.02-.2-1.52Z"/>
      <path class="cls-10" d="M154.05,104.9c0,.58,0,1.16.01,1.73,0-.58,0-1.16-.01-1.73Z"/>
      <path class="cls-14" d="M59.93,34.03c.42-.05.84-.11,1.27-.16-.42.05-.84.11-1.27.16Z"/>
      <path class="cls-12" d="M5.39,115.26c.06.42.13.84.19,1.26-.06-.42-.13-.84-.19-1.26Z"/>
      <path class="cls-5" d="M73.49,24.5c-.05-.35-.1-.69-.15-1.04.05.35.1.69.15,1.04Z"/>
      <path class="cls-6" d="M85.49,29.55c-.26-.04-.51-.08-.77-.12.26.04.51.08.77.12Z"/>
      <path class="cls-6" d="M92.21,33.89c.27.05.54.1.81.15-.27-.05-.54-.1-.81-.15Z"/>
      <path class="cls-6" d="M101.6,35.9c.17.06.35.12.52.19-.17-.06-.35-.12-.52-.19Z"/>
      <path class="cls-6" d="M97.32,28.89c-.19.05-.38.09-.57.14.19-.05.38-.09.57-.14Z"/>
      <path class="cls-6" d="M90.16,33.64c.19.04.39.08.58.12-.19-.04-.39-.08-.58-.12Z"/>
      <path class="cls-6" d="M88.13,33.39c.19.04.39.07.58.11-.19-.04-.39-.07-.58-.11Z"/>
      <path class="cls-6" d="M85.68,33.11c.16.03.33.06.49.09-.16-.03-.33-.06-.49-.09Z"/>
      <path class="cls-6" d="M99.59,28.38c-.17.06-.34.11-.51.17.17-.06.34-.11.51-.17Z"/>
      <path class="cls-6" d="M98.32,28.69c-.1.03-.19.06-.29.1.1-.03.19-.06.29-.1Z"/>
      <path class="cls-6" d="M100.35,28.17c-.09.04-.18.08-.27.12.09-.04.18-.08.27-.12Z"/>
      <path class="cls-6" d="M95.54,29.18c-.09.03-.19.06-.28.1.09-.03.19-.06.28-.1Z"/>
      <path class="cls-14" d="M142.58,142.82c-.05.07-.11.14-.16.21.05-.07.11-.14.16-.21Z"/>
      <path class="cls-14" d="M139.05,147.4c-.06.07-.12.14-.19.21.06-.07.12-.14.19-.21Z"/>
      <path class="cls-14" d="M138.8,147.69c0,.08-.05.12-.12.14,0,0,.02-.11.02-.11l.1-.03Z"/>
      <path class="cls-10" d="M151.02,84.42c.04.11.07.21.11.32-.04-.11-.07-.21-.11-.32Z"/>
      <path class="cls-14" d="M65.88,22.49c-.09-.03-.14-.08-.14-.17.05.06.1.12.14.17Z"/>
      <path class="cls-10" d="M60.1,11.62c-.03-.06-.06-.11-.08-.17,0-.01.05-.05.08-.07,0,.08,0,.16,0,.24Z"/>
      <path class="cls-6" d="M93.99,34.14c.09.03.19.05.28.08-.09-.03-.19-.05-.28-.08Z"/>
      <path class="cls-6" d="M107.71,37.9c.08,0,.14.03.2.08-.07-.03-.13-.05-.2-.08Z"/>
      <path class="cls-4" d="M48.05,36.55c.1-.05.2-.09.3-.14-.1.05-.2.09-.3.14Z"/>
      <path class="cls-7" d="M34.65,63.43c-1.33.24-2.25-.56-2.87-1.58-.84-1.38-.44-2.89.44-4.03,1.3-1.67,2.77-3.25,4.37-4.63,1.18-1.02,2.64-1.8,4.08-2.43.92-.4,2.1-.6,3.05-.38.81.19,1.7.96,2.11,1.72.49.91.46,2.1-.4,2.93-.94.9-2.02,1.64-2.97,2.51-1.61,1.47-3.17,3-4.77,4.49-.83.78-1.69,1.55-3.03,1.39Z"/>
      <path class="cls-7" d="M33.1,68.69c.27,2.56.31,5.07-1.1,7.41-1.2,1.99-3.84,3.35-6.08,2.97-1.93-.33-3.62-2.27-3.63-4.26,0-2.32.94-4.31,2.31-6.13.65-.24,1.44-.32,1.93-.74.93-.81,1.69-1.81,2.52-2.74,1.48-.14,2.19.71,2.57,2-.81.85-1.64,1.68-2.41,2.56-.57.66-1.34,1.51-.43,2.29,1,.85,1.67-.17,2.27-.83.72-.81,1.37-1.68,2.05-2.53Z"/>
      <path class="cls-2" d="M24.87,137.36c.2.19.6.45.83.81.74,1.17,1.43,2.37,2.14,3.56.4.66.45,1.42-.26,1.74-.41.18-1.35-.01-1.59-.36-.9-1.3-1.68-2.7-2.36-4.14-.38-.81.25-1.64,1.24-1.61Z"/>
      <path class="cls-2" d="M133.73,93.54c1.42.3,1.75.81,1.13,2.07-.66,1.35-1.47,2.62-2.21,3.93-1.63.14-2.22-.64-1.44-2.06.75-1.36,1.67-2.63,2.52-3.93Z"/>
      <path class="cls-2" d="M29.05,65.2c-.83.92-1.59,1.93-2.52,2.74-.49.42-1.28.5-1.93.74-.09-.14-.22-.26-.28-.42-.41-1.2,2.43-4.95,3.7-4.82,1.06.11,1.23.85,1.03,1.76Z"/>
      <path class="cls-2" d="M33.1,68.69c-.68.85-1.33,1.72-2.05,2.53-.6.67-1.27,1.69-2.27.83-.92-.78-.14-1.63.43-2.29.76-.89,1.6-1.71,2.41-2.56,1.09-.1,1.54.44,1.49,1.49Z"/>
      <path class="cls-2" d="M33.72,141.01c-.4.45-.65.97-1.03,1.09-.31.1-.95-.14-1.14-.43-.6-.89-1.15-1.85-1.53-2.85-.14-.37.12-1.09.45-1.38.24-.21,1.12-.14,1.29.11.72,1.05,1.28,2.21,1.96,3.46Z"/>
      <path class="cls-2" d="M114.7,147.33c-.24-.18-.71-.37-.82-.69-.13-.37-.11-1.06.13-1.26,1.54-1.3,3.13-2.54,4.77-3.71.23-.16.95.04,1.19.3.24.26.37,1.05.2,1.21-1.6,1.41-3.28,2.73-4.95,4.06-.09.07-.24.05-.52.1Z"/>
      <path class="cls-2" d="M122.43,148.2c-.09.14-.2.49-.43.69-1.1.9-2.22,1.79-3.36,2.63-.6.44-1.4.53-1.74-.19-.2-.41-.01-1.3.33-1.62,1.04-.96,2.19-1.82,3.38-2.59.86-.56,1.81-.02,1.82,1.09Z"/>
      <path class="cls-2" d="M138,96.78c.9-.01,1.54.73,1.23,1.46-.47,1.11-1.06,2.2-1.74,3.2-.2.29-.96.47-1.3.32-.33-.15-.73-.9-.61-1.18.49-1.19,1.14-2.32,1.79-3.45.12-.21.49-.28.63-.35Z"/>
    </g>
    <g>
      <path class="cls-1" d="M153.71,113.73c-.77,3.86-1.54,7.71-2.32,11.57-.04.1-.07.2-.11.3-.06.25-.13.5-.19.75-.57,1.52-1.14,3.04-1.72,4.56-.45.93-.84,1.9-1.36,2.8-1.79,3.06-3.62,6.08-5.44,9.12-.05.07-.11.14-.16.21-.19.28-.39.56-.58.84-.92,1.16-1.84,2.32-2.76,3.48,0,0-.03.04-.03.04-.06.07-.12.14-.19.21l-.07.02v.07s-.1.03-.1.03l-.02.11-5.04,5.61c-1.16,1.14-2.32,2.28-3.49,3.42-1.01.86-2.03,1.72-3.04,2.58-1.09.83-2.18,1.66-3.27,2.49-2.11,1.27-4.22,2.54-6.32,3.81-1.18.59-2.37,1.19-3.55,1.78-.32.13-.65.26-.97.4-.08.04-.17.08-.25.13-4.13,1.39-8.26,2.77-12.38,4.16-.1.04-.2.08-.3.12-.08-.04-.14-.03-.19.04l-5.37,1.22c-1.75.28-3.49.56-5.24.85-1.9.16-3.79.32-5.69.47-4.96-.09-9.93-.1-14.89-.29-3.15-.12-6.28-.52-9.42-.79-.11-.02-.21-.05-.32-.07-.42-.06-.85-.12-1.27-.18-1.43-.34-2.86-.68-4.29-1.02-1.51-.5-3.01-1-4.52-1.49l-.3-.15c-.09-.03-.18-.05-.27-.08-.07-.04-.15-.08-.22-.11-.17-.06-.34-.12-.51-.18-1.93-.85-3.86-1.7-5.8-2.55-3.88-2.17-7.76-4.34-11.64-6.51-.41-.27-.83-.55-1.24-.82-.84-.51-1.68-1.02-2.52-1.53-.55-.48-1.09-.95-1.64-1.43-1.73-1.38-3.46-2.76-5.18-4.14-.35-.31-.7-.61-1.05-.92-1.51-1.53-3.02-3.05-4.53-4.58-.42-.5-.85-.99-1.27-1.49-2.09-3.29-4.18-6.58-6.26-9.87-2.05-4.74-3.74-9.6-4.75-14.68-.55-2.75-.91-5.53-1.36-8.3-.1-1.85-.2-3.71-.3-5.56,0-1.94,0-3.87,0-5.81.08-1.86.15-3.71.23-5.57.02-.34.03-.67.05-1.01l.36-3.28c.03-.26.06-.51.09-.77,0-.42.01-.84.02-1.26.03-.25.06-.49.09-.74.09-.2.22-.39.27-.61.25-1.12.49-2.25.72-3.38.33-1.29.65-2.58.98-3.88,0-.17-.02-.35.03-.5.93-2.41,1.87-4.81,2.81-7.21.33-.88.66-1.75.98-2.63l2.01-3.49c1.36-2.21,2.71-4.41,4.07-6.62,1.32-1.7,2.64-3.39,3.95-5.09,3.92-4.47,8.15-8.58,13.21-11.78,3.82-1.87,7.65-3.74,11.47-5.61.51-.25.99-.58,1.52-.78.61-.23,1.26-.37,1.89-.55.93-.32,1.86-.64,2.79-.96.17-.04.34-.08.5-.12.1-.05.2-.09.3-.14,1.75-.45,3.49-.9,5.24-1.35.25-.07.5-.13.75-.2,0,0,.02,0,.02,0,1.36-.24,2.72-.49,4.07-.73.5-.03,1-.06,1.5-.09.42-.05.84-.11,1.27-.16,2.52-.25,5.04-.5,7.73-.77-.51-2.03-.99-3.92-1.47-5.8l-1.44-4.31c-.05-.17-.1-.33-.14-.5l-.14-.17c-.08-.19-.17-.39-.25-.58-1.09-2.11-2.19-4.23-3.28-6.34-.7-1.26-1.41-2.51-2.11-3.77,0-.08,0-.16,0-.24.04-.34.08-.67.12-1.01.8-2,2.32-3.37,4.04-4.55.83-.35,1.66-.7,2.49-1.05,1.1,0,2.19,0,3.29.01.18.09.35.17.53.26.68.82,1.46,1.59,2.01,2.49.6.98.99,2.09,1.47,3.15.71,2.53,1.42,5.06,2.04,7.29,2.05-2.5,4.21-5.14,6.38-7.78.51-.44,1.02-.87,1.54-1.31,3.13-2.19,6.32-4.26,9.88-5.72C100.4.47,107.18-.33,114.14.11c2.47.16,4.94.45,7.38.83,1.87.29,2.54,1.53,1.86,3.31-.79,2.06-1.7,4.08-2.55,6.11-2.28,4.11-4.84,8-8.33,11.21-2.03,1.4-4.07,2.79-6.1,4.19-.92.41-1.85.82-2.77,1.23-.33.16-.67.31-1,.47-.51.19-1.01.37-1.52.56l-.76.15c-.09.04-.18.08-.27.12-.16.03-.32.06-.48.09-.17.06-.34.11-.51.17-.26.05-.51.09-.77.14-.1.03-.19.06-.29.1-.24.04-.47.07-.71.11-.19.05-.38.09-.57.14-.4.05-.8.1-1.2.14-.09.03-.19.06-.28.1,0,0,.01,0,.01,0-2.1.13-4.19.25-6.29.38-1.17-.03-2.33-.06-3.5-.1-.26-.04-.51-.08-.77-.12-.43-.03-.86-.06-1.29-.09-2.12-.39-4.25-.79-6.47-1.2v4.89h7.21l1.51.08c.16.03.33.06.49.09.65.06,1.31.12,1.96.19.19.04.39.07.58.11l1.44.14c.19.04.39.08.58.12.49.04.98.09,1.47.13.27.05.54.1.81.15.32.03.64.06.97.1.09.03.19.05.28.08.35.05.69.09,1.04.14,1.85.44,3.7.88,5.55,1.32.25.07.5.15.75.22.17.06.35.12.52.19,1.86.61,3.72,1.21,5.59,1.82.07.03.13.05.2.08.18.06.36.12.54.18,1.09.43,2.18.86,3.28,1.29.29.15.57.33.88.45,5.17,2.15,10.16,4.68,14.66,8,3.13,2.3,6,4.95,8.99,7.44.08.09.16.17.24.26,1.86,2.34,3.72,4.68,5.58,7.02.83,1.37,1.67,2.75,2.5,4.12,1.69,4.2,3.37,8.41,5.06,12.61.42,1.44.84,2.89,1.26,4.33.04.24.08.49.13.73.04.11.07.21.11.32.69,3.43,1.38,6.86,2.07,10.29.02.17.03.34.05.5.05.29.1.57.15.86.02.13.03.27.05.4.07.53.13,1.05.2,1.58.02.23.04.46.06.69l.26,3.29c.02.59.04,1.18.06,1.77,0,.08,0,.16,0,.24,0,.18.01.35.02.53,0,.58,0,1.16.01,1.73,0,.26,0,.53-.01.79,0,.08,0,.16,0,.23v.51c0,.17-.01.34-.02.51-.03.92-.06,1.85-.1,2.77-.07.76-.15,1.52-.22,2.28ZM5.58,116.52c.25,1.43.5,2.86.75,4.29.84,3.02,1.58,6.07,2.53,9.05,1.85,5.84,4.96,10.97,9.15,15.45.75.79,1.46,1.63,2.25,2.37,6.56,6.14,13.86,11.23,21.86,15.3,4.96,2.52,10.06,4.8,15.59,5.7,4.18.68,8.44,1.07,12.67,1.27,7.99.37,15.99.56,23.9-1.12,8.12-1.73,15.91-4.28,23.11-8.51,6.44-3.78,11.69-8.86,16.65-14.38,10.02-11.15,15.18-24.19,15.09-39.12-.07-11.9-2.55-23.41-7.2-34.38-2.18-5.14-5.25-9.78-9.24-13.75-2.36-2.09-4.6-4.33-7.1-6.23-7.23-5.46-15.47-8.96-23.91-12.04-7.81-2.85-15.96-3.6-24.19-3.86-1.01-.03-1.07.52-1.05,1.26.13.06.23.14.35.16,2.77.43,4.99,1.98,7.13,3.62.48.37.95,1.26.82,1.76-.16.59-.92,1.07-1.5,1.5-.23.17-.65.11-.98.14-2.84.24-5.79.24-7.11,3.53-.01.04-.05.06-.08.1-.99,1.07-2.06,1.15-3.04.1-.71-.76-1.22-1.72-1.94-2.48-.34-.36-.95-.63-1.45-.64-1.51-.04-3.03.12-4.53.08-.99-.03-1.93-.38-2.28-1.48-.33-1.04.37-1.64,1.02-2.26,1.82-1.75,4.02-2.85,6.44-3.65-.04-.47-.08-.88-.12-1.34-.4,0-.73-.04-1.05,0-9.47,1.38-18.78,3.33-27.57,7.34-6.37,2.91-12.26,6.46-17.16,11.55-6.65,6.91-11.55,14.88-14.7,23.89-1.14,3.27-1.76,6.72-2.61,10.08-.25,1.56-.49,3.12-.74,4.68-.21,3.39-.53,6.78-.58,10.17-.05,2.68.23,5.37.36,8.05.01.17.02.33.04.5.07.51.14,1.02.2,1.52.01.17.03.34.04.52l.19,1.26ZM71.23,28.08c.54,3.77,1.07,7.54,1.61,11.31.37-.84.56-1.69.58-2.54.08-3.52.11-7.04.15-10.56-.03-.6-.05-1.19-.08-1.79-.05-.35-.1-.69-.15-1.04-.46-4.22-1.43-8.31-2.62-11.99-1.97.71-3.76,1.36-5.61,2.02,2.95,4.35,4.86,9.34,6.12,14.59ZM81.15,23.25c-.81.5-1.61,1.01-2.65,1.66.72.17,1.15.34,1.59.37,3.85.27,7.72.82,11.56.72,8.76-.22,16.03-3.83,21.62-10.59,1.27-1.53,2.18-3.36,3.25-5.05,1.06-1.95,2.12-3.9,3.3-6.08-1.25-.15-2.07-.25-2.9-.34-9.1-.91-17.87-.01-25.97,4.66-4.65,2.69-8.72,5.99-11.37,10.79-.42.68-.83,1.35-1.25,2.03.08.06.15.12.23.18.71-.54,1.42-1.07,2.12-1.61,3.16-1.65,6.27-3.4,9.5-4.92,4-1.87,8.15-3.38,12.58-3.93.75-.09,1.73-.14,1.79.84.02.43-.77,1.12-1.33,1.33-1.84.7-3.77,1.17-5.62,1.84-5.8,2.06-11.36,4.61-16.46,8.09ZM76.06,40.42c-1.94,2.6-3.34,2.77-5.85.87-.22-.16-.63-.29-.84-.19-.7.32-1.34.75-2.01,1.13-.01.13-.03.26-.04.38,2.97-.9,4.8.52,6.21,3.14,1.3-2.48,2.95-3.91,5.62-3.89-1.04-.48-2.08-.97-3.09-1.44ZM63.84,10.54c1.88.17,3.48.08,4.91-.88.3-.2.68-.79.59-.95-.2-.34-.7-.73-1.04-.71-1.78.13-3.22.95-4.45,2.53Z"/>
      <path class="cls-13" d="M151.28,125.59c.04-.1.07-.2.11-.3-.04.1-.07.2-.11.3Z"/>
      <path class="cls-12" d="M6.07,89.82c.86-3.37,1.47-6.82,2.61-10.08,3.15-9.01,8.06-16.99,14.7-23.89,4.9-5.1,10.79-8.64,17.16-11.55,8.79-4.02,18.1-5.96,27.57-7.34.32-.05.65,0,1.05,0,.04.46.08.87.12,1.34-2.42.79-4.62,1.89-6.44,3.65-.65.62-1.34,1.23-1.02,2.26.35,1.1,1.28,1.45,2.28,1.48,1.51.05,3.03-.12,4.53-.08.5.01,1.11.28,1.45.64.72.76,1.23,1.71,1.94,2.48.99,1.06,2.06.97,3.04-.1.03-.03.07-.06.08-.1,1.32-3.29,4.27-3.29,7.11-3.53.33-.03.75.04.98-.14.57-.43,1.34-.9,1.5-1.5.13-.49-.34-1.39-.82-1.76-2.14-1.64-4.36-3.19-7.13-3.62-.11-.02-.22-.1-.35-.16-.02-.74.03-1.3,1.05-1.26,8.23.26,16.38,1.01,24.19,3.86,8.44,3.08,16.69,6.58,23.91,12.04,2.51,1.89,4.74,4.14,7.1,6.23.14.86.22,1.74.45,2.58,1.36,4.97,2.28,10.03,2.3,15.18.02,4.39-.21,8.79-.53,13.17-.1,1.32.13,2.9-1.19,3.92-.85,1.31-1.77,2.57-2.52,3.93-.78,1.43-.2,2.2,1.44,2.06.06.17.22.38.17.52-1.67,4.79-3.37,9.57-5.85,14.01-2.86,5.1-6.22,9.86-10.18,14.16-4.1,4.45-8.56,8.56-13.78,11.67-3.37,2.01-6.89,3.81-10.5,5.35-5.17,2.21-10.62,3.68-16.16,4.64-5.47.95-10.95,2.04-16.47,2.41-5.76.39-11.56.29-17.33-.61-7.32-1.14-14.42-2.95-21.21-5.92-1.04-.45-2.09-1.25-3.32-.45-4.19-4.48-7.29-9.61-9.15-15.45-.95-2.99-1.69-6.03-2.53-9.05,0-.97,0-1.94,0-2.91,0-7.86.02-15.72-.01-23.57,0-1.5-.17-3-.27-4.5ZM29.05,65.2c.2-.91.03-1.66-1.03-1.76-1.26-.13-4.1,3.62-3.7,4.82.05.15.18.28.28.42-1.37,1.82-2.32,3.8-2.31,6.13,0,1.99,1.7,3.94,3.63,4.26,2.25.38,4.89-.98,6.08-2.97,1.41-2.34,1.37-4.85,1.1-7.41.06-1.05-.39-1.59-1.49-1.49-.37-1.29-1.08-2.14-2.57-2ZM34.65,63.43c1.34.17,2.19-.61,3.03-1.39,1.6-1.49,3.16-3.02,4.77-4.49.96-.87,2.04-1.62,2.97-2.51.86-.83.89-2.02.4-2.93-.41-.76-1.3-1.53-2.11-1.72-.95-.22-2.13-.02-3.05.38-1.44.63-2.9,1.41-4.08,2.43-1.6,1.38-3.07,2.96-4.37,4.63-.89,1.14-1.28,2.65-.44,4.03.62,1.02,1.54,1.82,2.87,1.58ZM24.87,137.36c-.99-.03-1.62.8-1.24,1.61.68,1.44,1.46,2.83,2.36,4.14.24.34,1.17.54,1.59.36.72-.32.66-1.07.26-1.74-.71-1.19-1.39-2.39-2.14-3.56-.23-.36-.63-.62-.83-.81ZM33.72,141.01c-.69-1.25-1.25-2.41-1.96-3.46-.17-.24-1.05-.31-1.29-.11-.32.28-.59,1.01-.45,1.38.38,1,.93,1.96,1.53,2.85.2.29.83.53,1.14.43.38-.13.63-.64,1.03-1.09Z"/>
      <path class="cls-11" d="M18.01,145.31c1.23-.8,2.28,0,3.32.45,6.8,2.97,13.9,4.78,21.21,5.92,5.77.9,11.58,1,17.33.61,5.52-.37,11-1.46,16.47-2.41,5.54-.97,10.98-2.44,16.16-4.64,3.61-1.54,7.13-3.34,10.5-5.35,5.22-3.11,9.68-7.21,13.78-11.67,3.96-4.3,7.32-9.06,10.18-14.16,2.49-4.44,4.18-9.22,5.85-14.01.05-.14-.11-.34-.17-.52.74-1.31,1.55-2.58,2.21-3.93.62-1.27.29-1.78-1.13-2.07,1.32-1.02,1.1-2.6,1.19-3.92.32-4.38.55-8.78.53-13.17-.02-5.15-.94-10.21-2.3-15.18-.23-.84-.3-1.72-.45-2.58,3.99,3.97,7.06,8.61,9.24,13.75,4.65,10.97,7.13,22.49,7.2,34.38.08,14.93-5.07,27.97-15.09,39.12-4.96,5.52-10.22,10.6-16.65,14.38-7.2,4.23-14.99,6.78-23.11,8.51-7.91,1.68-15.91,1.49-23.9,1.12-4.24-.19-8.49-.59-12.67-1.27-5.53-.9-10.63-3.18-15.59-5.7-8-4.06-15.3-9.16-21.86-15.3-.79-.74-1.5-1.58-2.25-2.37ZM114.7,147.33c.28-.05.44-.03.52-.1,1.66-1.34,3.34-2.66,4.95-4.06.18-.15.04-.94-.2-1.21-.24-.26-.96-.46-1.19-.3-1.64,1.17-3.23,2.41-4.77,3.71-.24.21-.26.89-.13,1.26.11.32.59.51.82.69ZM122.43,148.2c-.02-1.11-.96-1.64-1.82-1.09-1.19.77-2.35,1.63-3.38,2.59-.34.32-.53,1.21-.33,1.62.34.72,1.14.63,1.74.19,1.15-.84,2.26-1.72,3.36-2.63.24-.19.34-.54.43-.69ZM138,96.78c-.14.07-.51.14-.63.35-.65,1.12-1.3,2.25-1.79,3.45-.12.29.28,1.03.61,1.18.33.15,1.1-.03,1.3-.32.68-1,1.27-2.08,1.74-3.2.31-.73-.33-1.47-1.23-1.46Z"/>
      <path class="cls-3" d="M79.59,19.39c2.65-4.79,6.72-8.1,11.37-10.79,8.09-4.68,16.87-5.58,25.97-4.66.83.08,1.65.19,2.9.34-1.19,2.18-2.24,4.13-3.3,6.08-.53.25-1.12.41-1.58.76-2.21,1.65-4.35,3.39-6.57,5.02-4.29,3.16-9.13,5.12-14.34,6.08-3.32.61-6.7.91-10.06,1.26-.92.1-1.88-.14-2.82-.22,5.1-3.48,10.66-6.03,16.46-8.09,1.86-.66,3.78-1.14,5.62-1.84.56-.21,1.35-.9,1.33-1.33-.05-.98-1.03-.93-1.79-.84-4.43.55-8.58,2.06-12.58,3.93-3.23,1.51-6.34,3.27-9.5,4.92-.37-.2-.73-.4-1.1-.6Z"/>
      <path class="cls-5" d="M81.15,23.25c.94.08,1.9.32,2.82.22,3.36-.35,6.74-.65,10.06-1.26,5.21-.96,10.05-2.92,14.34-6.08,2.22-1.63,4.36-3.37,6.57-5.02.46-.34,1.05-.51,1.58-.76-1.07,1.69-1.98,3.52-3.25,5.05-5.6,6.76-12.86,10.37-21.62,10.59-3.85.1-7.71-.45-11.56-.72-.44-.03-.86-.19-1.59-.37,1.04-.65,1.85-1.16,2.65-1.66Z"/>
      <path class="cls-9" d="M73.49,24.5c.03.6.05,1.19.08,1.79-.14.46-.27.92-.44,1.46-.61.11-1.25.22-1.9.33-1.27-5.25-3.17-10.24-6.12-14.59,1.85-.67,3.64-1.31,5.61-2.02,1.2,3.68,2.17,7.77,2.62,11.99.05.35.1.69.15,1.04Z"/>
      <path class="cls-8" d="M6.07,89.82c.09,1.5.26,3,.27,4.5.03,7.86.01,15.72.01,23.57,0,.97,0,1.94,0,2.91-.25-1.43-.5-2.86-.75-4.29-.06-.42-.13-.84-.19-1.26-.01-.17-.03-.34-.04-.52.75-.75.7-1.11-.2-1.52-.01-.17-.02-.33-.04-.5.16-.21.44-.4.46-.62.12-1.37.29-2.74.26-4.11-.12-4.5-.32-9-.49-13.5.25-1.56.49-3.12.74-4.68Z"/>
      <path class="cls-5" d="M71.23,28.08c.65-.11,1.29-.23,1.9-.33.16-.55.3-1.01.44-1.46-.05,3.52-.08,7.04-.15,10.56-.02.85-.2,1.71-.58,2.54-.54-3.77-1.07-7.54-1.61-11.31Z"/>
      <path class="cls-5" d="M76.06,40.42c1.01.47,2.05.95,3.09,1.44-2.67-.02-4.32,1.4-5.62,3.89-1.4-2.62-3.24-4.03-6.21-3.14.01-.13.03-.26.04-.38.67-.39,1.31-.82,2.01-1.13.21-.1.63.03.84.19,2.5,1.91,3.91,1.73,5.85-.87Z"/>
      <path class="cls-12" d="M5.33,94.5c.17,4.5.37,9,.49,13.5.04,1.37-.13,2.74-.26,4.11-.02.22-.3.41-.46.62-.13-2.68-.41-5.37-.36-8.05.06-3.39.38-6.78.58-10.17Z"/>
      <path class="cls-5" d="M63.84,10.54c1.24-1.58,2.67-2.4,4.45-2.53.35-.03.84.37,1.04.71.09.15-.29.75-.59.95-1.42.95-3.03,1.05-4.91.88Z"/>
      <path class="cls-5" d="M79.59,19.39c.37.2.73.4,1.1.6-.71.54-1.42,1.07-2.12,1.61-.08-.06-.15-.12-.23-.18.42-.68.83-1.35,1.25-2.03Z"/>
      <path class="cls-12" d="M5.15,113.22c.9.41.95.78.2,1.52-.07-.51-.14-1.02-.2-1.52Z"/>
      <path class="cls-10" d="M154.05,104.9c0,.58,0,1.16.01,1.73,0-.58,0-1.16-.01-1.73Z"/>
      <path class="cls-14" d="M59.93,34.03c.42-.05.84-.11,1.27-.16-.42.05-.84.11-1.27.16Z"/>
      <path class="cls-12" d="M5.39,115.26c.06.42.13.84.19,1.26-.06-.42-.13-.84-.19-1.26Z"/>
      <path class="cls-5" d="M73.49,24.5c-.05-.35-.1-.69-.15-1.04.05.35.1.69.15,1.04Z"/>
      <path class="cls-6" d="M85.49,29.55c-.26-.04-.51-.08-.77-.12.26.04.51.08.77.12Z"/>
      <path class="cls-6" d="M92.21,33.89c.27.05.54.1.81.15-.27-.05-.54-.1-.81-.15Z"/>
      <path class="cls-6" d="M101.6,35.9c.17.06.35.12.52.19-.17-.06-.35-.12-.52-.19Z"/>
      <path class="cls-6" d="M97.32,28.89c-.19.05-.38.09-.57.14.19-.05.38-.09.57-.14Z"/>
      <path class="cls-6" d="M90.16,33.64c.19.04.39.08.58.12-.19-.04-.39-.08-.58-.12Z"/>
      <path class="cls-6" d="M88.13,33.39c.19.04.39.07.58.11-.19-.04-.39-.07-.58-.11Z"/>
      <path class="cls-6" d="M85.68,33.11c.16.03.33.06.49.09-.16-.03-.33-.06-.49-.09Z"/>
      <path class="cls-6" d="M99.59,28.38c-.17.06-.34.11-.51.17.17-.06.34-.11.51-.17Z"/>
      <path class="cls-6" d="M98.32,28.69c-.1.03-.19.06-.29.1.1-.03.19-.06.29-.1Z"/>
      <path class="cls-6" d="M100.35,28.17c-.09.04-.18.08-.27.12.09-.04.18-.08.27-.12Z"/>
      <path class="cls-6" d="M95.54,29.18c-.09.03-.19.06-.28.1.09-.03.19-.06.28-.1Z"/>
      <path class="cls-14" d="M142.58,142.82c-.05.07-.11.14-.16.21.05-.07.11-.14.16-.21Z"/>
      <path class="cls-14" d="M139.05,147.4c-.06.07-.12.14-.19.21.06-.07.12-.14.19-.21Z"/>
      <path class="cls-14" d="M138.8,147.69c0,.08-.05.12-.12.14,0,0,.02-.11.02-.11l.1-.03Z"/>
      <path class="cls-10" d="M151.02,84.42c.04.11.07.21.11.32-.04-.11-.07-.21-.11-.32Z"/>
      <path class="cls-14" d="M65.88,22.49c-.09-.03-.14-.08-.14-.17.05.06.1.12.14.17Z"/>
      <path class="cls-10" d="M60.1,11.62c-.03-.06-.06-.11-.08-.17,0-.01.05-.05.08-.07,0,.08,0,.16,0,.24Z"/>
      <path class="cls-6" d="M93.99,34.14c.09.03.19.05.28.08-.09-.03-.19-.05-.28-.08Z"/>
      <path class="cls-6" d="M107.71,37.9c.08,0,.14.03.2.08-.07-.03-.13-.05-.2-.08Z"/>
      <path class="cls-4" d="M48.05,36.55c.1-.05.2-.09.3-.14-.1.05-.2.09-.3.14Z"/>
      <path class="cls-7" d="M34.65,63.43c-1.33.24-2.25-.56-2.87-1.58-.84-1.38-.44-2.89.44-4.03,1.3-1.67,2.77-3.25,4.37-4.63,1.18-1.02,2.64-1.8,4.08-2.43.92-.4,2.1-.6,3.05-.38.81.19,1.7.96,2.11,1.72.49.91.46,2.1-.4,2.93-.94.9-2.02,1.64-2.97,2.51-1.61,1.47-3.17,3-4.77,4.49-.83.78-1.69,1.55-3.03,1.39Z"/>
      <path class="cls-7" d="M33.1,68.69c.27,2.56.31,5.07-1.1,7.41-1.2,1.99-3.84,3.35-6.08,2.97-1.93-.33-3.62-2.27-3.63-4.26,0-2.32.94-4.31,2.31-6.13.65-.24,1.44-.32,1.93-.74.93-.81,1.69-1.81,2.52-2.74,1.48-.14,2.19.71,2.57,2-.81.85-1.64,1.68-2.41,2.56-.57.66-1.34,1.51-.43,2.29,1,.85,1.67-.17,2.27-.83.72-.81,1.37-1.68,2.05-2.53Z"/>
      <path class="cls-2" d="M24.87,137.36c.2.19.6.45.83.81.74,1.17,1.43,2.37,2.14,3.56.4.66.45,1.42-.26,1.74-.41.18-1.35-.01-1.59-.36-.9-1.3-1.68-2.7-2.36-4.14-.38-.81.25-1.64,1.24-1.61Z"/>
      <path class="cls-2" d="M133.73,93.54c1.42.3,1.75.81,1.13,2.07-.66,1.35-1.47,2.62-2.21,3.93-1.63.14-2.22-.64-1.44-2.06.75-1.36,1.67-2.63,2.52-3.93Z"/>
      <path class="cls-2" d="M29.05,65.2c-.83.92-1.59,1.93-2.52,2.74-.49.42-1.28.5-1.93.74-.09-.14-.22-.26-.28-.42-.41-1.2,2.43-4.95,3.7-4.82,1.06.11,1.23.85,1.03,1.76Z"/>
      <path class="cls-2" d="M33.1,68.69c-.68.85-1.33,1.72-2.05,2.53-.6.67-1.27,1.69-2.27.83-.92-.78-.14-1.63.43-2.29.76-.89,1.6-1.71,2.41-2.56,1.09-.1,1.54.44,1.49,1.49Z"/>
      <path class="cls-2" d="M33.72,141.01c-.4.45-.65.97-1.03,1.09-.31.1-.95-.14-1.14-.43-.6-.89-1.15-1.85-1.53-2.85-.14-.37.12-1.09.45-1.38.24-.21,1.12-.14,1.29.11.72,1.05,1.28,2.21,1.96,3.46Z"/>
      <path class="cls-2" d="M114.7,147.33c-.24-.18-.71-.37-.82-.69-.13-.37-.11-1.06.13-1.26,1.54-1.3,3.13-2.54,4.77-3.71.23-.16.95.04,1.19.3.24.26.37,1.05.2,1.21-1.6,1.41-3.28,2.73-4.95,4.06-.09.07-.24.05-.52.1Z"/>
      <path class="cls-2" d="M122.43,148.2c-.09.14-.2.49-.43.69-1.1.9-2.22,1.79-3.36,2.63-.6.44-1.4.53-1.74-.19-.2-.41-.01-1.3.33-1.62,1.04-.96,2.19-1.82,3.38-2.59.86-.56,1.81-.02,1.82,1.09Z"/>
      <path class="cls-2" d="M138,96.78c.9-.01,1.54.73,1.23,1.46-.47,1.11-1.06,2.2-1.74,3.2-.2.29-.96.47-1.3.32-.33-.15-.73-.9-.61-1.18.49-1.19,1.14-2.32,1.79-3.45.12-.21.49-.28.63-.35Z"/>
    </g>
  </g>
</svg>