<?xml version="1.0" encoding="UTF-8"?>
<svg id="Layer_2" data-name="Layer 2" xmlns="http://www.w3.org/2000/svg" viewBox="0 0 165.71 161.04">
  <defs>
    <style>
      .cls-1 {
        fill: #cb8247;
      }

      .cls-1, .cls-2, .cls-3, .cls-4 {
        stroke-width: 0px;
      }

      .cls-2 {
        fill: #ecc386;
      }

      .cls-3 {
        fill: #c29269;
      }

      .cls-4 {
        fill: #372a23;
      }
    </style>
  </defs>
  <g id="Layer_1-2" data-name="Layer 1">
    <g>
      <path class="cls-4" d="M65.56,161.03c-26.28.35-46.61-9.69-59.07-33.43-10.04-19.12-8.33-37.41,4.49-54.72,4.59-6.2,10.04-11.58,16.33-16,11.72-8.23,21.5-18.07,28.87-30.54C68,6.39,87.42.83,108.99.05c17.17-.62,32.22,4.35,43.71,17.62,15.67,18.1,17.45,46.54,3.89,67.48-7.06,10.9-13.44,22.14-19.55,33.56-15.29,28.58-39.68,41.77-71.48,42.31ZM149.71,21.27c-5.24-7.67-13.05-11.52-21.46-14.53-13.05-4.67-25.93-2.75-39.61.58q16.23,7.18,16.47,10.58c-1.96-1.14-3.78-2.28-5.67-3.26-13.29-6.93-22.54-5.38-32.84,5.4-2.77,2.9-5.28,5.99-7.33,9.43-6.97,11.74-15.62,21.8-27.23,29.31-5.43,3.51-10.17,8.06-14.37,13.04C6.79,84.7.9,98.89,6.43,115.97c.19.28.38.55.57.83.08.35.16.7.25,1.06,5.79,16.6,16.59,28.61,33.12,34.85,11.41,4.31,23.39,4.41,35.41,3.16,19.99-2.08,36.91-10.42,48.99-26.46,12.38-16.44,21.52-35.08,31.35-53.06,10.29-18.84,6.21-37.91-6.4-55.07Z"/>
      <path class="cls-3" d="M6.43,115.97c-5.53-17.07.36-31.26,11.24-44.14,4.2-4.98,8.94-9.53,14.37-13.04,11.61-7.51,20.26-17.57,27.23-29.31,2.04-3.44,4.56-6.54,7.33-9.43,10.3-10.78,19.55-12.33,32.84-5.4,1.89.99,3.7,2.13,5.67,3.26q-.23-3.4-16.47-10.58c13.68-3.32,26.56-5.25,39.61-.58,8.4,3.01,16.22,6.86,21.46,14.53.82,7.36,4.21,14.05,4.36,21.76.21,11.18-2.65,20.71-9.91,29.07-5.43,6.25-10.59,12.64-14.18,20.24-3.11,6.58-5.66,13.56-10.21,19.29-3.35,4.22-5.42,10.08-11.77,11.27-6.22-2.59-11.23-6.87-15.89-11.7,1.49,7.8,7.48,10.98,13.68,13.95-.33.37-.58.86-.99,1.11-19.2,11.63-39.76,17.47-62.23,13.41-11.22-2.02-21.65-6.08-29.19-15.57-1.75-2.21-2.92-5.34-6.14-6.24-.08-.35-.16-.7-.25-1.05-.19-.28-.38-.55-.57-.83ZM19.99,85.65c-.88.43-2.95,1.39-1.18,1.91,5.78,1.7,10.64,5.09,15.89,7.88-2.04-5.72-7.5-6.9-11.82-9.53.2-.8.34-1.61.6-2.38.46-1.35.56-2.62-.61-3.65-.84-.74-1.82-.83-2.73-.16-1.23.92-1.24,2.3-1,3.63.14.8.56,1.54.86,2.31ZM28.22,75.71c.44-.09.82-.07,1.07-.24,5.5-3.62,11.15-7.07,15.93-11.66.78-.75,1.62-2,1-3.11-.67-1.18-2.05-1.58-3.46-1.55-3.68.07-16.16,9.38-17.12,12.71-.72,2.47.9,3.18,2.58,3.84ZM82.83,22.12c-.14-3.26-2.13-3.91-4.46-3.78-3.22.17-9.7,6.11-10.28,9.28-.24,1.33-.29,2.7.94,3.63,1.29.97,2.61.46,3.68-.34,3.04-2.28,6.03-4.63,8.97-7.04.58-.48.87-1.31,1.15-1.75ZM100.15,74.79c10.04,4.38,18.35,10.83,24.52,21.31.44-9.85-14.76-22.47-24.52-21.31ZM69.12,83.39c-2.14-7.17-10.04-13.45-15.89-12.68,6.07,3.89,11.28,7.91,15.89,12.68ZM129.23,35.74c1.79,5.34,6.38,7.55,10.7,10.06.68.4,1.33.1,1.64-.52.34-.68-.06-1.31-.67-1.63-4.17-2.21-7.44-5.7-11.67-7.91ZM29.89,130.55c-.54-1.55-.74-2.74-1.34-3.67-.83-1.28-.23-4.52-2.65-3.49-1.89.8-.25,3.23.48,4.76.56,1.2,1.24,2.66,3.52,2.39ZM63.34,36.53c-1.37-.08-2.14.62-2.29,1.93-.15,1.28.28,2.28,1.75,2.36,1.47.08,2.62-.52,2.73-2.09.1-1.4-1.07-1.84-2.2-2.2ZM144.89,43.83l-.29.2.31.15-.02-.35Z"/>
      <path class="cls-1" d="M108,122.89c6.35-1.19,8.42-7.05,11.77-11.27,4.54-5.72,7.1-12.71,10.21-19.29,3.59-7.59,8.76-13.99,14.18-20.24,7.26-8.36,10.12-17.89,9.91-29.07-.15-7.71-3.54-14.4-4.36-21.76,12.61,17.16,16.69,36.23,6.4,55.07-9.83,17.99-18.97,36.62-31.35,53.06-12.08,16.04-29,24.38-48.99,26.46-12.02,1.25-24,1.15-35.41-3.16-16.53-6.24-27.33-18.25-33.12-34.85,3.22.9,4.39,4.03,6.14,6.24,7.54,9.49,17.97,13.54,29.19,15.57,22.47,4.05,43.03-1.78,62.23-13.41.4-.24.66-.73.99-1.11,1.35-.14,2.26-.72,2.21-2.25Z"/>
      <path class="cls-1" d="M6.43,115.97c.19.28.38.55.57.83-.19-.28-.38-.55-.57-.83Z"/>
      <path class="cls-2" d="M28.22,75.71c-1.68-.66-3.3-1.37-2.58-3.84.97-3.33,13.44-12.64,17.12-12.71,1.4-.03,2.79.37,3.46,1.55.63,1.11-.22,2.37-1,3.11-4.78,4.59-10.42,8.03-15.93,11.66-.25.17-.63.14-1.07.24Z"/>
      <path class="cls-2" d="M82.83,22.12c-.28.44-.57,1.27-1.15,1.75-2.94,2.41-5.92,4.76-8.97,7.04-1.07.8-2.39,1.31-3.68.34-1.24-.93-1.19-2.31-.94-3.63.58-3.17,7.06-9.11,10.28-9.28,2.33-.12,4.32.52,4.46,3.78Z"/>
      <path class="cls-4" d="M100.15,74.79c9.77-1.16,24.96,11.46,24.52,21.31-6.17-10.48-14.48-16.93-24.52-21.31Z"/>
      <path class="cls-4" d="M108,122.89c.06,1.53-.85,2.11-2.21,2.25-6.2-2.98-12.2-6.15-13.68-13.95,4.66,4.84,9.67,9.11,15.89,11.7Z"/>
      <path class="cls-4" d="M69.12,83.39c-4.61-4.77-9.82-8.8-15.89-12.68,5.85-.76,13.75,5.51,15.89,12.68Z"/>
      <path class="cls-4" d="M22.87,85.91c4.33,2.63,9.79,3.81,11.82,9.53-5.24-2.79-10.1-6.17-15.89-7.88-1.77-.52.3-1.48,1.18-1.91.96.09,1.92.17,2.88.26Z"/>
      <path class="cls-4" d="M129.23,35.74c4.24,2.21,7.5,5.7,11.67,7.91.61.32,1.01.95.67,1.63-.31.62-.96.91-1.64.52-4.32-2.51-8.91-4.72-10.7-10.06Z"/>
      <path class="cls-2" d="M22.87,85.91c-.96-.09-1.92-.17-2.88-.26-.3-.77-.72-1.51-.86-2.31-.24-1.33-.23-2.7,1-3.63.9-.67,1.89-.58,2.73.16,1.17,1.03,1.07,2.31.61,3.65-.26.77-.41,1.59-.6,2.38Z"/>
      <path class="cls-4" d="M29.89,130.55c-2.28.26-2.95-1.2-3.52-2.39-.72-1.53-2.36-3.96-.48-4.76,2.42-1.03,1.82,2.21,2.65,3.49.6.93.8,2.12,1.34,3.67Z"/>
      <path class="cls-2" d="M63.35,36.53c1.12.36,2.29.8,2.19,2.2-.11,1.57-1.26,2.18-2.73,2.09-1.47-.08-1.9-1.08-1.75-2.36.15-1.31.92-2.01,2.29-1.93Z"/>
      <polygon class="cls-4" points="144.89 43.83 144.91 44.18 144.6 44.03 144.89 43.83"/>
    </g>
  </g>
</svg>