<?xml version="1.0" encoding="UTF-8"?>
<svg id="Layer_2" data-name="Layer 2" xmlns="http://www.w3.org/2000/svg" viewBox="0 0 2012.1 284.64">
  <defs>
    <style>
      .cls-1 {
        fill: #835d3b;
      }

      .cls-1, .cls-2, .cls-3, .cls-4, .cls-5, .cls-6, .cls-7, .cls-8, .cls-9, .cls-10, .cls-11, .cls-12 {
        stroke-width: 0px;
      }

      .cls-2 {
        fill: #64452c;
      }

      .cls-3 {
        fill: #6f4e31;
      }

      .cls-4 {
        fill: #765436;
      }

      .cls-5 {
        fill: #5b422b;
      }

      .cls-6 {
        fill: #6b492c;
      }

      .cls-7 {
        fill: #1c1816;
      }

      .cls-8 {
        fill: #68482c;
      }

      .cls-9 {
        fill: #825c3a;
      }

      .cls-10 {
        fill: #593b23;
      }

      .cls-11 {
        fill: #87613e;
      }

      .cls-12 {
        fill: #805b3a;
      }
    </style>
  </defs>
  <g id="Layer_1-2" data-name="Layer 1">
    <g>
      <path class="cls-7" d="M1678.75,146.13c-186.37-.05-372.74-.08-559.11-.1-3.47,0-6.95.23-10.42.35M776.1,146.38c-3.47-.11-6.95-.33-10.42-.33-112.23,0-224.46,0-336.68.03-5.41,0-10.81.07-16.22.15-6.61.1-13.23.07-19.83-.17-2.13-.08-4.26-.07-6.39.02-2.61.11-5.23.16-7.84.02-.6-.03-1.21-.04-1.81-.03-3.21.07-6.42.12-9.63,0-3.51-.13-7.02-.15-10.54-.04-4.57.14-9.13.25-13.7.13-15.93-.41-31.85-.37-47.78.18-8.09-1-11.59-.43-11.47,4.42.83,33.78.81,67.57,1.23,101.35.03,2.38-2.17,4.11-4.88,5.86-11.81,7.65-23.68,15.28-35.38,22.98-3.47,2.28-7.15,3.67-13.76,3.63-28.11-.19-56.23-.17-84.34-.05-7.7.04-11.33-1.43-13.23-4.9-20.75-37.92-41.72-75.82-62.61-113.72-2.83-5.13-5.72-10.26-8.17-15.44-1.43-3.03-4.23-4.41-11.38-4.24-12.97.3-26,.02-39,.12-11.47.09-14.15-3.08-10.5-11.2,4.74-10.52,4.57-22.54-.29-33.01-2.37-5.09-2.24-7.63,2.96-10.17C63.8,62.93,123.14,33.85,182.19,4.65,189.03,1.26,195.88.05,205.93.06c337.72.21,675.45.27,1013.17.26C1416.61.31,1614.11.15,1811.61,0c5.72,0,9.93.78,13.91,2.73,59.08,28.96,118.22,57.9,177.52,86.76,6.23,3.03,9.25,6.12,9.04,10.5-.62,12.97-.14,25.96-.17,38.94-.01,7.02-.08,7.02-14.44,7.03-11.25,0-22.53.3-33.72-.05-8.91-.28-12.78,1.05-15.04,5.32-15.12,28.5-30.91,56.92-46.43,85.37-7.71,14.15-15.53,28.28-22.81,42.48-1.97,3.85-5.39,5.55-14.25,5.48-27.05-.21-54.12-.15-81.17.07-7.49.06-12.57-1.06-16.86-3.89-11.45-7.57-23.07-15.08-34.97-22.49-3.86-2.4-5.26-4.84-5.19-7.81.72-31.45,1.23-62.91,1.77-94.36.03-1.82-.21-3.64-.33-5.47,2.05-3.44-.57-4.8-8.13-4.45-6.14.29-12.35.21-18.53.29M430.26,97.72c-10.08-.13-20.19-.07-30.23-.44-7.57-.28-15.06-1.21-22.49.29-21.58-.22-43.16-.46-64.74-.63-3.76-.03-7.73-.42-11.21.71-11.93.33-23.81-1.11-35.76-.28-39.41-.86-78.82-.63-118.23-.17-2.23,0-4.45,0-6.68,0l-5.78-.25h-.02c-4.35.01-8.7.02-13.06.03-2.61,0-5.22,0-7.83.01-1.61,0-3.22,0-4.84,0-11.04,0-22.08,0-33.13,0-2.31,0-4.63,0-6.94,0-1.91,0-3.82-.01-5.73-.02-1.6,0-3.2,0-4.8,0-3.39.06-6.78.12-10.18.19-1.73-.1-3.46-.32-5.18-.29-36.93.66-30.52-3.74-30.48,14.75,0,1.04.01,2.08.02,3.12-.03,4.62-.07,9.24-.1,13.86.02,1.04.05,2.08.07,3.12-.09,1.49-.04,2.99-.31,4.48-.57,3.11,1.7,4.37,8.89,4.33,71.56-.41,143.15.62,214.7-.79,20.39,1.12,40.77.95,61.15-.03,16.71,1.44,33.54.55,50.33.61.89,0,1.79,0,2.68,0,8.34-.06,16.68-.11,25.02-.17,4.55.11,9.09.32,13.64.32,141.57.02,283.13.03,424.7.03,14.02,0,28.04-.13,42.06-.19,2.35,0,4.7.01,7.04.02,2.11.04,4.21.13,6.32.13,192.9.02,385.79.04,578.69.01,4.52,0,9.05-.44,13.57-.67,1.41-.01,2.82-.02,4.23-.03,3.53.04,7.07.07,10.6.11,4.86,1.31,9.99.69,15.06.47,8.41.05,16.83.15,25.24.13,96.05-.22,192.1.2,288.16-.45,38.83-.26,77.78.38,116.68.37,5.57,0,11.14-.45,16.71-.68,2.78-.02,5.57-.05,8.35-.07,14.81.28,29.63.53,44.44.87,5.92.13,9.52-.64,8.26-3.86-.05-6.31-.11-12.62-.16-18.94,0-.7,0-1.41,0-2.11.1-4.32-.35-8.67.45-12.97.86-4.57-2.49-5.94-12.27-5.89-69.16.37-138.33.2-207.51.58-118.01.65-236.03.32-354.05.43-7.02,0-14.03.18-21.05.27-7.81-.04-15.61-.09-23.42-.13-3.51-.04-7.02-.13-10.53-.13-111.01,0-222.03-.02-333.04.01-54.1.01-108.19.12-162.29.18-23.96.01-47.93.02-71.89.04-1.34,0-2.67,0-4.01,0-2.88,0-5.77,0-8.65,0-2.04,0-4.07,0-6.11,0-2.18,0-4.37,0-6.55,0-20.37-.06-40.74-.17-61.11-.17-86.42-.02-172.83,0-259.25,0-9.15-.04-18.3-.07-27.45-.11ZM358.33,6.1c-6.41-.17-12.82-.49-19.19.15-3.15-.08-6.3-.24-9.44-.22-37.5.25-75.02.04-112.53.27-15.55.09-27.18,1.14-34.81,7.24l-4.68,2.64c-10.34,4.06-19.19,8.81-28.02,13.57-2.09,1-4.18,2-6.27,3-14.9,7.34-29.81,14.67-44.71,22.01l-8.27,3.68c-12.22,4.92-21.66,11.12-33.1,16.4-2.27,1.27-4.54,2.54-6.82,3.81-10.12,3.82-18.94,8.2-27.07,13.88,137.19,0,272.96,0,408.74,0,1.54,0,3.08-.02,4.61-.03,68.83-.2,137.65.11,206.49-.47,64.59-.54,129.22.24,193.84.4,6.65.02,13.33-.48,19.95-.33,30.54.67,61.08.38,91.62.2,3.05.43,6.11.42,9.18.04,9.1-.17,18.2-.51,27.3-.49,206.54.41,413.09-.44,619.63.61,124.72.63,249.47.21,374.2.24,3.29,0,6.83.4,11.14-.86-27.49-12.58-51.59-26.22-79.28-38.21-2.42-1.38-3.9-3.18-7.74-3.94-27.8-13.58-55.63-27.14-83.37-40.74-3.39-1.66-7.07-2.4-12.06-2.41-34.03-.1-68.05-.52-102.08-.48-35.43.04-70.87.29-106.29.39-141.46.38-282.93.17-424.39.19-10.49,0-20.95-1.23-31.47-.18-2.35-.61-4.61-.7-6.7.25-49.94-1.05-99.87-1.11-149.81-.02-5.61-1.26-11.22-1.27-16.83,0-59.08-.02-118.15-.05-177.23-.07-5.63-1.19-11.23-1.19-16.81.08-25.31.02-50.63.04-75.94.07-1.34-.84-2.73-.88-4.17-.06-28.04-.03-56.09-.27-84.12-.05-80.92.61-161.85-1.28-242.77.17-3.21-1.48-7.04-.9-10.75-.73ZM1887.42,146.61c-9.76-.03-19.54.02-29.29-.13-5.32-.08-8.2.65-9.44,3.34-5.17,11.27-10.78,22.5-16.22,33.74-15.77,30.61-31.48,61.22-47.37,91.82-1.75,3.36,2.66,3.13,6.97,3.13,20.7-.02,41.41-.32,62.08,0,9.92.15,14.49-1.39,14.3-6.04,5.28-6.44,8.23-13.16,10.9-19.92,4.15-4.55,3.35-9.7,6.72-14.22,13.56-18.2,22.29-36.97,31.11-55.74,2.3-1.5,3.22-3.23,3.7-5.03,4.93-8.83,9.72-17.67,14.87-26.47,1.93-3.29,1.06-4.85-7.31-4.65-12.96.3-25.98.12-38.97.15-.69-.02-1.37-.01-2.06.02ZM172.66,171.66c-3.45-7.59-6.97-15.18-10.31-22.78-.79-1.81-3.04-2.42-7.06-2.24-24.39,1.1-48.81,1.1-73.2-.05-6.06-.28-9.01.4-7.36,3.03,6.87,10.94,10.88,22.26,19.25,33,.76,1.79,1.36,3.6,2.32,5.36,13.83,25.38,27.8,50.75,41.54,76.15,7.89,14.58,7.72,14.6,39.25,14.26,1.47,0,2.94-.02,4.41-.03,7.69.02,15.37.05,23.06.07,1.42,0,2.85,0,4.27,0,1.75.03,3.51.11,5.25.08,13.92-.22,14.48,1.29,10.51-6.38-6.75-13.04-13.45-26.09-20.19-39.13-10.57-20.44-21.16-40.89-31.75-61.33ZM1772.76,273.89c5.14-6.54,7.19-12.77,10.27-18.89,17.37-34.53,35.07-69.03,53.19-103.47,2.21-4.2.64-5.08-8.1-5.04-26.67.14-53.37.17-80.01-.32-7.33-.13-8.21.8-8.2,3.66.07,33.25-.01,66.51-.08,99.76,0,1.85-.22,3.82,2.56,5.23,11.3,5.7,18.89,12.74,30.36,19.07ZM239.05,274.14c11.49-7.53,20.72-13.97,31.56-19.83,2.24-1.21,1.44-2.87,1.44-4.34-.03-32.95-.19-65.9-.01-98.85.02-3.48-2.19-4.66-9.59-4.61-24.94.15-49.89.02-74.84.02-15.44,0-15.28,0-11.63,6.96,16.23,30.94,32.36,61.89,48.53,92.83,4.61,8.83,9.23,17.65,14.55,27.82Z"/>
      <path class="cls-11" d="M1143.46,6.47c10.51-1.06,20.98.17,31.47.16,141.46-.01,282.93.2,424.39-.19,35.42-.1,70.86-.35,106.29-.39,34.02-.04,68.05.38,102.08.48,4.99.02,8.67.75,12.06,2.41,27.74,13.6,55.57,27.17,83.36,40.74-26.64-1.82-52.46-5.92-79.52-6.47-21.69-.44-43.32-2.01-65.08-1.32-37,1.18-73.98,2.49-110.94,3.9-18.12.69-36.2,1.62-54.25,2.61-24.66,1.36-49.33,2.72-73.89,4.4-20.4,1.39-41.08,2.31-60.42,6.1-4.69.92-9.55,1.83-9.93,5.15,23.41-5.25,47.74-6.81,71.96-8.25,32.61-1.94,65.25-3.76,97.94-5.4,37.58-1.88,75.23-3.34,112.89-4.5,25.77-.79,51.73-.32,77.6-.09,10.79.09,21.65.74,32.3,1.62,23.09,1.9,46.06,4.11,69.08,6.19,27.69,11.99,51.78,25.63,79.28,38.21-4.32,1.26-7.85.86-11.14.86-124.73-.03-249.48.39-374.2-.24-206.55-1.05-413.09-.2-619.63-.61-9.1-.02-18.2.32-27.31.49.32-1.24,2.32-1.37,4.4-1.72,55.69-9.39,113.39-13.3,172.19-13.88,41.03-.4,81.99.32,122.97,1.78,32.12,1.14,64.22,2.48,96.05,4.56,39.95,2.6,79.9,4.37,120.18,4.64,6.32.04,12.71-.15,18.95.22,32.28,1.95,64.4-.49,96.58-.83,11.86-.12,23.97.33,35.69-.61,37.61-3.02,75.74-4.03,113.4-6.83,28.01-2.08,56.15-3.97,82.72-9.01,5.66-1.07,11.23-2.8,11.17-5.96-.07-3.61-7.22-4.97-12.96-5.68-23.58-2.95-48.03-2.8-72.02-2.68-33.55.16-67.15,1.16-100.7,2.14-29.7.87-59.45,1.18-88.93,3.29-7.29.52-14.48,1.31-21.23,2.77-2.63.57-5.14,1.32-4.74,2.93.41,1.61,3.12,2.03,6.03,2.3,2.06.19,4.04.6,6.11.74,35.48,2.43,70.52,1.06,105.29-2.75,4.09-.45,8.3-1.35,7.98-3.33-.57-3.49,4.75-3.49,8.69-3.51,11.95-.07,23.77-.97,35.64-1.09,26.35-.27,52.72-.3,79.07,0,13.24.15,26.51.98,39.36,2.74,2.34.32,5.04.55,5.54,1.95.49,1.38-1.77,2.15-3.82,2.73-2.38.67-5.04,1.17-7.69,1.59-26.4,4.15-53.8,6.16-81.21,7.78-31.91,1.89-63.74,4.08-95.82,5.45-31.7,1.36-63.41,3.09-95.17,3.44-48.69.54-97.31-.89-145.74-3.67-29.85-1.71-59.89-2.69-89.76-4.34-33.74-1.86-67.56-3.37-101.47-3.65-43.46-.36-86.95-.78-130.34,1.76-34.54,2.02-68.69,4.69-101.45,10.31-8.51,1.46-18.29,2.42-24.13,6.38-30.54.18-61.08.47-91.62-.2-6.62-.15-13.3.35-19.95.33-64.62-.16-129.25-.94-193.84-.4-68.84.57-137.66.27-206.49.47-.57-1.04.53-2.91-1.88-2.96-4.01-.08-1.78,1.95-2.73,2.98H23.41c8.14-5.68,16.95-10.06,27.08-13.88,20.36.43,40.67-.8,60.94-.76,74.43.15,148.92-1.55,223.28.9,27.25.9,54.28,2.85,79.72,8.09,3.89.8,7.84,2.14,12.62,1.26-.13-.56.05-1-.32-1.18-1.23-.56-2.56-1.12-4.03-1.52-14.79-4.07-31.15-6.09-47.67-7.6-44.99-4.11-90.74-3.2-136.19-3.94-25.88-.42-51.84-.29-77.84.58-27.63.93-55.5.41-83.25.17-6.86-.06-13.62,1.51-20.45.18,12.11-5.58,21.97-12.19,35.25-17.24,27.27.75,54.56,1.21,81.83,1.97,49.98,1.39,99.99,2.51,149.97,4,37.42,1.11,74.66,2.79,111.67,5.4,59.66,4.22,119.44,7.13,179.88,6.87,37.19-.16,74.41.07,111.3-2.37,53.34-3.52,105.82-9.48,159.58-12.04,49.15-2.35,98.19-4.71,147.66-4.77,26.82-.04,52.83-2.6,78.01-7.1,22.64-4.04,45.2-8.26,68.27-11.69,40.27-6,81.94-8.46,123.89-10.2,46.76-1.94,93.54-3.39,140.47-3.92,16.11-.18,32.23-.49,48.29-1.06,11.49-.4,22.93-1.25,34.34-2.07,3.66-.26,8.33-.64,8.56-2.94.17-1.67-3.19-2.46-6.36-2.87-5.41-.7-10.79-1.6-16.31-1.92-49.65-2.84-99.29-5.23-149.51-4.24-34.65.68-69.2,1.72-103.78,2.93-47.25,1.66-92.84,6.71-137.46,13.67-57.93,9.04-117.24,14.36-177.87,16.37-33.53,1.11-67.26.76-100.8,2.14-24.74,1.02-49.55,1.82-74.18,3.28-40.36,2.39-80.49,2.27-119.78-2.81-36.87-4.76-74.02-7.25-112.2-6.53-5.7.11-11.12.63-16.58,1.21-2.89.3-5.32,1.16-5.87,2.56-.6,1.57,2.31,2.26,4.53,3.06,3.62,1.31,11.29,1.58,9.4,4.33-1.33,1.93-8.23.9-12.59.88-69.11-.33-138.3,1.22-207.3-1.86-2.57-.12-6.57-.56-6.99,1.22-.48,2,3.67,1.53,6.2,1.63,18.13.69,36.27,1.82,54.42,1.91,52.71.27,105.43.11,158.15.13,4.25,0,8.35-.19,12.41-.88,6.44-1.09,7.56-2.72,2.89-5.15-3.66-1.9-7.74-3.58-14.16-5.18,3.19-.42,4.42-.69,5.68-.72,40.56-.96,80.53.59,119.65,6.12,39.33,5.56,79.6,5.06,119.83,3.51,33.1-1.27,66.03-3.78,99.16-4.51,37.78-.83,75.55-1.29,113.24-3.06,35.34-1.66,69.93-4.89,104.04-9.34,36.48-4.76,72.33-10.57,109.42-14.31,48.48-4.88,97.8-6.31,147.03-7.22,36.74-.68,73.67-1.08,110.5.67,23.75,1.13,47.45,2.21,72.81,4.66-13.81,1.87-26.16,2.11-38.21,2.29-31.17.45-62.29,1.23-93.43,2.01-42.64,1.07-85.15,2.41-127.58,4.93-42.7,2.54-84.22,6.8-123.93,14.7-31.86,6.33-64.45,12.05-99.16,12.22-49.49.24-98.72,1.61-147.79,4.31-30.2,1.66-60.51,3.31-90.3,6.08-42.64,3.97-85.35,7.86-128.72,8.61-60.64,1.04-121.35.59-181.75-2.88-55.18-3.17-110.01-7.52-165.65-9.19-44.01-1.32-88.13-1.65-132.1-3.53-32.06-1.37-64.43-.79-96.56-2.16,14.9-7.34,29.81-14.67,44.71-22.01,13.35,1.55,27.11,1.71,40.63,1.87,47.66.56,95.28-.32,142.88-1.72,36.33-1.07,72.48-2.93,108.43-5.37,55.64-3.78,111.6-4.1,167.57-4.66,4.83-.05,9.68.65,14.55.83,3.09.12,7.2.24,7.63-1.69.45-2.07-3.63-2.06-6.78-2.14-2.45-.06-4.92.02-7.37-.04-27.38-.64-54.64,1-81.98.93-36.51-.1-72.66,2.1-108.65,4.38-37.09,2.35-74.23,4.76-111.52,5.39-42.73.72-85.51,2.05-128.31,1.19-10.34-.21-20.84-.3-30.81-1.98,8.54-4.6,17.1-9.19,27.01-13.16,27.14,1.42,54.28,2.2,81.46.14,17.89-1.35,35.97-2.27,53.63-4.09,15.59-1.61,31.85-1.74,46.81-4.72,3.54-.28,7.58.51,10.52-1.09,80.92-1.45,161.84.44,242.77-.17,28.03-.21,56.08.02,84.12.05-1.92,2.85-2.42,5.63,2.05,8.12,11.08,6.89,27.36,9.78,43.9,11.82,44.14,5.45,89.03,5.7,134.44,4.35,50.29-1.5,100.36-3.5,150.14-7.19,35.34-2.62,70.08-6.39,103.62-12.31,5.09-.9,11.67-1.73,13.34-5.03ZM1571.48,38.16c52.15-1.13,104.31-2.19,156.46-3.41,23.07-.54,46.16-1.16,69.15-2.17,10.71-.47,21.59-1.18,31.62-3.43,5.27-1.18,8.42-2.79,8.1-5.76-.3-2.8-3.91-4.21-8.72-5.06-32.11-5.68-65.96-5.48-99.46-6.45-2.67-.08-6.46-.06-6.34,1.73.1,1.61,3.72,1.1,5.96,1.19,17.78.69,35.58,1.28,53.35,2.01,13.61.56,27.11,1.56,40.36,3.16,4.05.49,8.34,1.24,8.33,3.82,0,2.29-3.88,2.94-7.42,3.7-8.54,1.83-17.97,1.82-26.84,2.08-42.64,1.29-85.22,3.09-128.01,3.26-18.21.07-36.47.4-54.58,1.23-27.37,1.27-54.72.71-82.06.44-30.81-.31-61.7-2.04-92.37-1.35-23.04.52-46.18.15-69.26,1.41-22.89,1.25-46.05,1.47-68.89,3.17-2.5.19-6.92-.5-6.67,1.37.25,1.9,4.64,1.74,7.71,1.51,13.84-1.04,27.77-1.54,41.74-2.01,41.52-1.42,82.95-2.54,124.69-2.09,34.37.37,68.71,1.66,103.15,1.64ZM1716.89,25.74c-2.33-2.25-5.54-2.79-8.99-2.87-29.66-.71-59.33-1.41-89-2.02-2.82-.06-7.76-.77-8.06,1.04-.38,2.26,4.73,1.69,7.97,1.9,22.56,1.41,45.38.49,67.99,1.86,9.88.6,20.05.1,30.09.1ZM1171.58,64.73c6.14,0,11.03.03,15.92-.01,2.04-.02,4.78.02,4.68-1.32-.08-1.12-2.52-1.54-4.7-1.54-5.22,0-10.44.16-15.66.19-8.79.04-17.91.92-25.29-2.47-2.63-1.21-5.3-.72-6.76.72-1.45,1.42.42,2.1,3.2,2.44,9.8,1.21,19.54,2.58,28.62,2Z"/>
      <path class="cls-9" d="M1461.42,139.79c-4.52.23-9.05.67-13.57.67-192.9.02-385.79,0-578.69-.01-2.11,0-4.21-.08-6.32-.12-.42-1.18-.97-2.23-3.98-2.61-7.78-.98-15.41-2.3-23.28-3.05-46.53-4.44-93.92-4.98-141.02-5.71-40.19-.63-80.53,1.46-120.82,1.6-52.64.19-105.29.42-157.96-.73-32.88-.72-65.8-1.13-98.69-2.02-51.06-1.38-102.19-2.43-153.32-3.03-50.45-.59-100.98-.85-150.89,3.83.03-4.62.07-9.24.1-13.86,23.53-2.66,47.43-3.76,71.59-4.09,49.51-.68,98.6,2.86,148.02,3.26,10.37.08,20.99.37,31.41.9,42.49,2.15,85.15,3.09,127.79,3.77,49.8.79,99.59-.21,149.27-1.99,22.63-.81,45.19-2.2,67.68-3.66,32.39-2.11,64.66-3.72,97.08-.13,30.33,3.36,60.58,6.95,91.16,9.69,34.68,3.11,69.65,5.43,104.73,7.48,42.44,2.48,84.91,4.4,127.61,4.58,49.43.21,98.84.42,148.27-1.68,36.26-1.54,72.45-2.98,108.24-6.15,22-1.95,43.95-4.03,65.92-6.06.16,1.78-.47,3.4-2.63,4.98-2.23,1.63-2.73,3.37,2.69,4.03,1.37,2.76,4.44,1.81,7.74.85,4.46-1.3,8.88-2.67,13.61-3.72,28.09-6.23,57.79-9.87,88.15-12.68,44.34-4.11,89.18-5.98,134.13-7.32,31.09-.92,62.28.21,93.49-.91,32.78-1.18,65.8.39,98.73-1.08,26.21-1.17,52.51.47,78.69,1.11,19.01.46,38.33,1.13,56.88,3.74-.65,3.5,5.7,3.11,9.73,3.64,4.33.57,8.02-.25,9.24-2.6,6.72,1.53,14.79.87,21.17,2.95-2.91,1.26-9.9,2.06-7.53,4,4.53,3.71,4.83,8.43,11.9,11.4,5.94,2.49,4.29,3.74-2.34,4.6-1.39-5-16.24-3.6-18.08-8.46-.02-.06-2.69-.07-3.87.17-10.41,2.13-15.06-.14-18.71-4.66-2.64-3.26-7.3-6.97-15.81-6.83-8.01.13-15.92-.19-23.85-.26-6.6-.06-8.84,1.29-8.31,4.16-4.56-.07-9.25.16-13.65-.27-35.86-3.49-72.15-4.14-108.6-3.87-1.21-2.45-5.28-2.82-9.62-2.9-4.26-.08-5.16,1.27-5.14,2.94-2.11.01-4.21.02-6.32.03-.07-1.55-.51-3.05-4.86-2.89-4.94.18-5.68,1.92-5.7,3.82-22.49,1.03-44.97,2.06-67.46,3.09.16-1.25,1.27-2.24,3.59-2.87,2.94-.8,5.24-1.84,4.43-3.58-.92-1.97-4.7-2.32-8.1-2.69-19.54-2.09-27.46.86-27.33,10.15,0,.33.03.67.04,1-27.9,3.48-56.04,6.42-84.38,8.97-2.07-2.03-6.91-2.55-9.93-4.09-1.75-.89-4.27-1.18-6.31-.13-1.64.85-2.73,1.86-1.47,3.09,1.03,1,1.94,2.03,2.9,3.04-14.39,2.04-28.81,4.04-43.15,6.16-3.71.55-8.85.34-9.5,3.09-3.53-.04-7.07-.07-10.6-.11-.56-.51-.96-1.39-1.7-1.46-2.25-.21-2.18.79-2.54,1.49Z"/>
      <path class="cls-1" d="M1351.83,129.66c-5.43-.66-4.92-2.4-2.69-4.03,2.16-1.58,2.79-3.2,2.63-4.98,4.16-1.28,9.98-1.06,13.87-3.12-4.28-1.35-7.94-.75-11.65-.38-33.19,3.24-66.35,6.43-99.95,8.78-46.44,3.24-93.14,4.66-139.88,5.53-43.06.8-86.24.48-129.3-.87-17.77-.56-35.53-1.3-53.23-2.24-27.05-1.43-54.12-2.87-81.06-4.74-32.15-2.23-64.11-5.01-95.58-8.92-3.08-1.96-6-3.99-9.29-5.87-4.81-2.75-2.17-3.91,3.92-4.08,12.57-.34,25.22-.59,37.72-.72,27.99-.29,56-.92,84.13,1.25,12.09.94,24.25,1.33,36.28,2.96,6.05.82,13.37,1.52,20.17-1.29,4.63-1.91,12.13-2.66,18.58-3.05,5.75-.35,12.84-1.51,17.25,1.82-2.32,1.26-5.85.95-8.75,1.48-4.29.78-9.45,1.28-9.68,3.9-.23,2.57,3.44,4.29,8.43,5.16,6.89,1.21,13.72,2.61,20.84,3.36,27.74,2.92,55.88,3.69,84.28,4.32,31.63.71,62.76,0,93.87-2.31,6.58-.49,13.17-1.26,18.69-3.09,5.54-1.84,7.23-4.05.7-6.38-1.84-.66-4.75-.69-5.61-2.17.99-.12,1.88-.31,2.77-.31,48.67-.08,97.4.83,145.88-2.02,16.53-.97,33.36-1.18,49.25-3.98,13.79-1.23,28.14-1.56,40.14-5.64,7.02-.1,14.03-.27,21.05-.28,118.02-.1,236.05.22,354.05-.43,69.18-.38,138.34-.21,207.51-.58,9.78-.05,13.13,1.31,12.27,5.89-.8,4.29-.35,8.64-.45,12.97-9.22-1.6-18.25-3.5-27.68-4.74-49.59-6.47-100.5-8.49-151.62-9.06-47.31-.53-94.57,1.03-141.85,1.71-43.42.62-86.87.24-130.26,2.04-44.71,1.85-89.14,4.49-132.2,10.46-22.28,3.09-45.61,5.73-63.54,13.65Z"/>
      <path class="cls-8" d="M98.68,54.75c32.13,1.37,64.5.79,96.56,2.16,43.97,1.88,88.08,2.21,132.1,3.53,55.64,1.67,110.47,6.02,165.65,9.19,60.4,3.47,121.11,3.92,181.75,2.88,43.36-.74,86.08-4.64,128.72-8.61,29.79-2.77,60.1-4.42,90.3-6.08,49.08-2.7,98.31-4.07,147.79-4.31,34.71-.17,67.31-5.89,99.16-12.22,39.71-7.89,81.23-12.16,123.93-14.7,42.43-2.53,84.94-3.86,127.58-4.93,31.14-.78,62.26-1.56,93.43-2.01,12.05-.17,24.4-.42,38.21-2.29-25.37-2.45-49.07-3.53-72.81-4.66-36.83-1.76-73.76-1.35-110.5-.67-49.23.91-98.54,2.34-147.03,7.22-37.1,3.74-72.94,9.55-109.42,14.31-34.11,4.45-68.7,7.68-104.04,9.34-37.7,1.77-75.46,2.23-113.24,3.06-33.13.73-66.06,3.23-99.16,4.51-40.23,1.55-80.5,2.05-119.83-3.51-39.11-5.53-79.08-7.08-119.65-6.12-1.25.03-2.48.31-5.68.72,6.43,1.6,10.51,3.27,14.16,5.18,4.67,2.43,3.55,4.06-2.89,5.15-4.06.69-8.16.88-12.41.88-52.72-.02-105.44.13-158.15-.13-18.15-.09-36.29-1.21-54.42-1.91-2.53-.1-6.68.37-6.2-1.63.43-1.77,4.42-1.33,6.99-1.22,69,3.09,138.19,1.54,207.3,1.86,4.36.02,11.25,1.05,12.59-.88,1.9-2.74-5.78-3.02-9.4-4.33-2.22-.8-5.13-1.49-4.53-3.06.54-1.41,2.97-2.26,5.87-2.56,5.46-.57,10.88-1.1,16.58-1.21,38.18-.72,75.33,1.77,112.2,6.53,39.29,5.07,79.42,5.2,119.78,2.81,24.63-1.46,49.44-2.26,74.18-3.28,33.54-1.38,67.26-1.02,100.8-2.14,60.63-2.01,119.95-7.33,177.87-16.37,44.62-6.97,90.21-12.01,137.46-13.67,34.58-1.21,69.13-2.25,103.78-2.93,50.23-.99,99.87,1.4,149.51,4.24,5.52.32,10.9,1.22,16.31,1.92,3.17.41,6.53,1.2,6.36,2.87-.23,2.3-4.9,2.68-8.56,2.94-11.41.82-22.85,1.66-34.34,2.07-16.06.56-32.18.87-48.29,1.06-46.92.53-93.71,1.98-140.47,3.92-41.95,1.74-83.62,4.2-123.89,10.2-23.06,3.43-45.62,7.65-68.27,11.69-25.18,4.49-51.19,7.06-78.01,7.1-49.47.07-98.51,2.43-147.66,4.77-53.75,2.57-106.24,8.52-159.58,12.04-36.89,2.44-74.11,2.21-111.3,2.37-60.45.26-120.22-2.65-179.88-6.87-37.02-2.62-74.25-4.29-111.67-5.4-49.98-1.49-99.99-2.61-149.97-4-27.27-.76-54.57-1.22-81.83-1.97,2.04-.95,4.09-1.9,6.13-2.84Z"/>
      <path class="cls-11" d="M963.76,105.71c-4.41-3.33-11.51-2.17-17.25-1.82-6.45.39-13.95,1.14-18.58,3.05-6.81,2.8-14.12,2.11-20.17,1.29-12.03-1.63-24.19-2.02-36.28-2.96-28.13-2.18-56.14-1.54-84.13-1.25-12.51.13-25.16.38-37.72.72-6.09.16-8.73,1.32-3.92,4.08,3.29,1.88,6.21,3.91,9.29,5.87-3.43-.27-6.94-.38-10.26-.83-29.85-4.01-60.06-6.86-91.3-6.17-11.14.25-22.26.69-33.39,1.05-.58-2.63-4.48-2.8-9.01-3.1-17.87-1.21-35.74-2.86-53.81-1.64-12.39.84-24.13-1.75-36.12-1.16-25.33,1.26-50.49,2.84-76.07.98-8.84-.64-18.56-1.39-26.95-.69-18.88,1.57-37.54.04-56.24.55-4.4.12-7.72-.38-7.49-2.92,19.83-.04,39.67-.05,59.5-.12,5.5-.02,11.19.5,16.31-.98,4.56.01,9.18.25,13.66-.02,4.73-.29,10.85,1.47,13.89-1.8,86.42,0,172.83-.01,259.25,0,20.37,0,40.74.11,61.11.17,2.19,2.17,4.38,2.16,6.55,0,2.04,0,4.07,0,6.11,0,2.87,2.39,5.76,2.39,8.65,0,1.34,0,2.67,0,4.01,0,1.37,1.85,4.71,1.66,7.82,1.67,18.77,0,37.54,0,56.31,0,3.11,0,6.45.16,7.76-1.7,54.1-.06,108.19-.16,162.29-.18,111.01-.03,222.03-.02,333.04-.01,3.51,0,7.02.08,10.53.12-2.43,3.37-10.63,1.77-14.62,3.8-3.85.11-7.73.1-11.53.35-33.28,2.17-66.65,4.16-100.22,4.53-53.3.58-106.46-.75-159.68-2.6-43.67-1.51-87.66-.62-131.33,1.74Z"/>
      <path class="cls-8" d="M1772.76,273.89c-11.47-6.33-19.06-13.36-30.36-19.07-2.78-1.4-2.56-3.38-2.56-5.23.06-33.25.15-66.51.08-99.76,0-2.86.87-3.8,8.2-3.66,26.64.49,53.34.46,80.01.32,8.74-.04,10.31.84,8.1,5.04-18.13,34.44-35.82,68.94-53.19,103.47-3.08,6.12-5.13,12.35-10.27,18.89ZM1794.59,151.52c-1.07-.06-2.15-.12-3.22-.17-1.01,2.36-2.69,4.7-2.93,7.08-1.54,15.55-2.71,31.11-6.62,46.57-2.33,9.21-6.29,18.32-14.09,26.93-1.36,1.5-3.1,3.3-7.28,3.1-3.88-.19-5.6-1.93-6.72-3.5-.87-1.23-.76-2.61-1.33-3.89-3.04-6.92-1.03-13.8-.29-20.75,1.29-12.15,5.06-24.01,11.36-35.78,3.85-7.19,9.8-14.2,9.78-21.84-8.78,6.67-12.85,14.17-16.45,21.66-5.82,12.14-8.53,24.45-8.94,36.95-.29,8.7-4.69,17.35,2.19,25.96,1.73,2.17,2.73,4.1,8.03,4.58,5.22.47,8.64-.94,11.62-2.7,6.8-4.01,9.42-8.91,11.9-13.72,9.87-19.1,9.1-38.76,12.87-58.19.79-4.07.11-8.2.11-12.3Z"/>
      <path class="cls-9" d="M1938.1,139.7c-5.57.24-11.14.68-16.71.68-38.9,0-77.85-.63-116.68-.37-96.06.65-192.11.23-288.16.45-8.41.02-16.83-.09-25.24-.13,1.24-2.32,5.82-2.18,9.26-2.59,40.37-4.82,80.6-9.93,121.51-13.68,46.42-4.25,93.27-6.64,140.48-7.38,27.31-.43,54.7-.39,81.67,2.06,28.9,2.62,57.84,5.38,83.72,12.55,6.64,1.84,13.85,3.69,10.15,8.41ZM1748.96,125.24c-.21-.49-.42-.98-.63-1.47-11.82.02-23.33,1.16-34.57,2.88-5.57.85-10.61,2.51-9.34,5.72,1.22,3.09,6.9,3.28,12.47,3.28,20.71-.03,41.43.02,62.14-.02,9.6-.02,18.77-1.32,27.51-2.95,8.18-1.53,9.74-6.02,2.72-7.14-14.52-2.3-29.64-3.98-45.22-2.16-1.88.22-4.63.4-3.91,1.79.58,1.11,3.15,1.64,5.05,1.3,10.17-1.83,20.12.23,30.16.21,3.28,0,8.04-.49,8.42,1.8.29,1.74-4.18,2.23-6.93,2.51-25.66,2.6-51.4,5.12-77.71,2.13-2.6-.29-7.55.19-7.41-1.89.11-1.62,4.29-2.04,7.27-2.42,9.96-1.26,19.98-2.4,29.98-3.59Z"/>
      <path class="cls-8" d="M239.05,274.14c-5.32-10.17-9.94-18.99-14.55-27.82-16.17-30.94-32.3-61.89-48.53-92.83-3.65-6.96-3.81-6.96,11.63-6.96,24.95,0,49.9.13,74.84-.02,7.4-.05,9.61,1.14,9.59,4.61-.18,32.95-.02,65.9.01,98.85,0,1.48.8,3.13-1.44,4.34-10.84,5.85-20.07,12.3-31.56,19.83ZM215.19,171.22c.09,7.8.02,15.57,1.86,23.37,3.03,12.9,6.91,25.65,17.78,37.7,2.22,2.46,3.54,5.24,10.9,5.17,7.59-.07,10.34-2.78,11.5-5.57,3.38-8.14,4.27-16.47,3.74-24.7-.53-8.24-3.35-16.46-5.9-24.64-3.01-9.67-6.79-19.3-13.45-28.6-.84-1.17-1.77-3.04-5.16-2.64-3.82.45-1.85,2.13-1.26,3.34,2.78,5.66,5.61,11.31,8.42,16.96,9.09,18.32,14.46,36.78,9.5,55.65-.61,2.32-.41,5.11-6.21,5.67-4.35.42-6.28-1.91-7.52-3.59-11.01-14.82-17.72-30.2-17.2-45.8.31-9.44,1.38-18.84-.76-28.25-.24-1.06,1-2.75-2.26-2.91-3.93-.2-3.89,1.59-3.92,2.86-.13,5.32-.05,10.65-.05,15.98Z"/>
      <path class="cls-12" d="M1917.18,182.58c-8.82,18.77-17.56,37.54-31.12,55.74-3.37,4.52-2.56,9.67-6.72,14.22-3.13,0-5.26.7-6.72,1.99-4.44,3.95-9.84,7.62-13.05,11.91-4.92,6.57-5.21,6.52,8.87,6.02.2,4.66-4.38,6.2-14.3,6.04-20.67-.32-41.39-.02-62.08,0-4.31,0-8.71.24-6.97-3.13,15.89-30.59,31.6-61.21,47.37-91.81,8.61.24,17.1-.13,25.52-1-8.23,8.43-16.92,16.76-24.59,25.31-10.77,12-16.45,24.6-17.73,37.64-.3,3.01,1.67,5.55,6.47,7.56,1.93.81,3.92,1.49,6.5.6,1.74-.59,3.41-1.31,3.39-2.39-.05-2.01-3.08-1.15-5.33-1.19-3.71-.06-4.62-1.45-4.55-2.8.27-5.12-1.14-10.24,1.23-15.38,6.48-14.07,19.21-27,32.11-39.87,3.21-3.2,3.67-7.23,10.83-9.44,5.63-.02,11.26-.03,16.89-.05,6.2.52,16.71-1.87,14.39,4.52-1.53,4.23-3.41,8.46-5.82,12.6-8.13,13.99-19.94,27.26-35.78,39.7-.99.78-2.66,1.67-.1,2.85,6.66-1.58,9.08-4.79,12.35-7.6,17.8-15.26,28.09-31.78,35.8-48.7,1.78-3.91,5.34-5.23,13.12-3.34ZM1858.07,225c9.93-4.02,19.92-20.12,16.34-25.18-1.29-1.82-3.53-2.53-7-1.17-3.53,1.38-6.45,3-8.62,4.97-7.66,6.97-13.22,14.25-16.28,21.99-1.38,3.49-2.78,6.87,1.73,10.35,3.57-12.09,10.05-23.58,24.3-33.76,1.32,7.98-7.93,14.81-10.47,22.8Z"/>
      <path class="cls-11" d="M700.14,6.77c25.31-.02,50.63-.04,75.94-.07,1.26,1.34,3.86,1.73,6.47,2.29,23.25,4.98,48.33,4.95,72.93,5.62,29.32.8,58.79.3,87.8-2.01,14.87-1.18,30.86-1.11,43.66-5.93,49.94-1.09,99.87-1.03,149.81.02-4.89,1.67-10.54,2.53-16.15,3.45-39.58,6.49-80.48,10.19-121.92,12.53-31.58,1.78-63.12,3.73-95.01,4.37-12.54.25-25.21.3-37.74.9-42.61,2.03-84.81,1.03-125.84-4.88-14.36-2.07-29.97-3.96-39.87-10.3-1.67-1.99-1.39-3.99-.08-5.99Z"/>
      <path class="cls-8" d="M620.04,108.73c11.13-.35,22.25-.8,33.39-1.05,31.25-.69,61.45,2.16,91.3,6.17,3.32.45,6.84.56,10.26.83,31.47,3.91,63.43,6.69,95.58,8.92,26.93,1.86,54,3.31,81.06,4.74,17.7.94,35.46,1.69,53.23,2.24,43.06,1.35,86.24,1.67,129.3.87,46.73-.87,93.43-2.29,139.88-5.53,33.6-2.34,66.76-5.54,99.95-8.78,3.71-.36,7.37-.96,11.65.38-3.89,2.07-9.71,1.85-13.87,3.12-21.97,2.02-43.92,4.11-65.92,6.06-35.8,3.17-71.99,4.61-108.24,6.15-49.43,2.1-98.84,1.89-148.27,1.68-42.7-.18-85.17-2.1-127.61-4.58-35.08-2.05-70.05-4.37-104.73-7.48-30.58-2.74-60.84-6.33-91.16-9.69-32.43-3.6-64.69-1.98-97.08.13-22.49,1.46-45.06,2.85-67.68,3.66-49.67,1.78-99.47,2.79-149.27,1.99-42.65-.68-85.31-1.62-127.79-3.77-10.43-.53-21.05-.81-31.41-.9-49.42-.4-98.5-3.94-148.02-3.26-24.16.33-48.06,1.43-71.59,4.09,0-1.04,0-2.08-.02-3.12,19.37-2.06,39.14-2.8,58.78-3.94,21.09,0,42.17,0,63.26.01,2.7.32,5.39.9,8.09.91,24.16.09,48.18,1.41,72.27,1.92,39.84.84,79.47,3.45,119.22,3.85,44.4.45,88.72,2.1,133.37.68,35.9-1.15,72.01-1.14,107.75-3.44,14.78-.95,30.05-.24,44.34-2.86Z"/>
      <path class="cls-8" d="M948.67,92.31c5.84-3.97,15.62-4.92,24.13-6.38,32.76-5.62,66.91-8.29,101.45-10.31,43.39-2.53,86.88-2.12,130.34-1.76,33.91.28,67.74,1.79,101.47,3.65,29.87,1.65,59.91,2.63,89.76,4.34,48.43,2.77,97.05,4.21,145.74,3.67,31.76-.35,63.47-2.09,95.17-3.44,32.08-1.37,63.91-3.56,95.82-5.45,27.41-1.62,54.81-3.63,81.21-7.78,2.65-.42,5.3-.92,7.69-1.59,2.05-.58,4.31-1.35,3.82-2.73-.5-1.39-3.19-1.63-5.54-1.95-12.86-1.76-26.13-2.59-39.36-2.74-26.34-.3-52.72-.27-79.07,0-11.87.12-23.69,1.02-35.64,1.09-3.94.02-9.27.02-8.69,3.51.32,1.98-3.89,2.89-7.98,3.33-34.77,3.81-69.81,5.18-105.29,2.75-2.07-.14-4.05-.55-6.11-.74-2.92-.27-5.63-.69-6.03-2.3-.41-1.61,2.11-2.36,4.74-2.93,6.76-1.46,13.95-2.25,21.23-2.77,29.48-2.11,59.23-2.42,88.93-3.29,33.56-.98,67.15-1.98,100.7-2.14,23.99-.12,48.44-.27,72.02,2.68,5.73.72,12.89,2.07,12.96,5.68.06,3.16-5.51,4.89-11.17,5.96-26.57,5.04-54.71,6.92-82.72,9.01-37.65,2.8-75.79,3.8-113.4,6.83-11.72.94-23.83.49-35.69.61-32.18.33-64.3,2.78-96.58.83-6.23-.38-12.63-.18-18.95-.22-40.28-.27-80.23-2.03-120.18-4.64-31.83-2.07-63.93-3.42-96.05-4.56-40.98-1.45-81.94-2.18-122.97-1.78-58.8.57-116.5,4.48-172.19,13.88-2.08.35-4.08.49-4.4,1.72-3.06.37-6.12.39-9.17-.04ZM1647.61,64.07c-28.3-3.61-92.25-1.02-101.46,3.32,34.44,2.63,68.24,1.26,101.46-3.32Z"/>
      <path class="cls-1" d="M177.09,278.38c-31.53.34-31.36.32-39.25-14.26-13.74-25.4-27.71-50.76-41.54-76.15-.96-1.76-1.55-3.57-2.31-5.36,5.93-1.96-.35-4.25.74-6.37.53-1.03-2.19-2.18.31-3.24,5.01-2.13,24.96-1.66,28.37.9,20.14,15.12,36.98,31.03,45.21,48.55,8.65,18.38,8.85,37.18,8.47,55.93ZM144.18,222.99c-1.82-6.72,3.28-14.94-2.01-21.61-3.72-4.68-8.37-9.07-16.16-12.66-6.26-2.89-9.58-1.77-12.1,1.44-1.21,1.55-1.85,3.09-1.53,4.84,2.62,14.53,12.46,28.18,22.66,41.76,3.39,4.51,8.46,8.75,13.07,13.03,1.35,1.26,3.59,3.04,7.18,2.05,4.82-1.34.04-2.47-1.46-3.51-4.16-2.88-8.81-5.64-11.38-8.93-9.57-12.28-16.44-24.96-23.55-37.58-1.54-2.74-4.48-5.71-1.48-8.73.98-.99-.24-2.6,2.93-2.92,2.77-.28,4.49.9,5.82,1.8,6.34,4.27,9.43,9.22,12.75,14.11.23.34,1.74,1.33-.76,1.48-8.77.54-3.96,3.16-2.83,4.79,2.5,3.62,5.72,7.13,8.85,10.64,1.32,1.48,2.44,3.62,6.83,3.17,4.76-.49-7.73-1.23-6.83-3.17Z"/>
      <path class="cls-8" d="M177.09,278.38c.38-18.76.18-37.55-8.47-55.93-8.24-17.51-25.07-33.43-45.21-48.55-3.41-2.56-23.36-3.03-28.37-.9-2.49,1.06.22,2.21-.31,3.24-1.08,2.12,5.2,4.41-.74,6.37-8.38-10.75-12.39-22.06-19.26-33-1.43-2.27.58-3.09,5.07-3.09,25.59.02,51.19.05,76.78.08,3.22,0,5.07.67,5.77,2.27,3.34,7.6,6.85,15.19,10.31,22.78-1.05-.03-2.11-.12-3.14-.09-4.06.14-8.72-2.12-11.84-.25-3.44,2.06,1.69,3.92,3.26,5.81,7.31,8.78,15.88,17.35,20.35,26.6,11.93,24.67,19.93,49.66,27.55,74.69-1.42,0-2.85,0-4.27,0-2.11-4.86-4.63-9.7-6.25-14.6-4.56-13.73-8.13-27.54-13.24-41.22-6.26-16.76-20.81-32.3-33.19-48.16-3.04-3.89-8.99-4.01-16.04-3.89-6.64.11-8.31,1.31-5.02,4.02,3.5,2.88,7.05,5.74,10.62,8.6,25.57,20.43,38.97,42.51,39.89,66.25.37,9.64.13,19.29.17,28.94-1.47,0-2.94.02-4.41.03Z"/>
      <path class="cls-9" d="M236.23,139.73c-71.55,1.41-143.13.38-214.7.79-7.19.04-9.46-1.21-8.89-4.33.27-1.49.22-2.99.31-4.48,21.96-2.05,44.13-3.92,66.46-3.95,35.74-.05,71.46-.55,107.26.66,30.68,1.03,61.52,1.21,92.27,2.11,34.23,1,68.53,1.48,102.81,2.18,1.34,3.14-7.05,4.41-6.34,7.43-8.34.06-16.68.11-25.02.17-.59-.28-1.18-.56-1.77-.84-.3.28-.61.55-.91.83-16.78-.06-33.62.83-50.32-.61,1.49-3.05,6.75-2.91,11.64-3.1,1.74-.06,3.94-.11,3.92-1.17-.02-1.21-2.18-1.6-4.44-1.59-29.57.13-59.13-.99-88.71-.2-4.76.13-12.04-.31-11.77,2.5.25,2.71,7.54.99,11.57,1.51,5.54.72,12.89-1.8,16.65,2.08Z"/>
      <path class="cls-1" d="M375.4,140.14c-.72-3.02,7.67-4.29,6.34-7.43,13.36-.72,26.46,1.03,39.78.92,66.56-.53,133.12.57,199.73-.76,45.08-.9,90.34-.75,135.52.64,26.16.8,52.16,2.26,78.21,3.49,6.97.33,15.52-.05,20.81,3.3-14.02.07-28.04.19-42.06.19-141.57,0-283.13,0-424.7-.03-4.55,0-9.09-.21-13.64-.32Z"/>
      <path class="cls-2" d="M855.79,140.3c-5.3-3.35-13.84-2.97-20.81-3.3-26.04-1.23-52.04-2.69-78.21-3.49-45.18-1.38-90.44-1.54-135.52-.64-66.6,1.33-133.16.23-199.73.76-13.33.11-26.42-1.64-39.78-.92-34.27-.7-68.57-1.17-102.81-2.18-30.75-.9-61.59-1.08-92.27-2.11-35.8-1.21-71.53-.7-107.26-.66-22.33.03-44.49,1.9-66.46,3.95-.02-1.04-.05-2.08-.07-3.12,49.91-4.68,100.44-4.43,150.89-3.83,51.13.6,102.25,1.65,153.32,3.03,32.89.89,65.81,1.29,98.69,2.02,52.66,1.15,105.31.92,157.96.73,40.29-.14,80.63-2.23,120.82-1.6,47.11.73,94.5,1.27,141.02,5.71,7.87.75,15.5,2.07,23.28,3.05,3,.38,3.56,1.43,3.98,2.61-2.35,0-4.69-.01-7.04-.02Z"/>
      <path class="cls-6" d="M1351.83,129.66c17.93-7.92,41.27-10.56,63.54-13.65,43.06-5.97,87.49-8.6,132.2-10.46,43.39-1.8,86.84-1.42,130.26-2.04,47.28-.68,94.55-2.24,141.85-1.71,51.12.57,102.03,2.59,151.62,9.06,9.43,1.23,18.46,3.14,27.68,4.74,0,.7,0,1.4,0,2.11-11.26-2.55-23.44-3.29-35.6-4.06-6.38-2.08-14.45-1.42-21.17-2.95-6.33-.34-12.47-1.44-18.98-1.04-18.55-2.61-37.87-3.28-56.88-3.74-26.19-.64-52.49-2.29-78.69-1.11-32.92,1.48-65.94-.1-98.73,1.08-31.21,1.12-62.4-.01-93.49.91-44.94,1.33-89.79,3.21-134.13,7.32-30.36,2.81-60.06,6.45-88.15,12.68-4.73,1.05-9.14,2.42-13.61,3.72-3.3.96-6.37,1.91-7.74-.85Z"/>
      <path class="cls-11" d="M135,107.68c-21.09,0-42.17,0-63.26-.01-1.71-3.22-7.64-2.67-12.47-3.18-8.31-.87-15.73-2.09-10.65-7.34,3.39-.06,6.78-.12,10.18-.19,1.58,1.81,3.18,1.82,4.79.01,1.91,0,3.82.01,5.73.02,2.31,2.21,4.62,2.2,6.94,0,11.04,0,22.08,0,33.13,0,1.6,1.79,3.21,1.8,4.84,0,2.61,0,5.22,0,7.83-.02,4.39,3.29,8.72,1.02,13.06-.03.66.04,1.31.11,1.94.21.34,1.08.24,2.41,3.67,2.24,2.62-.13,2.47-1.28,2.79-2.2,1.36,0,2.72,0,4.09,0,.28,2.71,4.48,2.47,8.37,2.5,10.75.08,21.63-.29,32.23.35,24.48,1.49,48.76.31,73.11-.41,3.05-.09,4.2-.98,4.53-2.27,11.95-.83,23.82.61,35.76.28.01.35.03.71.04,1.06.34,1.88,3.27,1.99,6.26,2.05-.31,4.21-7.38,3.19-11.62,2.77-13.91-1.38-27.87-.68-41.79-.81-7.18-.07-15.56-.8-21.33.64-12.89,3.2-26.71,3.07-39.09,1.93-18.82-1.73-36.68,1.63-55,.49-2.41-.15-3.61.82-4.06,1.9Z"/>
      <path class="cls-2" d="M1938.1,139.7c3.7-4.72-3.52-6.57-10.15-8.41-25.88-7.17-54.82-9.93-83.72-12.55-26.97-2.45-54.36-2.49-81.67-2.06-47.21.74-94.06,3.12-140.48,7.38-40.91,3.75-81.14,8.86-121.51,13.68-3.44.41-8.02.27-9.26,2.59-5.07.22-10.2.83-15.06-.47.65-2.75,5.79-2.54,9.5-3.09,14.34-2.12,28.76-4.11,43.15-6.15,5.23-.14,10.23-.66,14.81-1.92,28.34-2.55,56.48-5.49,84.38-8.97,9.33-.04,18.55-.39,27.37-2.01,22.49-1.03,44.97-2.06,67.46-3.09,3.6-.1,7.48.5,10.56-.93,2.11,0,4.21-.02,6.32-.03,4.92-.01,9.84-.02,14.76-.04,36.45-.28,72.73.38,108.6,3.87,4.4.43,9.1.19,13.65.26,1.67,1.51,4.79,1.64,7.85,2.07,16.4,2.28,32.3,5.15,47.55,8.87,9.63,2.35,15.44,5.54,14.26,10.92-2.78.02-5.57.05-8.35.07Z"/>
      <path class="cls-1" d="M181.51,278.35c-.04-9.65.2-19.29-.17-28.94-.92-23.74-14.32-45.82-39.89-66.25-3.57-2.86-7.13-5.72-10.62-8.6-3.29-2.71-1.62-3.91,5.02-4.02,7.04-.12,13,0,16.04,3.89,12.38,15.85,26.93,31.4,33.19,48.16,5.11,13.68,8.69,27.49,13.24,41.22,1.63,4.9,4.14,9.74,6.25,14.6-7.69-.02-15.37-.05-23.06-.07Z"/>
      <path class="cls-8" d="M149.65,29.74c9.98,1.68,20.47,1.77,30.81,1.98,42.81.86,85.58-.46,128.31-1.19,37.29-.63,74.43-3.04,111.52-5.39,35.99-2.28,72.14-4.48,108.65-4.38,27.34.07,54.6-1.57,81.98-.93,2.45.06,4.92-.02,7.37.04,3.15.08,7.23.07,6.78,2.14-.42,1.93-4.54,1.81-7.63,1.69-4.87-.18-9.72-.88-14.55-.83-55.97.56-111.93.88-167.57,4.66-35.95,2.44-72.1,4.3-108.43,5.37-47.6,1.4-95.22,2.28-142.88,1.72-13.52-.16-27.28-.32-40.63-1.87,2.09-1,4.18-2,6.27-3Z"/>
      <path class="cls-6" d="M1910.85,53.63c-23.02-2.08-45.99-4.29-69.08-6.19-10.65-.88-21.51-1.52-32.3-1.62-25.87-.23-51.83-.7-77.6.09-37.67,1.16-75.31,2.62-112.89,4.5-32.69,1.64-65.34,3.46-97.94,5.4-24.22,1.44-48.54,3-71.96,8.25.38-3.32,5.24-4.23,9.93-5.15,19.34-3.79,40.02-4.71,60.42-6.1,24.57-1.68,49.23-3.04,73.89-4.4,18.05-1,36.14-1.92,54.25-2.61,36.96-1.41,73.94-2.72,110.94-3.9,21.75-.69,43.38.88,65.08,1.32,27.06.55,52.88,4.65,79.52,6.47,3.84.76,5.32,2.56,7.74,3.94Z"/>
      <path class="cls-6" d="M700.22,12.76c9.9,6.35,25.51,8.23,39.87,10.3,41.03,5.92,83.24,6.92,125.84,4.88,12.53-.6,25.2-.65,37.74-.9,31.89-.63,63.42-2.58,95.01-4.37,41.44-2.34,82.34-6.05,121.92-12.53,5.6-.92,11.26-1.78,16.15-3.45,2.09-.95,4.35-.86,6.7-.24-1.67,3.31-8.25,4.14-13.34,5.04-33.54,5.92-68.28,9.69-103.62,12.31-49.78,3.69-99.86,5.69-150.14,7.19-45.4,1.35-90.29,1.1-134.44-4.35-16.54-2.04-32.83-4.93-43.9-11.82.73-.69,1.47-1.38,2.2-2.06Z"/>
      <path class="cls-3" d="M1883.22,182.55c-5.63.02-11.26.03-16.89.05,10.29-11.63,21.74-23.1,23.15-36.01,12.99-.03,26.01.15,38.97-.15,8.37-.19,9.24,1.36,7.31,4.65-5.16,8.8-9.94,17.64-14.87,26.47-8.35-.19-13.12-1.45-10.6-6.16,1.25-2.33,1.32-4.88,1.97-7.33,1.2-4.53,1.3-9.12,1.85-13.69-5.88,3.28-6.96,6.92-7.89,10.68-1.46,5.93-1.54,12.22-15.49,15.59-4.38,1.06-8.98,2.81-7.51,5.9Z"/>
      <path class="cls-1" d="M208.84,278.43c-7.62-25.02-15.62-50.02-27.55-74.69-4.47-9.25-13.04-17.82-20.35-26.6-1.57-1.89-6.7-3.76-3.26-5.81,3.12-1.87,7.78.39,11.84.25,1.04-.03,2.1.05,3.14.09,10.58,20.44,21.17,40.89,31.74,61.33,6.74,13.04,13.45,26.09,20.19,39.13,3.97,7.67,3.41,6.16-10.51,6.38-1.75.03-3.5-.05-5.25-.08Z"/>
      <path class="cls-8" d="M57.3,74.83c6.84,1.33,13.6-.24,20.45-.18,27.75.24,55.62.75,83.25-.17,26-.87,51.96-1,77.84-.58,45.45.74,91.2-.17,136.19,3.94,16.52,1.51,32.88,3.53,47.67,7.6,1.48.41,2.8.96,4.03,1.52.37.17.19.61.32,1.18-4.78.88-8.73-.46-12.62-1.26-25.43-5.25-52.47-7.19-79.72-8.09-74.36-2.45-148.85-.75-223.28-.9-20.27-.04-40.58,1.2-60.94.76,2.27-1.27,4.54-2.54,6.81-3.81Z"/>
      <path class="cls-3" d="M1857.99,182.56c-8.41.86-16.91,1.24-25.52,1,5.44-11.24,11.05-22.47,16.22-33.74,1.24-2.69,4.12-3.43,9.44-3.34,9.76.15,19.53.1,29.29.13-3.68,4.13-6.06,8.45-8.98,12.69-5.5,7.98-9.71,16.29-20.46,23.26Z"/>
      <path class="cls-11" d="M180.27,14.71c8.73-7.34,20.34-8.32,36.91-8.42,37.51-.22,75.02-.02,112.53-.27,3.15-.02,6.3.14,9.45.22-.45.9-1.64,1.33-3.6,1.5-51.14,4.31-102.95,8.5-155.28,6.96Z"/>
      <path class="cls-1" d="M1963.39,113.64c12.17.77,24.34,1.51,35.6,4.06.05,6.31.11,12.63.16,18.94-14.47,1.68-28.63.56-42.97-1.3,3.08-.57,6.16-1.13,9.24-1.7,6.64-.86,8.28-2.12,2.34-4.6-7.08-2.96-7.37-7.69-11.9-11.4-2.37-1.94,4.62-2.75,7.53-4Z"/>
      <path class="cls-12" d="M1965.42,133.64c-3.08.57-6.16,1.13-9.24,1.7,14.35,1.85,28.51,2.97,42.97,1.3,1.26,3.22-2.34,3.99-8.26,3.86-14.81-.34-29.62-.58-44.44-.87,1.18-5.38-4.63-8.57-14.26-10.92-15.25-3.72-31.15-6.59-47.55-8.87-3.06-.43-6.18-.56-7.85-2.07-.54-2.87,1.71-4.21,8.31-4.16,7.94.07,15.84.39,23.85.26,8.51-.14,13.18,3.57,15.81,6.83,3.65,4.52,8.3,6.79,18.71,4.66,1.18-.24,3.84-.23,3.87-.17,1.84,4.86,16.69,3.46,18.08,8.46Z"/>
      <path class="cls-2" d="M1883.22,182.55c-1.46-3.09,3.13-4.85,7.51-5.9,13.95-3.37,14.03-9.66,15.49-15.59.92-3.76,2.01-7.4,7.89-10.68-.56,4.57-.65,9.16-1.85,13.69-.65,2.45-.72,5-1.97,7.33-2.52,4.71,2.25,5.97,10.6,6.16-.49,1.8-1.4,3.53-3.7,5.03-7.78-1.88-11.34-.56-13.12,3.34-7.71,16.92-18.01,33.44-35.8,48.7-3.27,2.8-5.7,6.02-12.35,7.6-2.56-1.18-.89-2.07.1-2.85,15.84-12.44,27.65-25.71,35.78-39.7,2.41-4.14,4.29-8.37,5.82-12.6,2.31-6.39-8.19-4-14.39-4.52Z"/>
      <path class="cls-5" d="M986.95,6.69c-12.8,4.82-28.8,4.74-43.66,5.93-29.01,2.31-58.48,2.81-87.8,2.01-24.6-.67-49.68-.64-72.93-5.62-2.62-.56-5.22-.95-6.47-2.29,5.58-1.27,11.18-1.27,16.81-.08,3.31,1.79,8.2,1.75,12.47,2.17,41.48,4.16,83.36,3.12,125.14,1.63,13.34-.48,26.88-1.37,39.61-3.73,5.61-1.28,11.22-1.27,16.83,0Z"/>
      <path class="cls-2" d="M1857.99,182.56c10.75-6.97,14.95-15.28,20.46-23.26,2.92-4.24,5.3-8.57,8.98-12.69.68-.03,1.37-.04,2.06-.02-1.4,12.91-12.86,24.38-23.15,36.01-7.16,2.22-7.62,6.24-10.83,9.44-12.91,12.88-25.64,25.8-32.11,39.87-2.36,5.13-.96,10.25-1.23,15.38-.07,1.36.84,2.74,4.55,2.8,2.24.04,5.28-.82,5.33,1.19.02,1.08-1.65,1.8-3.39,2.39-2.58.88-4.57.21-6.5-.6-4.8-2.02-6.77-4.55-6.47-7.56,1.28-13.04,6.96-25.64,17.73-37.64,7.67-8.54,16.35-16.88,24.59-25.31Z"/>
      <path class="cls-11" d="M970.11,6.69c-12.73,2.36-26.27,3.26-39.61,3.73-41.78,1.49-83.66,2.53-125.14-1.63-4.27-.43-9.16-.38-12.47-2.17,59.07.02,118.15.05,177.23.07Z"/>
      <path class="cls-11" d="M236.23,139.73c-3.76-3.88-11.11-1.36-16.65-2.08-4.03-.52-11.31,1.2-11.57-1.51-.26-2.81,7.02-2.37,11.77-2.5,29.58-.79,59.14.33,88.71.2,2.26-.01,4.42.38,4.44,1.59.02,1.07-2.18,1.11-3.92,1.17-4.9.18-10.15.04-11.64,3.1-20.38.98-40.76,1.15-61.15.03Z"/>
      <path class="cls-9" d="M48.62,97.15c-5.08,5.25,2.34,6.47,10.65,7.34,4.82.5,10.76-.04,12.47,3.18-19.64,1.14-39.41,1.89-58.78,3.94-.04-18.49-6.45-14.09,30.48-14.75,1.72-.03,3.45.19,5.18.29Z"/>
      <path class="cls-3" d="M180.27,14.71c52.33,1.53,104.13-2.66,155.28-6.96,1.96-.17,3.15-.6,3.6-1.5,6.37-.64,12.78-.32,19.19-.15.08.6.15,1.21.23,1.82-14.95,2.98-31.22,3.11-46.81,4.72-17.67,1.82-35.75,2.74-53.63,4.09-27.17,2.06-54.31,1.28-81.46-.14,1.42-.6,2.18-1.27,3.6-1.86Z"/>
      <path class="cls-1" d="M265.83,97.37c-.33,1.28-1.48,2.18-4.53,2.27-24.35.72-48.64,1.89-73.11.41-10.6-.64-21.48-.28-32.23-.35-3.88-.03-8.08.22-8.37-2.5,39.41-.45,78.83-.69,118.23.18Z"/>
      <path class="cls-2" d="M307.89,100.77c-2.99-.06-5.92-.17-6.27-2.05,21.69-.01,43.38,0,65.07-.05,3.71,0,7.81.55,10.84-1.09,7.43-1.5,14.92-.57,22.49-.29,10.04.37,20.15.31,30.23.44-.03.64-.07,1.29-.1,1.93-5.12,1.49-10.81.97-16.31.98-19.83.07-39.67.09-59.5.12-15.49,0-30.97,0-46.45.01Z"/>
      <path class="cls-11" d="M1868.45,272.46c-14.08.5-13.79.54-8.87-6.02,3.21-4.29,8.61-7.96,13.05-11.91,1.46-1.3,3.59-2,6.72-1.99-2.67,6.76-5.62,13.48-10.9,19.92Z"/>
      <path class="cls-4" d="M875.28,97.96c-1.32,1.87-4.65,1.7-7.76,1.7-18.77,0-37.54,0-56.31,0-3.1,0-6.45.19-7.82-1.67,23.96-.01,47.93-.02,71.89-.04Z"/>
      <path class="cls-12" d="M377.53,97.57c-3.03,1.64-7.13,1.08-10.84,1.09-21.69.05-43.38.04-65.07.05-.01-.35-.03-.71-.04-1.06,3.48-1.14,7.45-.74,11.21-.71,21.58.17,43.16.41,64.74.63Z"/>
      <path class="cls-4" d="M1366.52,101.7c3.99-2.03,12.19-.43,14.62-3.8,7.8.04,15.61.09,23.42.13-12,4.08-26.35,4.42-40.14,5.65.7-.66,1.4-1.32,2.11-1.98Z"/>
      <path class="cls-4" d="M430.16,99.65c.03-.64.07-1.29.1-1.93,9.15.04,18.3.07,27.45.11-3.05,3.27-9.16,1.5-13.89,1.8-4.48.28-9.1.04-13.66.02Z"/>
      <path class="cls-5" d="M700.22,12.76c-.73.69-1.47,1.38-2.2,2.06-4.47-2.49-3.97-5.26-2.05-8.12,1.44-.82,2.83-.78,4.17.06-1.31,2-1.59,4,.08,5.99Z"/>
      <path class="cls-5" d="M358.56,7.91c-.08-.61-.15-1.21-.23-1.82,3.71-.17,7.54-.75,10.75.73-2.93,1.6-6.97.81-10.52,1.09Z"/>
      <path class="cls-2" d="M135.11,96.95c-4.34,1.06-8.67,3.32-13.06.03,4.35-.01,8.7-.02,13.06-.03Z"/>
      <path class="cls-1" d="M143.51,97.2c-.32.91-.17,2.06-2.79,2.2-3.43.17-3.33-1.16-3.67-2.24,2.15.01,4.31.03,6.46.04Z"/>
      <path class="cls-8" d="M432.15,92.53c.95-1.03-1.27-3.07,2.73-2.98,2.41.05,1.31,1.92,1.88,2.96-1.54,0-3.07.02-4.61.02Z"/>
      <path class="cls-4" d="M799.38,98c-2.89,2.38-5.78,2.38-8.65,0,2.88,0,5.77,0,8.65,0Z"/>
      <path class="cls-2" d="M76.27,96.99c-2.32,2.2-4.63,2.2-6.94,0,2.31,0,4.63,0,6.94,0Z"/>
      <path class="cls-4" d="M784.62,98c-2.18,2.17-4.36,2.18-6.55,0,2.18,0,4.37,0,6.55,0Z"/>
      <path class="cls-2" d="M63.6,96.97c-1.62,1.81-3.22,1.8-4.79-.01,1.6,0,3.2,0,4.79.01Z"/>
      <path class="cls-2" d="M114.23,97c-1.63,1.79-3.24,1.78-4.84,0,1.61,0,3.22,0,4.84,0Z"/>
      <path class="cls-12" d="M1461.42,139.79c.35-.71.29-1.71,2.54-1.49.74.07,1.14.95,1.7,1.46-1.41.01-2.82.02-4.23.03Z"/>
      <path class="cls-2" d="M347.7,140.31c.3-.28.61-.55.91-.83.59.28,1.18.56,1.77.84-.89,0-1.79,0-2.68,0Z"/>
      <path class="cls-6" d="M1571.48,38.16c-34.44.02-68.78-1.28-103.15-1.64-41.74-.44-83.17.67-124.69,2.09-13.98.48-27.9.98-41.74,2.01-3.07.23-7.46.38-7.71-1.51-.25-1.87,4.17-1.19,6.67-1.37,22.84-1.7,46-1.92,68.89-3.17,23.09-1.26,46.22-.89,69.26-1.41,30.67-.69,61.56,1.04,92.37,1.35,27.34.28,54.69.83,82.06-.44,18.11-.84,36.38-1.16,54.58-1.23,42.78-.17,85.37-1.97,128.01-3.26,8.87-.27,18.3-.25,26.84-2.08,3.55-.76,7.42-1.4,7.42-3.7,0-2.58-4.28-3.33-8.33-3.82-13.25-1.6-26.74-2.61-40.36-3.16-17.77-.73-35.57-1.32-53.35-2.01-2.24-.09-5.85.42-5.96-1.19-.12-1.79,3.67-1.81,6.34-1.73,33.49.97,67.34.77,99.46,6.45,4.81.85,8.42,2.26,8.72,5.06.32,2.97-2.83,4.58-8.1,5.76-10.03,2.24-20.91,2.95-31.62,3.43-23,1.01-46.08,1.63-69.15,2.17-52.14,1.21-104.3,2.28-156.46,3.41Z"/>
      <path class="cls-6" d="M1716.89,25.74c-10.04,0-20.21.5-30.09-.1-22.61-1.36-45.43-.45-67.99-1.86-3.24-.2-8.35.36-7.97-1.9.31-1.8,5.24-1.09,8.06-1.04,29.67.61,59.34,1.31,89,2.02,3.45.08,6.67.62,8.99,2.87Z"/>
      <path class="cls-3" d="M1171.58,64.73c-9.08.59-18.82-.79-28.62-2-2.78-.34-4.65-1.03-3.2-2.44,1.47-1.43,4.14-1.92,6.76-.72,7.38,3.4,16.5,2.51,25.29,2.47,5.22-.02,10.44-.18,15.66-.19,2.18,0,4.62.41,4.7,1.54.1,1.34-2.64,1.3-4.68,1.32-4.89.04-9.78.01-15.92.01Z"/>
      <path class="cls-12" d="M1655.45,117.72c-8.81,1.62-18.04,1.96-27.37,2.01-.01-.33-.04-.66-.04-1-.12-9.29,7.79-12.24,27.33-10.15,3.4.36,7.18.72,8.1,2.69.82,1.74-1.49,2.78-4.43,3.58-2.32.63-3.43,1.62-3.59,2.87Z"/>
      <path class="cls-12" d="M1543.7,128.69c-4.57,1.26-9.58,1.78-14.81,1.92-.96-1.02-1.88-2.04-2.9-3.04-1.26-1.23-.17-2.25,1.47-3.09,2.04-1.06,4.56-.76,6.31.13,3.02,1.54,7.86,2.06,9.93,4.09Z"/>
      <path class="cls-1" d="M1923.24,109.65c6.51-.4,12.65.7,18.98,1.04-1.23,2.35-4.91,3.17-9.24,2.6-4.03-.53-10.38-.14-9.73-3.64Z"/>
      <path class="cls-12" d="M1733.47,113.7c-3.08,1.43-6.95.84-10.56.93.02-1.91.76-3.64,5.7-3.82,4.34-.16,4.78,1.34,4.86,2.89Z"/>
      <path class="cls-12" d="M1754.54,113.63c-4.92.01-9.84.02-14.76.04-.02-1.66.88-3.01,5.14-2.94,4.34.08,8.41.45,9.62,2.9Z"/>
      <path class="cls-6" d="M1366.52,101.7c-.7.66-1.4,1.32-2.11,1.98-15.88,2.79-32.72,3-49.25,3.98-48.48,2.85-97.22,1.94-145.88,2.02-.89,0-1.78.2-2.77.31.87,1.48,3.77,1.52,5.61,2.17,6.53,2.33,4.84,4.55-.7,6.38-5.52,1.83-12.1,2.6-18.69,3.09-31.12,2.31-62.24,3.02-93.87,2.31-28.39-.63-56.54-1.4-84.28-4.32-7.12-.75-13.95-2.16-20.84-3.36-4.99-.87-8.66-2.59-8.43-5.16.23-2.62,5.39-3.12,9.68-3.9,2.9-.53,6.43-.22,8.75-1.48,43.68-2.35,87.67-3.25,131.33-1.74,53.22,1.84,106.38,3.18,159.68,2.6,33.57-.37,66.94-2.36,100.22-4.53,3.81-.25,7.69-.24,11.53-.35ZM1074.26,120.66c16.74,0,29.75.28,42.69-.07,15.32-.42,30.58-1.38,45.36-3.5,2.22-.32,5.3-.46,5.44-1.95.14-1.64-2.67-2.15-5.47-2.56-6.36-.93-12.56-2.26-19.06-2.77-51.75-4.11-103.81-3.79-155.9-2.02-9.37.32-18.64,1.29-27.97,1.95-2.17.15-4.4.42-5.06,1.48-.91,1.44,1.55,2.03,3.74,2.6,5.26,1.37,10.84,2.34,16.72,2.9,34.1,3.24,68.54,4.49,99.52,3.96Z"/>
      <path class="cls-1" d="M307.89,100.77c15.48,0,30.97,0,46.45-.01-.23,2.54,3.09,3.04,7.5,2.92,18.7-.51,37.36,1.02,56.24-.55,8.4-.7,18.11.05,26.95.69,25.58,1.86,50.74.28,76.07-.98,11.99-.6,23.72,2,36.12,1.16,18.07-1.22,35.94.43,53.81,1.64,4.52.31,8.42.48,9.01,3.1-14.29,2.63-29.56,1.91-44.34,2.86-35.74,2.3-71.86,2.29-107.75,3.44-44.65,1.43-88.98-.23-133.37-.68-39.75-.4-79.38-3.01-119.22-3.85-24.09-.51-48.1-1.83-72.27-1.92-2.7-.01-5.39-.59-8.09-.91.44-1.08,1.64-2.04,4.06-1.9,18.32,1.13,36.18-2.22,55-.49,12.38,1.14,26.2,1.27,39.09-1.93,5.77-1.43,14.15-.7,21.33-.64,13.92.13,27.88-.57,41.79.81,4.25.42,11.31,1.44,11.62-2.77Z"/>
      <path class="cls-10" d="M1794.59,151.52c0,4.1.68,8.23-.11,12.3-3.77,19.42-3,39.08-12.87,58.19-2.48,4.81-5.1,9.7-11.9,13.72-2.97,1.75-6.39,3.17-11.62,2.7-5.3-.48-6.3-2.4-8.03-4.58-6.88-8.62-2.48-17.26-2.19-25.96.41-12.5,3.13-24.81,8.94-36.95,3.59-7.49,7.67-14.99,16.45-21.66.02,7.64-5.93,14.65-9.78,21.84-6.3,11.77-10.07,23.63-11.36,35.78-.74,6.95-2.76,13.83.29,20.75.57,1.29.45,2.66,1.33,3.89,1.12,1.57,2.84,3.31,6.72,3.5,4.18.2,5.92-1.6,7.28-3.1,7.8-8.6,11.76-17.71,14.09-26.93,3.91-15.46,5.08-31.02,6.62-46.57.24-2.38,1.91-4.72,2.93-7.08,1.07.06,2.15.12,3.22.17Z"/>
      <path class="cls-6" d="M1748.96,125.24c-10,1.19-20.02,2.33-29.98,3.59-2.99.38-7.17.8-7.27,2.42-.14,2.08,4.81,1.59,7.41,1.89,26.3,2.98,52.05.47,77.71-2.13,2.74-.28,7.22-.77,6.93-2.51-.39-2.29-5.15-1.81-8.42-1.8-10.04.02-19.99-2.04-30.16-.21-1.9.34-4.47-.19-5.05-1.3-.72-1.39,2.03-1.57,3.91-1.79,15.58-1.82,30.7-.15,45.22,2.16,7.02,1.11,5.47,5.61-2.72,7.14-8.74,1.63-17.9,2.94-27.51,2.95-20.71.03-41.43-.01-62.14.02-5.56,0-11.25-.19-12.47-3.28-1.27-3.22,3.78-4.87,9.34-5.72,11.24-1.73,22.75-2.87,34.57-2.88.21.49.42.98.63,1.47Z"/>
      <path class="cls-10" d="M215.19,171.22c0-5.33-.07-10.65.05-15.98.03-1.27-.01-3.06,3.92-2.86,3.27.17,2.02,1.85,2.26,2.91,2.14,9.41,1.07,18.8.76,28.25-.52,15.6,6.19,30.98,17.2,45.8,1.25,1.68,3.17,4,7.52,3.59,5.8-.55,5.6-3.35,6.21-5.67,4.96-18.86-.41-37.32-9.5-55.65-2.8-5.65-5.64-11.3-8.42-16.96-.6-1.21-2.56-2.9,1.26-3.34,3.38-.4,4.32,1.47,5.16,2.64,6.67,9.3,10.44,18.92,13.45,28.6,2.54,8.18,5.37,16.4,5.9,24.64.53,8.23-.36,16.56-3.74,24.7-1.16,2.79-3.91,5.5-11.5,5.57-7.36.07-8.68-2.71-10.9-5.17-10.87-12.05-14.75-24.8-17.78-37.7-1.83-7.8-1.76-15.57-1.86-23.37Z"/>
      <path class="cls-8" d="M1858.07,225c2.54-7.99,11.78-14.82,10.47-22.8-14.25,10.18-20.73,21.67-24.3,33.76-4.51-3.48-3.11-6.85-1.73-10.35,3.07-7.74,8.62-15.02,16.28-21.99,2.17-1.97,5.09-3.59,8.62-4.97,3.47-1.35,5.71-.65,7,1.17,3.59,5.06-6.41,21.16-16.34,25.18Z"/>
      <path class="cls-11" d="M1647.61,64.07c-33.22,4.58-67.02,5.95-101.46,3.32,9.21-4.34,73.16-6.92,101.46-3.32Z"/>
      <path class="cls-8" d="M146.73,214.51c6.6,8.9,9.05,11.16,4.28,11.64-4.38.45-5.51-1.69-6.83-3.17-3.13-3.51-6.35-7.02-8.85-10.64-1.13-1.64-5.93-4.25,2.83-4.79,2.5-.16.99-1.15.76-1.48-3.32-4.89-6.41-9.84-12.75-14.11-1.33-.9-3.05-2.08-5.82-1.8-3.17.32-1.95,1.93-2.93,2.92-3,3.02-.07,5.99,1.48,8.73,7.11,12.63,13.97,25.3,23.55,37.58,2.57,3.3,7.22,6.06,11.38,8.93,1.5,1.04,6.28,2.17,1.46,3.51-3.59,1-5.83-.79-7.18-2.05-4.61-4.29-9.69-8.52-13.07-13.03-10.2-13.58-20.03-27.23-22.66-41.76-.32-1.75.32-3.29,1.53-4.84,2.52-3.21,5.84-4.33,12.1-1.44,7.79,3.59,12.44,7.97,16.16,12.66,5.29,6.67,10.24,13.38,4.55,13.13-6.8-6.3-6.09-5.64-5.39-4.97.11,1.76-.4,3.62,3.55,5.12,1.04-2.37-.82-3.82-3.58-5.11-.7-.67-1.4-1.34,5.41,4.96Z"/>
      <path class="cls-1" d="M1074.26,120.66c-30.98.54-65.42-.72-99.52-3.96-5.88-.56-11.46-1.52-16.72-2.9-2.19-.57-4.65-1.16-3.74-2.6.67-1.05,2.89-1.32,5.06-1.48,9.32-.66,18.6-1.63,27.97-1.95,52.1-1.78,104.15-2.1,155.9,2.02,6.5.52,12.71,1.84,19.06,2.77,2.8.41,5.61.92,5.47,2.56-.13,1.48-3.21,1.63-5.44,1.95-14.78,2.12-30.04,3.09-45.36,3.5-12.94.35-25.95.07-42.69.07Z"/>
      <path class="cls-1" d="M141.32,209.55c2.75,1.3,4.62,2.75,3.58,5.11-3.95-1.5-3.44-3.37-3.55-5.12h-.03Z"/>
      <path class="cls-1" d="M141.34,209.54c-.71-.66-1.41-1.33-2.12-1.99.7.67,1.4,1.34,2.1,2,0,0,.03-.01.03-.01Z"/>
    </g>
  </g>
</svg>