<?xml version="1.0" encoding="UTF-8"?>
<svg id="Layer_2" data-name="Layer 2" xmlns="http://www.w3.org/2000/svg" viewBox="0 0 110.72 179.49">
  <defs>
    <style>
      .cls-1 {
        fill: #c54538;
      }

      .cls-1, .cls-2, .cls-3, .cls-4, .cls-5, .cls-6 {
        stroke-width: 0px;
      }

      .cls-2 {
        fill: #f6f3eb;
      }

      .cls-3 {
        fill: #e8a0c0;
      }

      .cls-4 {
        fill: #cfc7bf;
      }

      .cls-5 {
        fill: #372a23;
      }

      .cls-6 {
        fill: #aba49e;
      }
    </style>
  </defs>
  <g id="Layer_1-2" data-name="Layer 1">
    <g>
      <path class="cls-5" d="M.11,95.46C.11,79.32.31,63.17,0,47.04c-.12-6.34,1.63-11.76,5.27-16.71,2.5-3.4,4.4-6.72,3.88-11.34-.5-4.51,2.34-7.79,5.99-10.25,6.8-4.57,14.53-6.63,22.47-7.55,16.29-1.89,32.52-1.99,48.36,3.3,3.33,1.11,6.48,2.61,9.42,4.5,3.55,2.29,6.16,5.55,5.84,9.83-.34,4.57,1.37,7.99,4.01,11.33,3.97,5.02,5.38,10.68,5.34,17.15-.18,32.62-.19,65.23.13,97.85.07,6.85-2.54,11.45-7.95,14.94-2.52,1.63-4.63,3.33-5.86,6.36-1.48,3.67-4.79,5.86-8.53,7.2-21.62,7.79-43.29,7.66-64.98.32-4.74-1.6-8.63-4.51-10.79-9.07-1.11-2.35-3.09-3.41-4.9-4.76-5.13-3.82-7.78-8.47-7.62-15.26.39-16.47.13-32.95.13-49.42h-.11ZM92.34,166.4c-1.38-.55-2.58.13-3.82.57-15.34,5.45-31.09,6.57-47.15,4.53-8.06-1.02-15.8-3.36-24.19-6.45,2.57,4.38,6.24,5.74,9.74,6.79,19.62,5.91,39.25,5.97,58.71-.75,2.55-.88,5.44-1.75,6.63-4.75.21-.15.43-.31.64-.46-.13-.06-.27-.11-.4-.17-.05.23-.11.46-.16.69ZM9.62,70.94q-6.11-3.3-6.09,3.53c.02,15.28.22,30.55-.06,45.82-.09,4.83,1.12,7.97,6.01,9.12l5.62,2.33c9.48,3.85,19.47,5.49,29.57,6.24,19.8,1.47,39.12-.57,57.55-8.62,3.51-1.53,4.92-3.69,4.86-7.62-.24-14.45-.13-28.91-.19-43.37-.01-2.98.96-7.45-.54-8.59-2.37-1.8-5.46,1.69-8.41,2.42-.48.12-.96.26-1.43.41-26.98,8.7-54.02,8.75-81.11.5-1.92-.73-3.85-1.46-5.77-2.19ZM66.29,168.3c11.95-.65,23.18-3.78,33.38-10.08,5.04-3.11,8.44-7.29,7.65-13.91-.43-3.6-.18-7.29-.07-10.94.08-2.67-.41-3.75-3.31-2.24-2.77,1.45-5.79,2.42-8.69,3.6-18.99,5.91-38.36,7.45-58.02,4.7-7.01-.98-13.92-2.6-20.88-3.92-2.14-1.45-4.38-2.66-6.96-3.11-1.7-1.2-3.42-2.36-5.65-2.72,0,5.11.33,9.92-.08,14.67-.64,7.44,3.22,11.85,9.18,15.03,16.8,8.97,34.68,11.62,53.44,8.9ZM9.3,67.63c1.75,1.47,3.8,2.25,6.02,2.63,2.55.97,5.06,2.07,7.66,2.9,14.44,4.58,29.33,3.63,44.08,2.93,10.03-.48,20.07-1.96,29.38-6.31q10.69-3.39,10.65-14.07c0-2.16-.26-4.35.03-6.47,1.2-9-2.77-15.97-8.58-22.6-2.68,3.52-6.88,4.58-10.27,6.9-26.44,8.07-52.19,8.04-77.14-6.34-.94,1.61-1.99,3.46-3.09,5.29-5.72,9.51-5.11,7.93,3.32,13.1.55.39,1.1.79,1.66,1.18.06,1.3,3.12.02,1.96,2.58-3.73-1.91-7.41-3.8-11.32-5.81,0,5.63.29,10.91-.09,16.13-.33,4.56,1.08,7.28,5.74,7.96ZM55.46,3.61c-2.83,0-5.68-.23-8.48.04-10.27,1.01-20.58,1.93-29.58,7.78-6.51,4.23-6.77,10.76-.6,15.49,2.8,2.15,5.95,3.64,9.29,4.71,14.66,4.69,29.62,5.87,44.82,3.52,7.37-1.14,14.52-3.1,21.12-6.79,7.89-4.41,8.32-11.86.91-16.9-3.62-2.46-7.52-4.11-11.78-5.18-8.45-2.12-17.03-2.87-25.71-2.68Z"/>
      <path class="cls-1" d="M15.39,73.13c27.09,8.25,54.13,8.2,81.11-.5.47-.15.95-.29,1.43-.41,2.95-.74,6.05-4.22,8.41-2.42,1.5,1.14.52,5.61.54,8.59.06,14.46-.05,28.91.19,43.37.06,3.93-1.35,6.08-4.86,7.62-18.43,8.05-37.75,10.08-57.55,8.62-10.1-.75-20.09-2.4-29.57-6.24.19-1.8.54-3.6.53-5.41-.05-17.74-.15-35.47-.24-53.21Z"/>
      <path class="cls-4" d="M96.45,69.78c-9.31,4.36-19.35,5.83-29.38,6.31-14.75.7-29.64,1.65-44.08-2.93-2.6-.83-5.11-1.93-7.66-2.9-.01-3.95,0-7.91-.04-11.86-.02-2.12-.53-4.34-2.99-4.29-2.15.05-2.57,2.39-2.72,4.14-.27,3.11-.21,6.25-.28,9.38-4.66-.68-6.07-3.4-5.74-7.96.38-5.22.09-10.5.09-16.13,3.91,2.01,7.59,3.89,11.32,5.81,1.17-2.57-1.9-1.28-1.96-2.58,3.61-.8,4.78-3.63,5.67-6.75.34-1.21.54-2.28-.73-3-1.43-.81-2.61-.13-3.45.96-1.73,2.23-3.03,4.68-3.14,7.61-8.43-5.16-9.04-3.59-3.32-13.1,1.1-1.83,2.15-3.68,3.09-5.29,24.95,14.37,50.71,14.4,77.14,6.34.41.88.63,1.95,1.27,2.6,5.24,5.37,7.74,11.55,6.92,19.23-.51,4.75-.04,9.6,0,14.41ZM20.73,50.15c15.34,9.52,58.4,8.7,72.61-1.06-24.86,6.78-48.67,7.97-72.61,1.06Z"/>
      <path class="cls-4" d="M16.34,135.52c6.96,1.33,13.88,2.94,20.88,3.92,19.66,2.75,39.03,1.21,58.02-4.7.3,10.68-2.31,19.74-12.66,25.29-3.82,2.05-7.71,3.66-11.74,5.09-1.81.64-4.02.72-4.57,3.18-18.76,2.72-36.64.07-53.44-8.9-5.96-3.18-9.82-7.6-9.18-15.03.41-4.75.08-9.57.08-14.67,2.22.36,3.95,1.52,5.65,2.72.13,5.48.08,10.97.47,16.43.14,1.99.67,4.63,3.73,4.36,3.13-.27,2.76-2.79,2.75-4.93-.02-4.25-1.7-8.5,0-12.75Z"/>
      <path class="cls-6" d="M66.29,168.3c.54-2.46,2.76-2.54,4.57-3.18,4.03-1.43,7.92-3.04,11.74-5.09,10.34-5.55,12.96-14.6,12.66-25.29,2.91-1.18,5.93-2.15,8.69-3.6,2.9-1.52,3.38-.43,3.31,2.24-.1,3.65-.36,7.34.07,10.94.8,6.61-2.61,10.79-7.65,13.91-10.2,6.3-21.44,9.43-33.38,10.08Z"/>
      <path class="cls-6" d="M96.45,69.78c-.03-4.81-.5-9.66,0-14.41.82-7.67-1.67-13.85-6.92-19.23-.64-.66-.86-1.73-1.27-2.6,3.39-2.32,7.58-3.38,10.27-6.9,5.81,6.64,9.79,13.6,8.58,22.6-.28,2.12-.03,4.31-.03,6.47q.04,10.68-10.65,14.07Z"/>
      <path class="cls-6" d="M55.46,3.61c8.68-.19,17.25.56,25.71,2.68,4.26,1.07,8.16,2.72,11.78,5.18,7.41,5.04,6.98,12.49-.91,16.9-6.6,3.69-13.75,5.65-21.12,6.79-15.2,2.35-30.16,1.16-44.82-3.52-3.34-1.07-6.49-2.56-9.29-4.71-6.17-4.73-5.91-11.26.6-15.49,9-5.85,19.32-6.78,29.58-7.78,2.8-.27,5.65-.04,8.48-.04ZM55.01,5.87c-10.44.69-21.01.59-30.86,4.73-4.16,1.75-9.66,2.92-9.57,8.74.08,5.89,5.45,7.56,9.92,9.08,20.59,6.97,41.28,7.38,61.9.05,4.5-1.6,9.83-3.07,9.9-9.01.06-5.78-5.37-7.14-9.51-8.84-10.16-4.16-20.97-4.64-31.77-4.75Z"/>
      <path class="cls-3" d="M15.39,73.13c.09,17.74.19,35.47.24,53.21,0,1.8-.34,3.6-.53,5.41-1.87-.78-3.75-1.55-5.62-2.33.05-19.49.09-38.98.14-58.47,1.92.73,3.85,1.46,5.77,2.19Z"/>
      <path class="cls-1" d="M9.62,70.94c-.05,19.49-.09,38.98-.14,58.47-4.89-1.15-6.1-4.29-6.01-9.12.28-15.27.08-30.55.06-45.82q0-6.83,6.09-3.53Z"/>
      <path class="cls-6" d="M92.26,166.34c-1.19,3-4.08,3.87-6.63,4.75-19.46,6.72-39.1,6.66-58.71.75-3.5-1.05-7.17-2.41-9.74-6.79,8.4,3.08,16.13,5.42,24.19,6.45,16.06,2.04,31.81.91,47.15-4.53,1.24-.44,2.43-1.12,3.82-.57l-.08-.06Z"/>
      <path class="cls-2" d="M16.34,135.52c-1.71,4.25-.03,8.5,0,12.75,0,2.14.38,4.66-2.75,4.93-3.06.27-3.58-2.37-3.73-4.36-.39-5.46-.34-10.95-.47-16.43,2.58.45,4.82,1.66,6.96,3.11Z"/>
      <path class="cls-2" d="M9.3,67.63c.08-3.13.02-6.27.28-9.38.15-1.76.57-4.1,2.72-4.14,2.46-.05,2.97,2.17,2.99,4.29.03,3.95.03,7.91.04,11.86-2.23-.37-4.27-1.16-6.02-2.63Z"/>
      <path class="cls-2" d="M11.35,45.58c.11-2.92,1.41-5.37,3.14-7.61.84-1.09,2.02-1.77,3.45-.96,1.27.72,1.08,1.8.73,3-.88,3.12-2.06,5.94-5.67,6.75-.55-.39-1.1-.79-1.66-1.18Z"/>
      <path class="cls-6" d="M92.34,166.4c.05-.23.11-.46.16-.69.13.06.27.11.4.17-.21.15-.43.31-.64.46,0,0,.08.06.08.06Z"/>
      <path class="cls-5" d="M20.73,50.15c23.94,6.92,47.75,5.72,72.61-1.06-14.22,9.76-57.27,10.58-72.61,1.06Z"/>
      <path class="cls-5" d="M55.01,5.87c10.8.11,21.61.59,31.77,4.75,4.15,1.7,9.58,3.06,9.51,8.84-.07,5.94-5.4,7.4-9.9,9.01-20.62,7.33-41.31,6.93-61.9-.05-4.47-1.51-9.83-3.19-9.92-9.08-.08-5.82,5.42-6.99,9.57-8.74,9.85-4.14,20.42-4.04,30.86-4.73ZM57.89,30.67c8.73-.17,19.77-1.13,30.11-5.88,2.37-1.09,5.4-2.1,5.45-5.18.05-3.27-2.99-4.62-5.51-5.78-6.39-2.96-13.24-4.29-20.22-4.83-14.84-1.15-29.54-.62-43.72,4.45-3.03,1.08-7.19,2.52-7.09,6.07.1,3.47,4.24,4.8,7.3,5.96,10.05,3.82,20.54,5.18,33.69,5.19Z"/>
      <path class="cls-6" d="M57.89,30.67c-13.15-.01-23.64-1.37-33.69-5.19-3.06-1.16-7.2-2.49-7.3-5.96-.1-3.56,4.06-4.99,7.09-6.07,14.18-5.07,28.88-5.6,43.72-4.45,6.98.54,13.83,1.87,20.22,4.83,2.52,1.17,5.56,2.51,5.51,5.78-.05,3.08-3.08,4.09-5.45,5.18-10.33,4.76-21.38,5.71-30.11,5.88ZM45.72,11.18c-3.56.17-6.24-.03-8.68,1.29-3.26,1.76-5.86,4.17-5.2,8.17.69,4.19,3.9,6.35,7.84,6.28,7.78-.14,15.54-.88,22.84-3.95,2.19-.92,4.35-2.16,4.13-4.96-.21-2.7-2.35-4.06-4.69-4.47-5.68-1-11.42-1.69-16.24-2.37Z"/>
      <path class="cls-5" d="M45.72,11.18c4.82.69,10.56,1.38,16.24,2.37,2.34.41,4.48,1.76,4.69,4.47.22,2.8-1.94,4.04-4.13,4.96-7.3,3.07-15.07,3.81-22.84,3.95-3.94.07-7.15-2.1-7.84-6.28-.66-4,1.94-6.41,5.2-8.17,2.44-1.32,5.13-1.12,8.68-1.29ZM49.89,16.14c-.25-.26-.5-.52-.75-.79-3.46-3.39-7.37-1.95-11.02-.7-2.67.91-4.55,3.09-3.81,6.2.67,2.83,3.09,3.96,5.75,3.8,4.31-.25,8.61-.88,13.26-1.39-1.41-1.31-3.43-.78-3.92-3.16,3.96.98,7.74,2.29,11.6,1.07,1.39-.44,3.08-1.04,3.04-2.85-.03-1.55-1.6-1.99-2.82-2.43-1.07-.39-2.24-.66-3.33.11.66.84,2.59.2,2.35,1.97-.21,1.53-1.55,1.65-2.68,1.64-2.25-.03-4.79.43-5.2-3.06-.25-2.13-1.53-.84-2.46-.41Z"/>
      <path class="cls-6" d="M49.89,16.14c.93-.43,2.21-1.72,2.46.41.41,3.48,2.94,3.03,5.2,3.06,1.13.01,2.47-.11,2.68-1.64.25-1.77-1.69-1.13-2.35-1.97,1.09-.77,2.25-.5,3.33-.11,1.22.44,2.79.88,2.82,2.43.04,1.81-1.65,2.41-3.04,2.85-3.86,1.22-7.64-.09-11.6-1.07.49,2.37,2.51,1.85,3.92,3.16-4.65.51-8.94,1.14-13.26,1.39-2.66.16-5.08-.97-5.75-3.8-.73-3.1,1.15-5.29,3.81-6.2,3.65-1.25,7.56-2.69,11.02.7-2.79.03-5.6-.15-8.36.17-2.58.3-4.33,2.05-3.89,4.74.47,2.89,2.89,3.17,5.38,3.08,4.7-.16,5.98-3.85,7.62-7.21Z"/>
      <path class="cls-5" d="M49.89,16.14c-1.64,3.35-2.92,7.05-7.62,7.21-2.48.08-4.91-.2-5.38-3.08-.44-2.7,1.31-4.45,3.89-4.74,2.76-.32,5.57-.13,8.36-.17.25.26.5.52.75.79ZM43.32,17.32c-1.64.13-3.64-.17-3.96,1.96-.27,1.8,1.48,1.86,2.72,1.96,1.73.14,3.45-.34,3.82-2.24.43-2.24-1.61-1.31-2.58-1.68Z"/>
      <path class="cls-6" d="M43.32,17.32c.97.37,3-.56,2.58,1.68-.36,1.9-2.08,2.39-3.82,2.24-1.23-.1-2.99-.17-2.72-1.96.32-2.13,2.32-1.83,3.96-1.96Z"/>
    </g>
  </g>
</svg>