<?xml version="1.0" encoding="UTF-8"?>
<svg id="Layer_2" data-name="Layer 2" xmlns="http://www.w3.org/2000/svg" viewBox="0 0 183.12 198.8">
  <defs>
    <style>
      .cls-1 {
        fill: #b8b8b6;
      }

      .cls-1, .cls-2, .cls-3, .cls-4, .cls-5, .cls-6, .cls-7, .cls-8, .cls-9 {
        stroke-width: 0px;
      }

      .cls-2 {
        fill: #abbcca;
      }

      .cls-3 {
        fill: #f7f3e9;
      }

      .cls-4 {
        fill: #252423;
      }

      .cls-5 {
        fill: #bcd2e5;
      }

      .cls-6 {
        fill: #f2f0ee;
      }

      .cls-7 {
        fill: #cdcdcd;
      }

      .cls-8 {
        fill: #e2daca;
      }

      .cls-9 {
        fill: #699cd0;
      }
    </style>
  </defs>
  <g id="Layer_1-2" data-name="Layer 1">
    <g>
      <path class="cls-4" d="M70.41,28.53c-2.81-3.82-5.27-7.37-7.01-11.35-2.16-4.91-3.11-10-2.08-15.35.27-1.41.73-2.27,2.42-1.59,11.2,4.55,23.06,5.22,34.91,5.94,8.8.53,17.64.66,26.31,2.66,10.55,2.43,17.49,8.66,20.04,19.2.94,3.89,2.67,5.65,6.65,6.55,8.15,1.85,16.13,4.49,23.26,9.08,2.96,1.91,5.66,4.09,7.22,7.42,1.44,3.08,1.3,6-.37,8.93-2.37,4.19-6.22,6.65-10.38,8.6-2,.94-2.71,2.14-2.99,4.26-1.64,12.36-3.5,24.7-5.2,37.05-3.03,22-6.06,44-8.95,66.01-.93,7.1-5.63,10.89-11.43,13.69-8.57,4.14-17.74,6.25-27.13,7.55-17.09,2.35-34.16,2.09-51.18-.5-8.51-1.3-16.85-3.37-24.59-7.35-2.86-1.47-5.49-3.29-7.6-5.74-1.73-2-2.75-4.35-3.11-6.98-2.49-18.08-4.96-36.16-7.5-54.23-2.19-15.51-4.64-30.98-6.59-46.52-.52-4.15-1.56-6.95-5.74-8.52-2.89-1.09-5.22-3.34-7.12-5.92-2.85-3.88-3.03-8.13-.24-12.04,3.17-4.44,7.79-6.98,12.61-9.12,8.81-3.9,18.1-6.16,27.53-7.99,9.19-1.79,18.49-2.79,28.27-3.74ZM149.9,42.47c-.18,0-.35,0-.53-.01.04.16.08.32.12.48.86,3.5,2.5,6.64,4.47,9.62,1.24,1.87,2.84,3.35,4.92,4.25,1.66.72,3.27.8,4.54-.77,1.3-1.6,1.8-3.36.68-5.25-1.02-1.73-2.48-3.05-4.22-4.05-3.16-1.82-6.41-3.42-9.98-4.27ZM155.14,148.29l.25-.5c1.84-12.92,3.67-25.84,5.51-38.76.35-2.54.71-5.07,1.08-7.72-47.01,14.87-93.81,15.29-140.85-.08.4,2.59.77,4.97,1.14,7.36,1.82,13.24,3.64,26.49,5.45,39.73.17,1.59.41,3.17.51,4.76.11,1.66.94,2.43,2.52,2.95,15.28,5.01,31,7.42,47.01,8.29,15.17.82,30.25.12,45.3-1.93,10.13-1.38,20.05-3.54,29.73-6.81.85-.29,1.79-.4,1.86-1.65.11-1.89.32-3.78.48-5.67v.02ZM68.65,21.81c1.65,2.55,3.43,4.99,5.82,6.91,1.38,1.46,3.07,2.43,4.91,3.21,19.84,8.45,40.06,15.83,60.79,21.79,4.55,1.31,9.16,2.37,14.51,3.34-4.16-3.9-5.69-8.55-7.63-12.97-1.09-3.8-2.19-7.59-3.28-11.39-.34-2.07-.81-4.09-1.8-5.96-2.43-8.7-8.71-13.29-16.98-15.45-6.49-1.69-13.2-2.04-19.88-2.41-13.63-.76-27.37-.84-40.39-5.82-.95-.36-1.38-.13-1.39.96-.01,3.73.16,7.41,1.77,10.87.72,2.54,2.03,4.78,3.55,6.91ZM72.24,69.34c.33.29.71.3,1.11.17.31.02.62.03.92.05l2.29.05c.3.01.6.02.9.03.16,0,.31.02.47.02,1.36.04,2.71.09,4.07.13.14.06.27.17.41.18,19.88.42,39.67-.46,59.2-4.54,5.33-1.11,10.49-2.81,15.46-5.34-6.26-.9-12.26-2.72-18.37-4.11-.18-.13-.34-.33-.54-.38-13.31-3.7-26.37-8.14-39.19-13.26-.78-.31-1.44-.22-2.18,0-6.6,1.96-13.13,1.85-19.68-.43-5-1.73-9.84-1-14,2.3-4.87,3.85-10.23,5.78-16.47,5.34-4.39-.31-8.62.61-12.65,2.37-3.96,1.73-7.74,3.77-11.23,7.15,15.96,7.44,32.63,9.31,49.5,10.27ZM17.39,75.22c1,7.22,2.03,14.43,2.95,21.66.14,1.13.65,1.53,1.58,1.87,16.01,5.81,32.57,9.2,49.5,10.6,18.08,1.49,36.14,1.06,54.1-1.75,6.59-1.03,13.18-2.13,19.58-4.09,5.59-1.16,10.96-3.06,16.36-4.87,1.05-.35,1.15-1.1,1.26-1.92,1.12-7.9,2.23-15.8,3.32-23.71.08-.56.29-1.17-.13-1.71-19.5,7.06-36.01,8.87-55.22,10.17-14.52.99-29.06.8-43.59-.4-15.8-1.3-31.42-3.54-46.53-8.61-3.8-1.28-3.82-1.23-3.19,2.75ZM29.67,158.17c-.16-.04-.31-.09-.47-.13.01.17.03.35.04.52.64,5.04,1.53,10.07,1.86,15.14.44,6.69,4.32,10.58,9.83,13.42,6.13,3.16,12.67,5.11,19.4,6.37,17.08,3.19,34.26,3.94,51.52,1.79,4.88-.61,9.8-1.1,14.51-2.67,4.52-.72,8.78-2.28,12.98-4.04,7.3-3.07,13.02-7.34,12.83-16.29,0-.07.04-.15.05-.22.55-4.58,1.47-9.12,1.67-13.98-5.93,1.69-11.66,3.41-17.51,4.61-12.96,2.34-26,4.04-39.19,4.35-22.96.54-45.59-1.55-67.52-8.86ZM75.52,32.69c-1.32-.62-1.97-2.21-3.67-2.06-12.19,1.1-24.34,2.57-36.26,5.41-8.94,2.13-17.82,4.5-25.76,9.43-2.22,1.38-4.28,2.91-5.83,5.04-2.39,3.29-2.35,6.42.17,9.61,1.67,2.12,3.81,3.69,6.1,5.09,4.77,2.93,10.01,4.73,15.31,6.35,18.63,5.7,37.86,7.41,57.17,8.06,21.19.71,42.28-.74,63.1-4.99,9.09-1.86,17.99-4.42,26.19-8.95,2.96-1.63,5.66-3.6,7.5-6.51,1.83-2.88,1.71-5.52-.23-8.28-1.56-2.22-3.57-3.93-5.87-5.33-7.36-4.44-15.46-7-23.7-9.17-.69-.18-1.99-1.05-2.15-.07-.17,1.03-.2,2.67,1.4,3.25.5.18,1.02.3,1.52.48,5.08,1.83,10.2,3.6,14.12,7.59,3.17,3.23,3.13,7.32-.01,10.52-2.34,2.39-5.24,3.88-8.26,5.13-11.22,4.62-23.09,6.42-35.03,7.73-15.92,1.75-31.9,1.93-47.88.96-13.22-.8-26.34-2.36-39.15-5.93-5.22-1.45-10.25-3.35-14.56-6.77-4.9-3.89-4.91-8.92-.06-12.82,1.97-1.58,4.17-2.77,6.45-3.8,10.36-4.68,21.48-6.39,32.58-8.1,5.54-.85,11.11-1.47,16.79-1.88ZM94.15,40.73c-8.01-3.34-15.18-7.47-23.77-5.12-.94.26-1.96.2-2.95.3-13.19,1.3-26.23,3.36-38.68,8.12-3.41,1.31-6.75,2.87-9.09,5.85-1.7,2.16-1.58,4.06.14,6.19.78.96,1.31,1.27,2.49.25,7.04-6.06,15.19-9.67,24.56-9.21,5.19.26,9.66-.83,13.62-3.97,5.85-4.62,12.16-5.29,19.1-2.96,4.54,1.52,9.24,1.73,14.59.55Z"/>
      <path class="cls-5" d="M27.73,148.33c-1.82-13.24-3.64-26.49-5.45-39.73.74.15,1.49.25,2.21.47,7.69,2.39,15.45,4.54,23.34,6.11,11.03,2.19,22.17,3.58,33.42,3.83,9.42.21,18.85.42,28.25-.45,6.49-.6,13.01-.99,19.45-2.09,4.93-.84,9.87-1.66,14.8-2.49-.17,7.44-1.85,14.71-2.55,22.09-.5,5.28-1.86,10.44-2.09,15.75-3.69,1.24-7.58,1.48-11.37,2.24-9.86,1.96-19.84,2.88-29.85,3.29-9.8.4-19.62.24-29.4-.77-8.92-.92-17.81-2.02-26.5-4.24-4.78-1.22-9.63-2.19-14.24-4ZM114.61,128.52q-4.66.1-4.34,4.77c.03.45.04.91.07,1.37.26,3.79.52,7.58.8,11.37.06.87.27,1.77,1.38,1.72,1.21-.06,1.4-.97,1.34-1.97-.07-1.06-.2-2.12-.22-3.18,0-.62-.42-1.4.48-1.79.92-.4,1.61-.02,2.19.7.9,1.13,1.76,2.29,2.71,3.37.84.96,1.65,2.87,3.14,1.73,1.56-1.2.18-2.53-.82-3.62-.72-.78-1.34-1.65-2.08-2.41-.81-.83-.79-1.29.19-2.09,2.35-1.93,2.86-4.23,1.65-6.68-1.33-2.69-3.73-3.35-6.48-3.27ZM75.21,137.76c.13-1.18-.15-2.53-.57-3.83-1.68-5.27-7.75-6.69-11.42-2.71-2.84,3.08-3.59,8.74-1.64,12.4,2.51,4.73,8.52,5.14,11.64.78,1.37-1.92,1.96-4.09,1.98-6.65ZM77.36,139.66c-.08,2.05.4,3.94,1.53,5.64,1.99,2.99,5.84,3.98,8.85,2.33,2.28-1.25,4.16-5.35,3.21-7.72-.98-2.43-3.4-1.28-5.21-1.57-1.07-.17-2.12.23-2.11,1.48.01,1.21,1.08,1.2,2.04,1.27.82.06,2.07-.68,2.36.48.3,1.17-.25,2.41-1.19,3.3-1.62,1.54-4.41,1-5.67-1.11-1.03-1.71-1.16-3.62-.85-5.53.69-4.23,3.52-6.15,7.73-5.28.82.17,1.4-.1,1.68-.76.35-.81,0-1.46-.82-1.85-2.12-1.01-4.22-1.12-6.33.06-3.63,2.03-5.02,5.3-5.23,9.25ZM93.86,135.3c-.05,3.29.14,6.54,1.76,9.52,1.06,1.95,2.65,3.07,4.9,3.18,2.34.11,4.05-1.08,4.97-3.01,2.14-4.5,1.82-9.3,1.18-14.08-.09-.66-.62-1.01-1.33-1-.73.02-1.16.46-1.22,1.11-.07.82.02,1.66.06,2.49.16,3.34.45,6.71-1.11,9.83-1.14,2.28-3.11,2.44-4.66.43-.8-1.05-1.19-2.26-1.34-3.58-.28-2.42-.41-4.84-.38-7.27.01-1.08.29-2.58-1.44-2.53-1.68.05-1.31,1.55-1.38,2.62-.05.76-.01,1.52-.01,2.28ZM50.46,143.66c.06,1.02.2,2.16,1.41,2.27,1.27.12,1.54-.94,1.47-2.05-.35-5.28,1.69-9.57,5.47-13.14.22-.21.41-.45.61-.68.71-.79,1.31-1.81.38-2.59-1.01-.85-1.96-.09-2.68.83-1.08,1.38-2.22,2.71-3.27,4.1-.83,1.1-1.36,1.19-2-.2-.79-1.72-1.79-3.35-2.69-5.03-.46-.86-.98-1.68-2.1-1.07-1.13.62-.65,1.53-.24,2.37.1.2.22.4.33.6,2.6,4.5,5.37,8.96,3.3,14.57ZM136.4,128.25c-.29-1.05-.98-1.36-2.07-1.23-3.02.38-6.04.7-9.07,1.02-1.03.11-2.18.19-2.01,1.57.16,1.34,1.38,1.17,2.35,1.16.37,0,.74-.14,1.12-.22,1.44-.31,1.95.19,2.02,1.73.17,3.65.55,7.29.9,10.92.1,1.01-.02,2.41,1.51,2.37,1.84-.05,1.28-1.59,1.21-2.62-.19-3.04-.46-6.07-.78-9.1-.35-3.4-.39-3.39,2.88-4.08.88-.19,1.89-.23,1.93-1.54Z"/>
      <path class="cls-3" d="M126.36,192.61c-4.71,1.57-9.63,2.06-14.51,2.67-17.27,2.15-34.45,1.41-51.52-1.79-6.73-1.26-13.27-3.21-19.4-6.37-5.52-2.85-9.4-6.73-9.83-13.42-.33-5.06-1.22-10.09-1.86-15.14.14-.13.29-.26.43-.4,21.94,7.31,44.56,9.4,67.52,8.86,13.19-.31,26.23-2.01,39.19-4.35-.45,2.9-.76,5.83-1.37,8.7-1.18,5.61-2.21,11.26-5.01,16.41-.99,1.83-3.07,2.74-3.64,4.82Z"/>
      <path class="cls-3" d="M145.1,103.51c-6.4,1.96-12.99,3.06-19.58,4.09-17.96,2.81-36.02,3.24-54.1,1.75-16.94-1.39-33.49-4.78-49.5-10.6-.93-.34-1.44-.74-1.58-1.87-.92-7.23-1.95-14.44-2.95-21.66.44.1.91.13,1.32.31,9.38,4.09,19.19,6.61,29.22,8.53,11.95,2.28,24.01,3.33,36.12,3.85,9.49.41,19.01.16,28.49-.46,2.34-.15,4.69-.28,7.03-.49,4.9-.43,9.76-1.38,14.71-1.28,5.65.12,9.13,2.83,10.45,8.29.76,3.15.19,6.36.36,9.54Z"/>
      <path class="cls-3" d="M74.27,69.57c-.31-.02-.62-.03-.92-.05-.33-.31-.71-.31-1.11-.17-16.87-.96-33.54-2.82-49.5-10.27,3.5-3.39,7.28-5.42,11.23-7.15,4.03-1.76,8.26-2.68,12.65-2.37,6.25.44,11.6-1.49,16.47-5.34,4.17-3.29,9.01-4.03,14-2.3,6.55,2.27,13.07,2.39,19.68.43.74-.22,1.4-.31,2.18,0,12.83,5.12,25.89,9.56,39.19,13.26.2.06.36.25.54.38-.04,3.04-1.35,4.87-4.66,5.88-2.89.89-5.87,1.48-8.81,2.21-7.5,1.87-15.16,2.88-22.77,4.13-5.87.96-11.9,1.19-17.89,1.07-.87-.02-1.85-.29-2.57.54-1.36-.04-2.71-.09-4.07-.13-.15-.22-.3-.22-.47-.02-.3-.01-.6-.02-.91-.03-.75-.53-1.51-.53-2.29-.05ZM92.01,60.2c5.29,1.31,10.13,1.01,14.89-.29,1.25-.34,3.43-.86,2.72-2.61-.68-1.67-2.61-.89-4.01-.26-2.01.9-4.08,1.46-6.27,1.85-2.29.4-4.73-.14-7.32,1.32Z"/>
      <path class="cls-6" d="M75.52,32.69c-5.68.41-11.26,1.03-16.79,1.88-11.1,1.71-22.21,3.41-32.58,8.1-2.29,1.03-4.48,2.22-6.45,3.8-4.85,3.9-4.85,8.93.06,12.82,4.31,3.42,9.34,5.32,14.56,6.77,12.81,3.57,25.93,5.13,39.15,5.93,15.98.97,31.96.79,47.88-.96,11.94-1.31,23.81-3.11,35.03-7.73,3.02-1.24,5.91-2.74,8.26-5.13,3.14-3.2,3.18-7.29.01-10.52-3.92-3.99-9.04-5.76-14.12-7.59-.5-.18-1.02-.3-1.52-.48-1.6-.57-1.57-2.22-1.4-3.25.16-.98,1.45-.11,2.15.07,8.24,2.16,16.34,4.72,23.7,9.17,2.31,1.39,4.32,3.11,5.87,5.33,1.94,2.76,2.06,5.4.23,8.28-1.84,2.91-4.55,4.88-7.5,6.51-8.2,4.53-17.1,7.09-26.19,8.95-20.82,4.25-41.91,5.7-63.1,4.99-19.32-.65-38.55-2.36-57.17-8.06-5.3-1.62-10.54-3.42-15.31-6.35-2.29-1.4-4.43-2.97-6.1-5.09-2.52-3.2-2.56-6.32-.17-9.61,1.55-2.14,3.61-3.66,5.83-5.04,7.94-4.93,16.82-7.3,25.76-9.43,11.92-2.85,24.07-4.31,36.26-5.41,1.7-.15,2.36,1.44,3.67,2.06Z"/>
      <path class="cls-8" d="M145.1,103.51c-.16-3.18.41-6.39-.36-9.54-1.32-5.46-4.8-8.17-10.45-8.29-4.95-.1-9.81.84-14.71,1.28-2.34.21-4.69.33-7.03.49-9.48.62-19,.87-28.49.46-12.11-.52-24.17-1.57-36.12-3.85-10.03-1.92-19.85-4.43-29.22-8.53-.41-.18-.88-.21-1.32-.31-.63-3.98-.62-4.02,3.19-2.75,15.1,5.07,30.72,7.31,46.53,8.61,14.52,1.2,29.07,1.39,43.59.4,19.21-1.31,35.73-3.11,55.22-10.17.42.54.21,1.15.13,1.71-1.09,7.91-2.2,15.81-3.32,23.71-.12.82-.21,1.56-1.26,1.92-5.4,1.81-10.76,3.71-16.36,4.87Z"/>
      <path class="cls-9" d="M143.74,113.97c-4.93.83-9.87,1.65-14.8,2.5-6.44,1.1-12.96,1.49-19.45,2.09-9.4.87-18.84.66-28.25.45-11.24-.25-22.39-1.65-33.42-3.83-7.89-1.57-15.65-3.72-23.34-6.11-.72-.22-1.47-.31-2.21-.47-.37-2.39-.74-4.77-1.14-7.36,47.04,15.37,93.84,14.95,140.85.08-.37,2.64-.72,5.18-1.08,7.72-5.72,1.66-11.3,3.79-17.17,4.94Z"/>
      <path class="cls-9" d="M27.73,148.33c4.61,1.8,9.47,2.78,14.24,4,8.69,2.22,17.59,3.32,26.5,4.24,9.78,1.01,19.6,1.17,29.4.77,10.01-.41,20-1.33,29.85-3.29,3.79-.75,7.68-.99,11.37-2.23,1.17-.26,2.34-.54,3.51-.78,4.2-.85,8.24-2.39,12.54-2.76-.17,1.89-.37,3.78-.48,5.67-.07,1.24-1.01,1.36-1.86,1.65-9.68,3.28-19.6,5.44-29.73,6.81-15.05,2.04-30.13,2.75-45.3,1.93-16.01-.87-31.73-3.28-47.01-8.29-1.58-.52-2.41-1.29-2.52-2.95-.1-1.59-.33-3.17-.51-4.76Z"/>
      <path class="cls-7" d="M65.1,14.9c-1.61-3.46-1.78-7.15-1.77-10.87,0-1.09.44-1.32,1.39-.96,13.02,4.99,26.76,5.06,40.39,5.82,6.68.37,13.39.72,19.88,2.41,8.27,2.16,14.55,6.75,16.98,15.45-2.26-.21-4.53-.32-6.77-.65-9.57-1.41-19.13-2.97-28.71-4.31-9.44-1.32-18.84-2.81-28.23-4.44-4.4-.76-8.77-1.63-13.16-2.45Z"/>
      <path class="cls-7" d="M74.47,28.72c-2.39-1.92-4.17-4.36-5.82-6.91,1.26-.78,2.53-1.1,4.08-.85,7.55,1.23,15.12,2.34,22.68,3.52,10.25,1.61,20.51,3.2,30.75,4.88,5.9.97,11.85,1.67,17.61,3.34,1.09,3.8,2.19,7.59,3.28,11.39-9.18-1.97-18.33-4.06-27.54-5.88-12.93-2.56-25.78-5.45-38.65-8.25-2.11-.46-4.1-1.7-6.39-1.25Z"/>
      <path class="cls-2" d="M155.15,148.28c-4.3.36-8.35,1.9-12.54,2.76-1.17.24-2.34.52-3.51.78.24-5.31,1.59-10.47,2.09-15.75.7-7.38,2.38-14.65,2.55-22.09,5.87-1.15,11.45-3.28,17.17-4.94-1.84,12.92-3.67,25.84-5.51,38.76-.08.17-.17.33-.25.5,0,0,0-.02,0-.02Z"/>
      <path class="cls-1" d="M74.47,28.72c2.29-.45,4.28.79,6.39,1.25,12.87,2.8,25.72,5.7,38.65,8.25,9.21,1.82,18.36,3.91,27.54,5.88,1.94,4.42,3.47,9.07,7.63,12.97-5.35-.97-9.96-2.03-14.51-3.34-20.73-5.96-40.95-13.35-60.79-21.79-1.84-.78-3.53-1.75-4.91-3.21Z"/>
      <path class="cls-8" d="M126.36,192.61c.57-2.08,2.65-2.98,3.64-4.82,2.8-5.15,3.83-10.8,5.01-16.41.6-2.87.92-5.8,1.37-8.7,5.85-1.21,11.58-2.92,17.51-4.61-.2,4.86-1.12,9.4-1.67,13.98,0,.08-.05.15-.05.22.19,8.95-5.53,13.22-12.83,16.29-4.2,1.77-8.46,3.33-12.98,4.04Z"/>
      <path class="cls-7" d="M94.15,40.73c-5.35,1.17-10.06.96-14.59-.55-6.94-2.32-13.25-1.66-19.1,2.96-3.96,3.13-8.43,4.22-13.62,3.97-9.36-.46-17.52,3.15-24.56,9.21-1.18,1.02-1.72.71-2.49-.25-1.72-2.13-1.84-4.03-.14-6.19,2.35-2.98,5.68-4.54,9.09-5.85,12.46-4.76,25.49-6.82,38.68-8.12.98-.1,2.01-.04,2.95-.3,8.59-2.35,15.76,1.78,23.77,5.12Z"/>
      <path class="cls-6" d="M143.77,32.71c-5.76-1.67-11.72-2.37-17.61-3.34-10.24-1.68-20.49-3.28-30.75-4.88-7.56-1.18-15.13-2.29-22.68-3.52-1.54-.25-2.82.07-4.08.85-1.52-2.13-2.84-4.36-3.55-6.9,4.39.82,8.77,1.68,13.16,2.45,9.39,1.63,18.79,3.12,28.23,4.44,9.58,1.35,19.14,2.9,28.71,4.31,2.24.33,4.51.44,6.77.65.99,1.87,1.46,3.89,1.8,5.96Z"/>
      <path class="cls-8" d="M82.01,69.81c.72-.83,1.69-.55,2.57-.54,6,.13,12.02-.1,17.89-1.07,7.6-1.25,15.27-2.26,22.77-4.13,2.94-.73,5.92-1.32,8.81-2.21,3.3-1.01,4.61-2.84,4.66-5.88,6.1,1.39,12.11,3.21,18.37,4.11-4.96,2.54-10.13,4.23-15.46,5.34-19.53,4.08-39.32,4.96-59.2,4.54-.14,0-.27-.12-.41-.18Z"/>
      <path class="cls-1" d="M149.9,42.46c3.57.86,6.82,2.46,9.98,4.27,1.74,1,3.2,2.33,4.22,4.05,1.12,1.89.62,3.66-.68,5.25-1.27,1.56-2.87,1.49-4.54.77-2.08-.9-3.68-2.38-4.92-4.25-1.97-2.98-3.61-6.12-4.47-9.62.14-.16.27-.31.41-.47Z"/>
      <path class="cls-8" d="M74.27,69.57c.77-.48,1.54-.48,2.29.05-.76-.02-1.53-.04-2.29-.05Z"/>
      <path class="cls-8" d="M72.24,69.34c.4-.14.78-.14,1.11.17-.4.13-.78.12-1.11-.17Z"/>
      <path class="cls-1" d="M149.49,42.93c-.04-.16-.08-.32-.12-.48.18,0,.35,0,.53.01-.14.16-.27.31-.41.47Z"/>
      <path class="cls-9" d="M155.14,148.29c.08-.17.17-.33.25-.5-.08.17-.17.33-.25.5Z"/>
      <path class="cls-3" d="M29.24,158.56c-.01-.17-.03-.35-.04-.52.16.04.31.09.47.13-.14.13-.29.26-.43.4Z"/>
      <path class="cls-8" d="M77.47,69.66c.17-.2.32-.19.47.02-.16,0-.31-.02-.47-.02Z"/>
      <path class="cls-4" d="M114.61,128.52c2.75-.08,5.15.58,6.48,3.27,1.21,2.46.71,4.76-1.65,6.68-.98.8-1,1.27-.19,2.09.74.76,1.36,1.63,2.08,2.41,1,1.08,2.38,2.42.82,3.62-1.49,1.14-2.29-.77-3.14-1.73-.95-1.08-1.81-2.24-2.71-3.37-.57-.72-1.26-1.1-2.19-.7-.89.39-.49,1.17-.48,1.79.02,1.06.15,2.12.22,3.18.07,1-.13,1.92-1.34,1.97-1.12.05-1.32-.85-1.38-1.72-.28-3.79-.54-7.58-.8-11.37-.03-.45-.04-.91-.07-1.37q-.32-4.66,4.34-4.77ZM114.87,130.99c-.56.39-2.35-.66-1.91,1.08.49,1.96-1.04,4.77,1.37,5.76,1.75.71,4.48-2.09,4.47-3.89-.01-1.87-1.38-2.93-3.93-2.95Z"/>
      <path class="cls-4" d="M75.21,137.76c-.02,2.56-.61,4.73-1.98,6.65-3.12,4.35-9.12,3.94-11.64-.78-1.95-3.66-1.2-9.32,1.64-12.4,3.67-3.98,9.74-2.56,11.42,2.71.41,1.3.7,2.65.57,3.83ZM63.42,139.08c.15.79.23,1.87.59,2.86.97,2.68,3.83,3.51,5.87,1.8,2.53-2.12,3.29-7.4,1.46-10.1-1.61-2.38-4.21-2.51-6.13-.36-1.41,1.59-1.64,3.54-1.8,5.8Z"/>
      <path class="cls-4" d="M77.36,139.66c.2-3.95,1.6-7.22,5.23-9.25,2.11-1.18,4.21-1.07,6.33-.06.82.39,1.17,1.04.82,1.85-.28.66-.86.93-1.68.76-4.21-.87-7.04,1.05-7.73,5.28-.31,1.91-.18,3.81.85,5.53,1.26,2.11,4.05,2.65,5.67,1.11.94-.89,1.48-2.13,1.19-3.3-.29-1.16-1.55-.42-2.36-.48-.96-.07-2.03-.06-2.04-1.27-.01-1.26,1.03-1.65,2.11-1.48,1.81.29,4.23-.86,5.21,1.57.95,2.37-.93,6.46-3.21,7.72-3.01,1.65-6.85.66-8.85-2.33-1.13-1.7-1.61-3.59-1.53-5.64Z"/>
      <path class="cls-4" d="M93.86,135.3c0-.76-.04-1.52.01-2.28.08-1.07-.3-2.57,1.38-2.62,1.72-.05,1.45,1.46,1.44,2.53-.03,2.44.1,4.85.38,7.27.15,1.32.54,2.53,1.34,3.58,1.54,2.01,3.52,1.85,4.66-.43,1.56-3.12,1.27-6.49,1.11-9.83-.04-.83-.13-1.67-.06-2.49.05-.65.48-1.1,1.22-1.11.71-.02,1.24.34,1.33,1,.65,4.78.96,9.58-1.18,14.08-.92,1.93-2.63,3.12-4.97,3.01-2.26-.11-3.85-1.23-4.9-3.18-1.62-2.99-1.81-6.23-1.76-9.52Z"/>
      <path class="cls-4" d="M50.46,143.66c2.07-5.61-.7-10.07-3.3-14.57-.11-.2-.23-.39-.33-.6-.41-.84-.89-1.75.24-2.37,1.12-.62,1.64.21,2.1,1.07.9,1.68,1.89,3.3,2.69,5.03.64,1.39,1.17,1.3,2,.2,1.05-1.4,2.19-2.73,3.27-4.1.72-.92,1.66-1.67,2.68-.83.93.78.33,1.8-.38,2.59-.2.23-.39.47-.61.68-3.78,3.56-5.82,7.86-5.47,13.14.07,1.11-.2,2.17-1.47,2.05-1.21-.11-1.35-1.25-1.41-2.27Z"/>
      <path class="cls-4" d="M136.4,128.25c-.05,1.31-1.06,1.35-1.93,1.54-3.27.69-3.24.69-2.88,4.08.31,3.03.58,6.06.78,9.1.06,1.02.62,2.56-1.21,2.62-1.53.04-1.41-1.35-1.51-2.37-.35-3.64-.73-7.27-.9-10.92-.07-1.54-.58-2.04-2.02-1.73-.37.08-.74.22-1.12.22-.97,0-2.19.18-2.35-1.16-.16-1.38.99-1.46,2.01-1.57,3.03-.32,6.05-.65,9.07-1.02,1.08-.14,1.77.18,2.07,1.23Z"/>
      <path class="cls-8" d="M92.01,60.2c2.59-1.46,5.04-.92,7.32-1.32,2.19-.39,4.26-.95,6.27-1.85,1.4-.62,3.33-1.41,4.01.26.71,1.75-1.47,2.27-2.72,2.61-4.76,1.3-9.59,1.6-14.89.29Z"/>
      <path class="cls-2" d="M114.87,130.99c2.55.01,3.92,1.08,3.93,2.95.01,1.8-2.72,4.6-4.47,3.89-2.41-.99-.88-3.8-1.37-5.76-.43-1.74,1.36-.68,1.91-1.08Z"/>
      <path class="cls-5" d="M63.42,139.08c.16-2.26.38-4.21,1.8-5.8,1.91-2.15,4.51-2.02,6.13.36,1.83,2.7,1.07,7.98-1.46,10.1-2.05,1.72-4.91.88-5.87-1.8-.36-.99-.43-2.07-.59-2.86Z"/>
    </g>
  </g>
</svg>